<svg xmlns="http://www.w3.org/2000/svg" width="16" height="16" viewBox="0 0 16 16">
  <path fill="#FFF" fill-opacity=".6" fill-rule="evenodd" d="M8.00031808,0.99950155 C11.8603458,0.99950155 14.9999738,4.1390565 14.9999738,7.99950155 C14.9999738,11.8599466 11.8603458,14.9995015 8.00031808,14.9995015 C4.13971544,14.9995015 0.999973754,11.8600603 0.999973754,7.99950155 C0.999973754,4.13894278 4.13971544,0.99950155 8.00031808,0.99950155 Z M11.4999738,8.99950155 C12.0526404,8.99950155 12.4999738,8.55150155 12.4999738,7.99950155 C12.4999738,7.44683488 12.0526404,6.99950155 11.4999738,6.99950155 C10.9473071,6.99950155 10.4999738,7.44683488 10.4999738,7.99950155 C10.4999738,8.55150155 10.9473071,8.99950155 11.4999738,8.99950155 Z M7.99997375,8.99950155 C8.55264042,8.99950155 8.99997375,8.55150155 8.99997375,7.99950155 C8.99997375,7.44683488 8.55264042,6.99950155 7.99997375,6.99950155 C7.44797375,6.99950155 6.99997375,7.44683488 6.99997375,7.99950155 C6.99997375,8.55150155 7.44797375,8.99950155 7.99997375,8.99950155 Z M4.49997375,8.99950155 C5.05264042,8.99950155 5.49997375,8.55150155 5.49997375,7.99950155 C5.49997375,7.44683488 5.05264042,6.99950155 4.49997375,6.99950155 C3.94797375,6.99950155 3.49997375,7.44683488 3.49997375,7.99950155 C3.49997375,8.55150155 3.94797375,8.99950155 4.49997375,8.99950155 Z"/>
</svg>
