<svg xmlns="http://www.w3.org/2000/svg" width="16" height="16" viewBox="0 0 16 16">
  <path fill="#FFF" fill-opacity=".6" fill-rule="evenodd" d="M3,2 L13,2 C14.1045695,2 15,2.8954305 15,4 L15,12 C15,13.1045695 14.1045695,14 13,14 L3,14 C1.8954305,14 1,13.1045695 1,12 L1,4 C1,2.8954305 1.8954305,2 3,2 Z M3.76776695,5.35355339 L6.03553391,7.62132034 L3.76776695,9.8890873 L4.47487373,10.5961941 L7.44974747,7.62132034 L4.47487373,4.64644661 L3.76776695,5.35355339 Z M5.91666667,12 L11.0833333,12 L11.0833333,11 L5.91666667,11 L5.91666667,12 Z"/>
</svg>
