<svg xmlns="http://www.w3.org/2000/svg" width="16" height="16" viewBox="0 0 16 16">
  <path fill="#FFF" fill-opacity=".6" fill-rule="evenodd" d="M13,2 C14.1045695,2 15,2.8954305 15,4 L15,12 C15,13.1045695 14.1045695,14 13,14 L3,14 C1.8954305,14 1,13.1045695 1,12 L1,4 C1,2.8954305 1.8954305,2 3,2 L13,2 Z M9.38816736,7.22265239 L7.95626236,10.0443009 C7.82854357,10.2959779 7.59618367,10.3016397 7.44581474,10.0701011 L6.5212474,8.6464491 C6.2918509,8.42797452 5.91137533,8.45796439 5.72281255,8.70938339 L3.09783322,12.2093834 C2.84963451,12.5403176 3.0980227,13 3.52503993,13 L12.9749655,13 C13.3830419,13 13.6350993,12.5760169 13.4251458,12.2427546 L10.2751706,7.24275461 C10.0768804,6.92800582 9.60195261,6.91724249 9.38816736,7.22265239 Z M4.5,4 C3.67157288,4 3,4.67157288 3,5.5 C3,6.32842712 3.67157288,7 4.5,7 C5.32842712,7 6,6.32842712 6,5.5 C6,4.67157288 5.32842712,4 4.5,4 Z"/>
</svg>
