<svg xmlns="http://www.w3.org/2000/svg" width="16" height="16" viewBox="0 0 16 16">
  <path fill="#FFF" fill-opacity=".6" fill-rule="evenodd" d="M3,14 C1.8954305,14 1,13.1045695 1,12 L1,4 C1,2.8954305 1.8954305,2 3,2 L13,2 C14.1045695,2 15,2.8954305 15,4 L15,12 C15,13.0543618 14.1841222,13.9181651 13.1492623,13.9945143 L13,14 L13,14 L3,14 Z M14,5 L2,5 L2,12 C2,12.5522847 2.44771525,13 3,13 L8.01233301,13.0001639 C8.01943442,12.9772458 8.02824971,12.9546419 8.0388094,12.9325301 L8.30383017,12.3775926 C8.34459502,12.2912196 8.34695846,12.1917404 8.30983658,12.1028011 C8.27399122,12.0159757 8.20318605,11.9486684 8.11444707,11.9170901 L7.53244707,11.7100901 C7.33313205,11.6391997 7.19999981,11.4505463 7.19999981,11.2389998 L7.19999981,10.1609998 C7.19999981,9.9491733 7.33347927,9.7603339 7.53316619,9.6896543 L8.11249002,9.4846101 C8.20258302,9.4521442 8.27390085,9.3842428 8.31058669,9.2953916 C8.34695846,9.2082592 8.34459502,9.10878 8.3048094,9.0244696 L8.0388094,8.46746956 C7.94749917,8.2762673 7.98662009,8.04827275 8.13644642,7.89844642 L8.89844642,7.13644642 C9.04827275,6.98662009 9.2762673,6.94749917 9.46746956,7.0388094 L10.022407,7.30383017 C10.10878,7.34459502 10.2082592,7.34695846 10.2971985,7.30983658 C10.3842159,7.27391194 10.4518724,7.202745 10.4837447,7.11391109 L10.6897447,6.53291109 C10.7604992,6.33335606 10.9492726,6.19999981 11.1609998,6.19999981 L12.2389998,6.19999981 C12.450727,6.19999981 12.6395004,6.33335606 12.7102549,6.53291109 L12.9156316,7.11216331 C12.9481272,7.202745 13.0157837,7.27391194 13.104608,7.31058669 C13.1917404,7.34695846 13.2912196,7.34459502 13.3755301,7.3048094 L13.9325301,7.0388094 L14,7.013 L14,5 Z M11.6999998,9.1999998 C10.8729998,9.1999998 10.1999998,9.8729998 10.1999998,10.6999998 C10.1999998,11.5269998 10.8729998,12.1999998 11.6999998,12.1999998 C12.5269998,12.1999998 13.1999998,11.5269998 13.1999998,10.6999998 C13.1999998,9.8729998 12.5269998,9.1999998 11.6999998,9.1999998 Z M13,3 L12,3 L12,4 L13,4 L13,3 Z M9,3 L8,3 L8,4 L9,4 L9,3 Z M11,3 L10,3 L10,4 L11,4 L11,3 Z"/>
</svg>
