<svg xmlns="http://www.w3.org/2000/svg" width="16" height="16" viewBox="0 0 16 16">
  <path fill-rule="evenodd" d="M13.9529472,2.53458892 C13.9842218,2.67532449 14,2.81906015 14,2.9632288 L14,11.5 C14,12.6045695 13.1045695,13.5 12,13.5 C10.8954305,13.5 10,12.6045695 10,11.5 C10,10.3954305 10.8954305,9.5 12,9.5 C12.364732,9.5 12.7066608,9.5976323 13.0010775,9.76818814 L13,3.81473429 C13,3.45097522 12.705115,3.15609023 12.3413559,3.15609023 C12.2949677,3.15609023 12.2487093,3.16099086 12.2033508,3.17071053 L6.52063898,4.38843451 C6.21695744,4.45350912 6,4.7218827 6,5.03245826 L6,13.5 C6,14.6045695 5.1045695,15.5 4,15.5 C2.8954305,15.5 2,14.6045695 2,13.5 C2,12.3954305 2.8954305,11.5 4,11.5 C4.364732,11.5 4.70666076,11.5976323 5.0010775,11.7681881 L5,4.08503671 C5,3.15891996 5.64322914,2.35706019 6.54729233,2.15615726 L11.5954279,1.03434935 C12.6607186,0.797618084 13.716216,1.46929822 13.9529472,2.53458892 Z"/>
</svg>
