<svg xmlns="http://www.w3.org/2000/svg" width="16" height="16" viewBox="0 0 16 16">
  <g fill="none" fill-opacity=".6" fill-rule="evenodd">
    <path fill="#FFF" d="M1.85789238,2.64258737 C4.86313703,2.21112969 6.5771729,2.75883866 7,4.28571429 L7,13.7857143 C6.27058294,12.8374721 4.43450345,12.3388115 1.49176152,12.2897326 C1.2188519,12.2852804 1,12.062748 1,11.7898021 L1,3.63241367 C1.00002467,3.13504017 1.36556687,2.71326968 1.85789238,2.64258737 Z"/>
    <path fill="#FFF" d="M9.85789238,2.64258737 C12.863137,2.21112969 14.5771729,2.75883866 15,4.28571429 L15,13.7857143 C14.2705829,12.8374721 12.4345034,12.3388115 9.49176152,12.2897326 C9.2188519,12.2852804 9,12.062748 9,11.7898021 L9,3.63241367 C9.00002467,3.13504017 9.36556687,2.71326968 9.85789238,2.64258737 Z" transform="matrix(-1 0 0 1 24 0)"/>
  </g>
</svg>
