<?xml version="1.0" encoding="UTF-8"?>
<svg width="14px" height="14px" viewBox="0 0 14 14" version="1.1" xmlns="http://www.w3.org/2000/svg" xmlns:xlink="http://www.w3.org/1999/xlink">
    <title>形状结合</title>
    <g id="launcher" stroke="none" stroke-width="1" fill="none" fill-rule="evenodd">
        <g id="launcher2" transform="translate(-46.000000, -44.000000)" fill="#FFFFFF">
            <path d="M50,53 C50.5522847,53 51,53.4477153 51,54 L51,57 C51,57.5522847 50.5522847,58 50,58 L47,58 C46.4477153,58 46,57.5522847 46,57 L46,54 C46,53.4477153 46.4477153,53 47,53 L50,53 Z M59,53 C59.5522847,53 60,53.4477153 60,54 L60,57 C60,57.5522847 59.5522847,58 59,58 L56,58 C55.4477153,58 55,57.5522847 55,57 L55,54 C55,53.4477153 55.4477153,53 56,53 L59,53 Z M50,44 C50.5522847,44 51,44.4477153 51,45 L51,48 C51,48.5522847 50.5522847,49 50,49 L47,49 C46.4477153,49 46,48.5522847 46,48 L46,45 C46,44.4477153 46.4477153,44 47,44 L50,44 Z M59,44 C59.5522847,44 60,44.4477153 60,45 L60,48 C60,48.5522847 59.5522847,49 59,49 L56,49 C55.4477153,49 55,48.5522847 55,48 L55,45 C55,44.4477153 55.4477153,44 56,44 L59,44 Z" id="形状结合"></path>
        </g>
    </g>
</svg>