<svg xmlns="http://www.w3.org/2000/svg" width="16" height="16" viewBox="0 0 16 16">
  <path fill="#FFF" fill-opacity=".6" fill-rule="evenodd" d="M14.6796875,1 C15.1667188,1 15.5,1.316 15.5,1.66666667 L15.5,2.33333333 C15.5,2.684 15.1667188,3 14.6796875,3 L14,3 L14,9.0952381 C14,10.147209 13.1045695,11 12,11 L10.223,11 L12.2674534,13.0443466 C12.4627155,13.2396088 12.4627155,13.5561912 12.2674534,13.7514534 C12.0721912,13.9467155 11.7556088,13.9467155 11.5603466,13.7514534 L8.9995,11.1905 L9,14.5 C9,14.7761424 8.77614237,15 8.5,15 C8.24358208,15 8.03224642,14.8069799 8.00336387,14.5583106 L8,14.5 L7.9995,11.191 L5.43965339,13.7514534 C5.25941141,13.9316954 4.97579588,13.9455601 4.77965028,13.7930477 L4.73254661,13.7514534 C4.55230463,13.5712114 4.53843986,13.2875959 4.69095231,13.0914503 L4.73254661,13.0443466 L6.776,11 L4,11 C2.8954305,11 2,10.147209 2,9.0952381 L2,3 L1.3203125,3 C0.83328125,3 0.5,2.684 0.5,2.33333333 L0.5,1.66666667 C0.5,1.316 0.83328125,1 1.3203125,1 L14.6796875,1 Z M13,3 L3,3 L3,9.05882353 C3,9.57862094 3.44771525,10 4,10 L12,10 C12.5522847,10 13,9.57862094 13,9.05882353 L13,3 Z M8,4.5 L8,6.5 L10,6.5 C10,7.6045695 9.1045695,8.5 8,8.5 C6.8954305,8.5 6,7.6045695 6,6.5 C6,5.3954305 6.8954305,4.5 8,4.5 Z M9,3.5 C10.1045695,3.5 11,4.3954305 11,5.5 L9,5.5 L9,3.5 Z"/>
</svg>
