<svg xmlns="http://www.w3.org/2000/svg" width="16" height="16" viewBox="0 0 16 16">
  <path fill-rule="evenodd" d="M0.09791679,7.31479943 C0.09791679,3.53173257 3.65198565,0.5 8,0.5 C12.3485596,0.5 15.9020832,3.53150012 15.9020832,7.31479943 C15.9020832,11.0972813 12.3485704,14.127954 8,14.127954 C7.06316558,14.127954 6.1471898,13.9862478 5.28311727,13.7134084 L2.55321759,15.327403 C2.15529088,15.5626687 1.67860204,15.1782665 1.82419813,14.7395213 L2.62951677,12.3127412 C1.03368368,11.0385392 0.09791679,9.24513974 0.09791679,7.31479943 Z M4.7455,6.9148 C4.7455,6.2248 4.1855,5.6648 3.4955,5.6648 C2.8055,5.6648 2.2455,6.2248 2.2455,6.9148 C2.2455,7.6048 2.8055,8.1648 3.4955,8.1648 C4.1855,8.1648 4.7455,7.6048 4.7455,6.9148 Z M9.2504,6.9148 C9.2504,6.2248 8.6904,5.6648 8.0004,5.6648 C7.3104,5.6648 6.7504,6.2248 6.7504,6.9148 C6.7504,7.6048 7.3104,8.1648 8.0004,8.1648 C8.6904,8.1648 9.2504,7.6048 9.2504,6.9148 Z M13.766,6.9148 C13.766,6.2248 13.206,5.6648 12.516,5.6648 C11.826,5.6648 11.266,6.2248 11.266,6.9148 C11.266,7.6048 11.826,8.1648 12.516,8.1648 C13.206,8.1648 13.766,7.6048 13.766,6.9148 Z"/>
</svg>
