<svg xmlns="http://www.w3.org/2000/svg" width="16" height="16" viewBox="0 0 16 16">
  <path fill="#FFF" fill-opacity=".6" fill-rule="evenodd" d="M7.99960993,0.9998 C11.8598496,0.9998 15,4.13995046 15,7.99940993 C15,11.8596496 11.8598496,14.9998 7.99960993,14.9998 C4.14015046,14.9998 1,11.8596496 1,7.99940993 C1,4.13995046 4.14015046,0.9998 7.99960993,0.9998 Z M8.86971986,11.9145 C8.56971986,12.747 8.22071986,13.122 7.99971986,13.122 C7.78521986,13.122 7.44971986,12.768 7.15571986,11.9845 C6.86571986,12.132 6.61521986,12.2485 6.36971986,12.354 C6.75321986,13.3495 7.29871986,14 7.99971986,14 C8.71921986,14 9.27521986,13.314 9.66021986,12.274 C9.41771986,12.1735 9.16171986,12.0585 8.86971986,11.9145 Z M12.0962199,3.61 C10.8027199,3.61 9.05121986,4.5085 7.94421986,5.19 C6.85371986,4.547 5.16021986,3.717 3.90321986,3.717 C3.19571986,3.717 2.85321986,4 2.69121986,4.238 C2.46021986,4.576 2.34571986,5.1655 2.90071986,6.1455 C2.82221986,6.286 2.77771986,6.448 2.77771986,6.6205 C2.77771986,7.154 3.20271986,7.5865 3.72621986,7.5865 C4.24971986,7.5865 4.67471986,7.154 4.67471986,6.6205 C4.67471986,6.087 4.25021986,5.6545 3.72621986,5.6545 L3.72621986,5.6545 L3.62121986,5.6605 C3.32971986,5.131 3.33321986,4.8355 3.39871986,4.7395 C3.46021986,4.6485 3.64921986,4.595 3.90321986,4.595 C4.30121986,4.595 4.82071986,4.7155 5.41071986,4.9325 C5.98671986,5.145 6.57721986,5.43 7.11871986,5.728 C5.99421986,6.502 5.13171986,7.25 4.36621986,8.027 C4.02471986,8.379 3.68871986,8.7615 3.39771986,9.1515 C2.30221986,10.6215 2.40671986,11.433 2.68771986,11.8555 C3.25671986,12.71 4.68721986,12.3665 5.64571986,12.014 C7.99371986,11.151 11.0597199,8.9165 12.6017199,6.848 C13.6972199,5.3785 13.5927199,4.567 13.3117199,4.1445 C13.1492199,3.9005 12.8067199,3.61 12.0962199,3.61 Z M12.2647199,8.445 C11.7407199,8.445 11.3162199,8.8775 11.3162199,9.411 C11.3162199,9.9445 11.7407199,10.377 12.2647199,10.377 L12.3937199,10.368 C12.6702199,10.88 12.6657199,11.167 12.6012199,11.2615 C12.5392199,11.352 12.3507199,11.4055 12.0967199,11.4055 C11.2957199,11.4055 10.1802199,10.933 9.46171986,10.5765 C9.22171986,10.7475 8.92321986,10.9505 8.63221986,11.136 C9.59521986,11.6545 11.0112199,12.2835 12.0967199,12.2835 C12.8042199,12.2835 13.1467199,12.0005 13.3087199,11.7625 C13.5392199,11.4255 13.6537199,10.8375 13.1032199,9.8625 C13.1737199,9.7275 13.2132199,9.574 13.2132199,9.411 C13.2132199,8.8775 12.7887199,8.445 12.2647199,8.445 Z M12.0962199,4.4875 C12.3517199,4.4875 12.5347199,4.542 12.5977199,4.6365 C12.6907199,4.776 12.6677199,5.3075 11.9147199,6.317 C10.9462199,7.6165 9.40121986,8.8925 8.04671986,9.7805 C6.94321986,10.504 5.07821986,11.5125 3.90321986,11.5125 C3.64771986,11.5125 3.46471986,11.458 3.40171986,11.3635 C3.21521986,11.083 3.61221986,10.04 5.02121986,8.601 C5.54371986,9.0665 6.10721986,9.5115 6.67921986,9.917 L6.67921986,9.917 C6.98671986,9.7555 7.25071986,9.597 7.51171986,9.4315 C6.82921986,8.9695 6.18871986,8.4705 5.65121986,7.995 C6.36621986,7.3465 7.16221986,6.738 7.95271986,6.2195 C8.64121986,6.6515 9.30521986,7.133 9.90271986,7.625 C10.1212199,7.429 10.3347199,7.226 10.5382199,7.0195 C9.99971986,6.5705 9.40971986,6.1295 8.77721986,5.711 C9.63321986,5.217 11.1197199,4.4875 12.0962199,4.4875 Z M7.99971986,2 C7.28021986,2 6.72421986,2.686 6.33921986,3.726 C6.58321986,3.827 6.83971986,3.9425 7.12971986,4.0855 C7.42971986,3.253 7.77871986,2.878 7.99971986,2.878 C8.21471986,2.878 8.54971986,3.232 8.84371986,4.0155 C9.13071986,3.8695 9.38371986,3.7515 9.62971986,3.646 C9.24671986,2.6505 8.70071986,2 7.99971986,2 Z"/>
</svg>
