<svg xmlns="http://www.w3.org/2000/svg" width="16" height="16" viewBox="0 0 16 16">
  <path fill="#FFF" fill-opacity=".6" fill-rule="evenodd" d="M11.3114315,3 C13.357501,3 15.0067163,5.17017281 15.7133188,8.05794777 C16.4086522,10.8996678 15.9150863,13.3535714 14.0872428,13.3535714 C13.3629901,13.3535714 12.7141246,13.0969142 11.9239825,12.5819693 C11.7832522,12.4902536 11.638281,12.3909224 11.461347,12.2660165 C11.3686071,12.200547 11.0517692,11.9743261 11.0062924,11.9420563 C9.76649639,11.0623107 9.01108239,10.715 8.00430016,10.715 C6.77138366,10.715 5.99921712,11.0762729 4.96661589,11.9397238 C4.93060093,11.9698391 4.48571222,12.3483964 4.35343872,12.4563717 C3.49008067,13.1611339 2.80601727,13.4628505 1.87123269,13.3869162 C0.0836355556,13.241098 -0.391076934,10.7851693 0.309935396,7.98500253 C1.02394135,5.13293317 2.67988585,3 4.7263796,3 C5.07581055,3 5.40379038,3.09122326 5.76942208,3.26509058 C5.87841375,3.31691894 5.98930228,3.37514875 6.12219409,3.44909841 C6.19628024,3.49032478 6.44963239,3.6346061 6.45727206,3.63892075 C7.10277068,4.00347855 7.50182674,4.14857143 8.01851079,4.14857143 C8.51588602,4.14857143 8.90120605,4.00650828 9.55466919,3.63859493 C9.69986269,3.55637602 9.78224829,3.50972827 9.84835639,3.47295723 C9.96412339,3.40856473 10.0609743,3.35696675 10.1556729,3.31001061 C10.567507,3.10580322 10.9247171,3 11.3114315,3 Z M5.07357978,10.107 C6.56572905,10.107 7.78410609,8.9267355 7.78410609,7.46414286 C7.78410609,6.00155021 6.56572905,4.82128571 5.07357978,4.82128571 C3.57990894,4.82128571 2.36305346,6.00089051 2.36305346,7.46414286 C2.36305346,8.9273952 3.57990894,10.107 5.07357978,10.107 Z M5.07357978,9.107 C4.12535588,9.107 3.36305346,8.36803337 3.36305346,7.46414286 C3.36305346,6.56025235 4.12535588,5.82128571 5.07357978,5.82128571 C6.02043115,5.82128571 6.78410609,6.56107184 6.78410609,7.46414286 C6.78410609,8.36721388 6.02043115,9.107 5.07357978,9.107 Z M5.03983241,8.37864286 C5.54751662,8.37864286 5.9601482,7.97792857 5.9601482,7.48935714 C5.9601482,6.99292857 5.54751662,6.59364286 5.03983241,6.59364286 C4.53067452,6.59364286 4.11804294,6.99292857 4.11804294,7.48935714 C4.11804294,7.97792857 4.53067452,8.37864286 5.03983241,8.37864286 Z M9.65408509,8.38564286 C10.1617693,8.38564286 10.5744008,7.9835 10.5744008,7.49135714 C10.5744008,6.99135714 10.1617693,6.58992857 9.65408509,6.58992857 C9.14492719,6.58992857 8.73229557,6.99135714 8.73229557,7.49135714 C8.73229557,7.9835 9.14492719,8.38564286 9.65408509,8.38564286 Z M11.3288535,9.99071429 C11.8365377,9.99071429 12.2491693,9.58928571 12.2491693,9.09214286 C12.2491693,8.59571429 11.8365377,8.19357143 11.3288535,8.19357143 C10.8196956,8.19357143 10.407064,8.59571429 10.407064,9.09214286 C10.407064,9.58928571 10.8196956,9.99071429 11.3288535,9.99071429 Z M11.3281166,6.77357143 C11.8372745,6.77357143 12.2491693,6.37142857 12.2491693,5.87357143 C12.2491693,5.37714286 11.8372745,4.97428571 11.3281166,4.97428571 C10.8174851,4.97428571 10.407064,5.37714286 10.407064,5.87357143 C10.407064,6.37142857 10.8174851,6.77357143 11.3281166,6.77357143 Z M12.9731166,8.38421429 C13.4852219,8.38421429 13.8971166,7.98135714 13.8971166,7.48921429 C13.8971166,6.98992857 13.4852219,6.5885 12.9731166,6.5885 C12.4676429,6.5885 12.0550114,6.98992857 12.0550114,7.48921429 C12.0550114,7.98135714 12.4676429,8.38421429 12.9731166,8.38421429 Z"/>
</svg>
