<svg xmlns="http://www.w3.org/2000/svg" width="16" height="16" viewBox="0 0 16 16">
  <path fill-rule="evenodd" d="M12,2 C13.1045695,2 14,2.8954305 14,4 L14,13 C14,14.1045695 13.1045695,15 12,15 L4,15 C2.8954305,15 2,14.1045695 2,13 L2,4 C2,2.8954305 2.8954305,2 4,2 L12,2 Z M4.5,12 L3.5,12 C3.22385763,12 3,12.2238576 3,12.5 L3,12.5 L3,13 C3,13.5522847 3.44771525,14 4,14 L4,14 L4.5,14 C4.77614237,14 5,13.7761424 5,13.5 L5,13.5 L5,12.5 C5,12.2238576 4.77614237,12 4.5,12 L4.5,12 Z M12.5,12 L11.5,12 C11.2238576,12 11,12.2238576 11,12.5 L11,12.5 L11,13.5 C11,13.7761424 11.2238576,14 11.5,14 L11.5,14 L12,14 C12.5522847,14 13,13.5522847 13,13 L13,13 L13,12.5 C13,12.2238576 12.7761424,12 12.5,12 L12.5,12 Z M4.5,9 L3.5,9 C3.22385763,9 3,9.22385763 3,9.5 L3,9.5 L3,10.5 C3,10.7761424 3.22385763,11 3.5,11 L3.5,11 L4.5,11 C4.77614237,11 5,10.7761424 5,10.5 L5,10.5 L5,9.5 C5,9.22385763 4.77614237,9 4.5,9 L4.5,9 Z M12.5,9 L11.5,9 C11.2238576,9 11,9.22385763 11,9.5 L11,9.5 L11,10.5 C11,10.7761424 11.2238576,11 11.5,11 L11.5,11 L12.5,11 C12.7761424,11 13,10.7761424 13,10.5 L13,10.5 L13,9.5 C13,9.22385763 12.7761424,9 12.5,9 L12.5,9 Z M4.5,6 L3.5,6 C3.22385763,6 3,6.22385763 3,6.5 L3,6.5 L3,7.5 C3,7.77614237 3.22385763,8 3.5,8 L3.5,8 L4.5,8 C4.77614237,8 5,7.77614237 5,7.5 L5,7.5 L5,6.5 C5,6.22385763 4.77614237,6 4.5,6 L4.5,6 Z M12.5,6 L11.5,6 C11.2238576,6 11,6.22385763 11,6.5 L11,6.5 L11,7.5 C11,7.77614237 11.2238576,8 11.5,8 L11.5,8 L12.5,8 C12.7761424,8 13,7.77614237 13,7.5 L13,7.5 L13,6.5 C13,6.22385763 12.7761424,6 12.5,6 L12.5,6 Z M4.5,3 L4,3 C3.44771525,3 3,3.44771525 3,4 L3,4 L3,4.5 C3,4.77614237 3.22385763,5 3.5,5 L3.5,5 L4.5,5 C4.77614237,5 5,4.77614237 5,4.5 L5,4.5 L5,3.5 C5,3.22385763 4.77614237,3 4.5,3 L4.5,3 Z M12,3 L11.5,3 C11.2238576,3 11,3.22385763 11,3.5 L11,3.5 L11,4.5 C11,4.77614237 11.2238576,5 11.5,5 L11.5,5 L12.5,5 C12.7761424,5 13,4.77614237 13,4.5 L13,4.5 L13,4 C13,3.44771525 12.5522847,3 12,3 L12,3 Z"/>
</svg>
