<?xml version="1.0" encoding="UTF-8" standalone="no"?>
<svg width="16px" height="16px" viewBox="0 0 16 16" version="1.1" xmlns="http://www.w3.org/2000/svg" xmlns:xlink="http://www.w3.org/1999/xlink">
    <!-- Generator: Sketch 3.6.1 (26313) - http://www.bohemiancoding.com/sketch -->
    <title>development_hover_16px</title>
    <desc>Created with Sketch.</desc>
    <defs></defs>
    <g id="Page-1" stroke="none" stroke-width="1" fill="none" fill-rule="evenodd">
        <g id="development_hover_16px">
            <rect id="Rectangle-1-Copy-19" fill="#747568" opacity="0" x="0" y="0" width="16" height="16"></rect>
            <g id="Page-1" transform="translate(0.000000, 1.000000)" fill="#FFFFFF" opacity="0.8">
                <path d="M13.948279,12.9973173 C13.9609216,12.9985545 13.9609216,12.9985545 13.9807336,12.9998575 C14.1250501,13.0080081 14.2867096,12.9884369 14.4544231,12.9133012 C14.7909428,12.7625404 15,12.4380836 15,11.9999996 L15,2 C15,2.07792835 15.0023209,1.73084751 14.9988371,1.66326098 C14.9890217,1.47284328 14.9485331,1.32742628 14.8105534,1.18944661 C14.6725737,1.05146693 14.5271567,1.01097828 14.336739,1.00116294 C14.2691525,0.997679095 13.9220716,1 14,1 L1.99999999,1 C2.07792819,1 1.73084751,0.997679094 1.66326097,1.00116294 C1.47284327,1.01097828 1.32742628,1.05146693 1.1894466,1.1894466 C1.05146693,1.32742628 1.01097828,1.47284327 1.00116294,1.66326097 C0.997679094,1.73084751 1,2.07792819 1,1.99999999 L1,11.9999996 C1,11.9220712 0.997679095,12.2691521 1.00116294,12.3367386 C1.01097828,12.5271563 1.05146693,12.6725733 1.18944661,12.810553 C1.32742628,12.9485326 1.47284328,12.9890213 1.66326098,12.9988366 C1.73084751,13.0023205 2.07792835,12.9999996 2,12.9999996 L14,12.9999996 L13.948279,12.9973173 Z M6.988,5.726 L4.203,2.993 L3.542,3.642 L5.666,5.726 L3.5,7.852 L4.161,8.5 L6.988,5.726 Z M6.032,10 L11.032,10 L11.032,9 L6.032,9 L6.032,10 Z M2,11.9999996 C2.03184438,11.9999996 2,1.99999999 2,1.99999999 C2,2.03184425 14,2 14,2 C13.9681556,2 14,11.9999996 14,11.9999996 C14,12.0449156 2,11.9999996 2,11.9999996 Z" id="Combined-Shape"></path>
            </g>
        </g>
    </g>
</svg>