<?xml version="1.0" encoding="UTF-8" standalone="no"?>
<svg width="22px" height="22px" viewBox="0 0 22 22" version="1.1" xmlns="http://www.w3.org/2000/svg" xmlns:xlink="http://www.w3.org/1999/xlink">
    <!-- Generator: Sketch 3.6.1 (26313) - http://www.bohemiancoding.com/sketch -->
    <title>game_hover_22px</title>
    <desc>Created with Sketch.</desc>
    <defs></defs>
    <g id="Page-1" stroke="none" stroke-width="1" fill="none" fill-rule="evenodd">
        <g id="game_hover_22px">
            <rect id="Rectangle-46-Copy-52" fill="#747568" opacity="0" x="0" y="0" width="22" height="22"></rect>
            <g id="Page-1" transform="translate(1.000000, 4.000000)" fill="#FFFFFF" opacity="0.8">
                <path d="M1.0114,9.5156 C1.1714,5.9596 3.0874,0.9996 5.8444,0.9996 C6.3044,0.9996 6.7634,1.2886 7.2954,1.6236 C8.0274,2.0846 8.8574,2.6086 10.0144,2.6086 C11.1314,2.6086 11.9514,2.0946 12.6754,1.6406 C13.2244,1.2966 13.6994,0.9996 14.1854,0.9996 C17.0804,0.9996 19.0004,6.4646 19.0004,10.0786 C19.0004,11.0406 18.8664,11.8346 18.6144,12.3746 C18.2774,13.0946 17.8444,13.0946 17.7014,13.0946 C16.6794,13.0946 15.7734,12.3796 14.7234,11.5516 C13.4474,10.5436 11.9994,9.4016 9.9964,9.4016 C7.5364,9.4016 6.1774,10.6816 5.0834,11.7106 C4.1644,12.5776 3.4554,13.2486 2.3244,13.1456 C1.2404,13.0476 0.9394,11.1286 1.0114,9.5156 M2.2354,14.1416 C2.3424,14.1516 2.4474,14.1566 2.5494,14.1566 C3.9454,14.1566 4.8724,13.2836 5.7694,12.4386 C6.8334,11.4376 7.9334,10.4016 9.9964,10.4016 C11.6524,10.4016 12.8994,11.3846 14.1044,12.3356 C15.2504,13.2406 16.3324,14.0946 17.7014,14.0946 C18.2544,14.0946 19.0184,13.8696 19.5194,12.7986 C19.8344,12.1266 20.0004,11.1866 20.0004,10.0786 C20.0004,5.8696 17.7884,-0.0004 14.1854,-0.0004 C13.4114,-0.0004 12.7674,0.4036 12.1444,0.7936 C11.4754,1.2126 10.8434,1.6086 10.0144,1.6086 C9.1464,1.6086 8.4754,1.1866 7.8274,0.7786 C7.2204,0.3956 6.5934,-0.0004 5.8444,-0.0004 C2.3164,-0.0004 0.1904,5.5006 0.0124,9.4716 C-0.1126,12.2586 0.7184,14.0046 2.2354,14.1416" id="Fill-1"></path>
                <path d="M6.0192,3.5498 C7.3972,3.5498 8.5192,4.6708 8.5192,6.0498 C8.5192,7.4288 7.3972,8.5498 6.0192,8.5498 C4.6402,8.5498 3.5192,7.4288 3.5192,6.0498 C3.5192,4.6708 4.6402,3.5498 6.0192,3.5498 M6.0192,9.5498 C7.9492,9.5498 9.5192,7.9798 9.5192,6.0498 C9.5192,4.1198 7.9492,2.5498 6.0192,2.5498 C4.0892,2.5498 2.5192,4.1198 2.5192,6.0498 C2.5192,7.9798 4.0892,9.5498 6.0192,9.5498" id="Fill-4"></path>
                <path d="M12.2357,7.3399 C12.9247,7.3399 13.4847,6.7759 13.4847,6.0869 C13.4847,5.3879 12.9247,4.8259 12.2357,4.8259 C11.5447,4.8259 10.9847,5.3879 10.9847,6.0869 C10.9847,6.7759 11.5447,7.3399 12.2357,7.3399" id="Fill-6"></path>
                <path d="M5.9733,7.3302 C6.6623,7.3302 7.2223,6.7702 7.2223,6.0852 C7.2223,5.3902 6.6623,4.8312 5.9733,4.8312 C5.2823,4.8312 4.7223,5.3902 4.7223,6.0852 C4.7223,6.7702 5.2823,7.3302 5.9733,7.3302" id="Fill-8"></path>
                <path d="M14.5082,7.0712 C13.8172,7.0712 13.2572,7.6342 13.2572,8.3292 C13.2572,9.0242 13.8172,9.5872 14.5082,9.5872 C15.1982,9.5872 15.7572,9.0242 15.7572,8.3292 C15.7572,7.6342 15.1982,7.0712 14.5082,7.0712" id="Fill-10"></path>
                <path d="M14.5072,5.083 C15.1982,5.083 15.7572,4.519 15.7572,3.824 C15.7572,3.128 15.1982,2.564 14.5072,2.564 C13.8142,2.564 13.2572,3.128 13.2572,3.824 C13.2572,4.519 13.8142,5.083 14.5072,5.083" id="Fill-12"></path>
                <path d="M16.7398,7.3377 C17.4348,7.3377 17.9938,6.7737 17.9938,6.0847 C17.9938,5.3857 17.4348,4.8237 16.7398,4.8237 C16.0548,4.8237 15.4938,5.3857 15.4938,6.0847 C15.4938,6.7737 16.0548,7.3377 16.7398,7.3377" id="Fill-14"></path>
            </g>
        </g>
    </g>
</svg>