<?xml version="1.0" encoding="UTF-8" standalone="no"?>
<svg width="16px" height="16px" viewBox="0 0 16 16" version="1.1" xmlns="http://www.w3.org/2000/svg" xmlns:xlink="http://www.w3.org/1999/xlink">
    <!-- Generator: Sketch 3.6.1 (26313) - http://www.bohemiancoding.com/sketch -->
    <title>internet_hover_16px</title>
    <desc>Created with Sketch.</desc>
    <defs></defs>
    <g id="Page-1" stroke="none" stroke-width="1" fill="none" fill-rule="evenodd">
        <g id="internet_hover_16px">
            <rect id="Rectangle-1-Copy" fill="#747568" opacity="0" x="0" y="0" width="16" height="16"></rect>
            <g id="Page-1" transform="translate(1.000000, 1.000000)" fill="#FFFFFF" opacity="0.8">
                <path d="M10.8263843,11.6452281 C10.8451485,11.0188307 10.8353911,10.4134383 10.7775975,9.84855538 C11.0357922,9.71202325 11.2316898,9.48021871 11.3217577,9.19815235 C11.7503308,9.1741467 12.1939152,9.12763576 12.6532614,9.06087005 C12.2802302,10.0773592 11.6475033,10.9685689 10.8263843,11.6452281 M5.69326499,12.8725168 C6.87840834,11.4689366 8.52064626,10.3346697 9.52715496,9.71127308 C9.67051302,9.83280167 9.84089145,9.92282285 10.0322857,9.96108185 C10.1020883,10.6497439 10.1110951,11.3894179 10.0570544,12.1771032 C9.15937773,12.7082282 8.11609131,13.0188013 7,13.0188013 C6.5504111,13.0188013 6.11433239,12.9662889 5.69326499,12.8725168 M2.01849496,10.3796803 C2.15509793,9.71577414 2.48759857,8.54174791 3.23441151,7.25369486 C3.31622318,7.27244928 3.40028655,7.2844521 3.48735218,7.2844521 C3.66823853,7.2844521 3.83636526,7.23869133 3.98722899,7.16292351 C5.22716364,8.07813884 6.8881657,8.87032522 9.02802872,9.13438735 C7.91268798,9.83055114 6.15336181,11.0765943 4.91793054,12.6414625 C3.73278719,12.2026092 2.71952339,11.4081723 2.01849496,10.3796803 M1.48859553,4.57256406 C1.72577431,4.92064595 2.03876024,5.33174267 2.4365601,5.76609487 C2.39002502,5.88912381 2.36150352,6.0204047 2.36150352,6.15918735 C2.36150352,6.42024877 2.45382311,6.65655437 2.60243513,6.8470992 C2.0417625,7.80882547 1.69500111,8.71353833 1.48784496,9.42020459 C1.15984772,8.67752986 0.974457971,7.8590873 0.974457971,6.9971345 C0.974457971,6.13443153 1.15984772,5.31523879 1.48859553,4.57256406 M4.43231449,1.55685453 C4.8158536,1.76240289 5.35400926,2.08722931 5.95746414,2.55834016 C5.89516718,2.69787298 5.85914002,2.85165917 5.85914002,3.01369729 C5.85914002,3.10521882 5.87265021,3.1922393 5.89366605,3.27775942 C5.08380558,3.84264232 4.41129865,4.46303829 3.85437884,5.10068831 C3.73879171,5.06017878 3.61644949,5.0339226 3.48735218,5.0339226 C3.28244772,5.0339226 3.09255458,5.09318655 2.92743011,5.18920914 C2.45007028,4.65883435 2.11306625,4.17422034 1.89239991,3.81638614 C2.50336045,2.84040652 3.38452467,2.05272119 4.43231449,1.55685453 M9.53991458,1.54335135 C8.9056865,1.73839724 8.31273954,1.95894913 7.77083105,2.20950808 C7.56742772,2.01146149 7.29121952,1.88843254 6.98498868,1.88843254 C6.80110007,1.88843254 6.62997107,1.93719401 6.47685566,2.01521237 C6.06329391,1.68813542 5.67450084,1.42107258 5.33749681,1.21327369 C5.86589512,1.06098786 6.42281492,0.974717565 7,0.974717565 C7.90818459,0.974717565 8.76683183,1.18251646 9.53991458,1.54335135 M4.44357298,5.57104898 C4.95545883,4.99041237 5.57092277,4.42552946 6.30872892,3.90790768 C6.49712093,4.05119139 6.72979632,4.13896204 6.98498868,4.13896204 C7.1688773,4.13896204 7.3400063,4.09095074 7.49312171,4.01293239 C8.35251952,4.99791413 9.15412377,6.28371665 9.63523643,7.91910142 C9.45735234,8.03687913 9.31549541,8.20416849 9.22692865,8.40071473 C7.22967313,8.1719109 5.68125594,7.45174146 4.51712842,6.61229396 C4.57792425,6.47351131 4.61320084,6.32122548 4.61320084,6.15918735 C4.61320084,5.94313652 4.54940275,5.7428394 4.44357298,5.57104898 M13.025542,6.9971345 C13.025542,7.4344874 12.9752541,7.86058765 12.8866874,8.27168437 C12.3327698,8.36545644 11.8073738,8.41946914 11.2999913,8.44797585 C11.1491276,8.06388548 10.79411,7.78782053 10.3677886,7.7443103 C9.84614541,5.94463687 8.96122837,4.53355488 8.01551549,3.46455337 C8.07631132,3.32652089 8.11083734,3.17423506 8.11083734,3.01369729 C8.11083734,2.97018705 8.10258112,2.92892735 8.09807773,2.88616729 C8.79835559,2.56284121 9.57594173,2.28302538 10.4435958,2.06247349 C12.0017703,3.15172977 13.025542,4.95590425 13.025542,6.9971345 M7,0 C3.13954525,0 0,3.13869676 0,6.99714931 C0,10.8548221 3.13954525,13.9935188 7,13.9935188 C10.8596745,13.9935188 14,10.8548221 14,6.99714931 C14,3.13869676 10.8596745,0 7,0" id="Fill-1"></path>
            </g>
        </g>
    </g>
</svg>