<?xml version="1.0" encoding="UTF-8"?>
<svg width="16px" height="16px" viewBox="0 0 16 16" version="1.1" xmlns="http://www.w3.org/2000/svg" xmlns:xlink="http://www.w3.org/1999/xlink">
    <title>icon-2-black</title>
    <g id="icon-2-black" stroke="none" stroke-width="1" fill="none" fill-rule="evenodd">
        <path d="M8,1 C11.8659932,1 15,4.13400675 15,8 C15,11.8659932 11.8659932,15 8,15 C4.13400675,15 1,11.8659932 1,8 C1,4.13400675 4.13400675,1 8,1 Z M9.038,3.108 L6.95,3.108 L4.106,12 L5.906,12 L6.53,9.72 L9.41,9.72 L10.034,12 L11.894,12 L9.038,3.108 Z M7.994,4.464 C8.246,5.424 8.486,6.444 8.762,7.368 L9.026,8.34 L6.914,8.34 L7.178,7.368 C7.442,6.444 7.706,5.436 7.934,4.464 L7.994,4.464 Z" id="形状结合" fill="#000000" fill-rule="nonzero"></path>
    </g>
</svg>