<?xml version="1.0" encoding="UTF-8" standalone="no"?>
<svg width="16px" height="16px" viewBox="0 0 16 16" version="1.1" xmlns="http://www.w3.org/2000/svg" xmlns:xlink="http://www.w3.org/1999/xlink">
    <!-- Generator: Sketch 3.6.1 (26313) - http://www.bohemiancoding.com/sketch -->
    <title>reading_active_16px</title>
    <desc>Created with Sketch.</desc>
    <defs></defs>
    <g id="Page-1" stroke="none" stroke-width="1" fill="none" fill-rule="evenodd">
        <g id="reading_active_16px">
            <rect id="Rectangle-1-Copy-23" fill="#747568" opacity="0" x="0" y="0" width="16" height="16"></rect>
            <g id="Page-1" transform="translate(1.000000, 2.000000)">
                <path d="M0.5,2.49999998 L0.5,11.469 L5.5,11.5000001 L5.5,12.5000001 L9.5,12.5000001 L9.5,11.4690001 L14.5,11.4689997 L14.5,2.49999986" id="Stroke-9" stroke="#FFFFFF" stroke-linecap="round" stroke-linejoin="round"></path>
                <path d="M12.0095215,10.0000004 C12.5619431,10.0000004 13,9.5483307 13,8.99033455 L13,1.00966587 C13,0.455288892 12.5646511,0 12.0095215,0 L8.99047852,0 C8.43805694,0 8,0.451669726 8,1.00966587 L8,8.99033455 C8,9.54471153 8.43534891,10.0000004 8.99047852,10.0000004 L12.0095215,10.0000004 L12.0095215,10.0000004 Z" id="Path-429" fill="#FFFFFF"></path>
                <path d="M6.00952148,10.0000004 C6.56194306,10.0000004 7,9.5483307 7,8.99033455 L7,1.00966587 C7,0.455288892 6.56465109,0 6.00952148,0 L2.99047852,0 C2.43805694,0 2,0.451669726 2,1.00966587 L2,8.99033455 C2,9.54471153 2.43534891,10.0000004 2.99047852,10.0000004 L6.00952148,10.0000004 L6.00952148,10.0000004 Z" id="Path-429" fill="#FFFFFF"></path>
            </g>
        </g>
    </g>
</svg>