<?xml version="1.0" encoding="UTF-8" standalone="no"?>
<svg width="22px" height="22px" viewBox="0 0 22 22" version="1.1" xmlns="http://www.w3.org/2000/svg" xmlns:xlink="http://www.w3.org/1999/xlink">
    <!-- Generator: Sketch 3.6.1 (26313) - http://www.bohemiancoding.com/sketch -->
    <title>reading_active_22px</title>
    <desc>Created with Sketch.</desc>
    <defs></defs>
    <g id="Page-1" stroke="none" stroke-width="1" fill="none" fill-rule="evenodd">
        <g id="reading_active_22px">
            <rect id="Rectangle-46-Copy-68" fill="#747568" opacity="0" x="0" y="0" width="22" height="22"></rect>
            <g id="Group-4" transform="translate(2.000000, 3.000000)" fill="#FFFFFF">
                <g id="Page-1" transform="translate(0.000000, 2.500000)">
                    <path d="M18.5,0.5156 C18.224,0.5156 18,0.7396 18,1.0156 L18,11.5156 L11.531,11.5156 C11.255,11.5156 11,11.7396 11,12.0156 L11,12.5436 L8,12.5186 L8,12.0156 C8,11.7396 7.776,11.5156 7.5,11.5156 L1,11.5156 L1,1.0156 C1,0.7396 0.776,0.5156 0.5,0.5156 C0.224,0.5156 0,0.7396 0,1.0156 L0,12.0156 C0,12.2916 0.224,12.5156 0.5,12.5156 L7,12.5156 L7,13.0156 C7,13.2906 7.222,13.4976 7.497,13.4996 L11.528,13.5156 L11.531,13.5156 C11.663,13.5156 11.774,13.4796 11.868,13.3856 C11.962,13.2916 12,13.1796 12,13.0466 L12,12.5156 L18.5,12.5156 C18.776,12.5156 19,12.2916 19,12.0156 L19,1.0156 C19,0.7396 18.776,0.5156 18.5,0.5156" id="Fill-1"></path>
                </g>
                <path d="M17,11.9903346 L17,1.00966587 C17,0.455288892 16.5646511,0 16.0095215,0 L10.9904785,0 C10.4380569,0 10,0.451669726 10,1.00966587 L10,11.9903346 C10,12.5447115 10.4353489,13.0000004 10.9904785,13.0000004 L16.0095215,13.0000004 C16.5619431,13.0000004 17,12.5483307 17,11.9903346 Z" id="Path-429"></path>
                <path d="M9,11.9903346 L9,1.00966587 C9,0.455288892 8.56465109,0 8.00952148,0 L2.99047852,0 C2.43805694,0 2,0.451669726 2,1.00966587 L2,11.9903346 C2,12.5447115 2.43534891,13.0000004 2.99047852,13.0000004 L8.00952148,13.0000004 C8.56194306,13.0000004 9,12.5483307 9,11.9903346 Z" id="Path-429"></path>
            </g>
        </g>
    </g>
</svg>