<?xml version="1.0" encoding="UTF-8" standalone="no"?>
<svg width="22px" height="22px" viewBox="0 0 22 22" version="1.1" xmlns="http://www.w3.org/2000/svg" xmlns:xlink="http://www.w3.org/1999/xlink">
    <!-- Generator: Sketch 3.6.1 (26313) - http://www.bohemiancoding.com/sketch -->
    <title>reading_hover_22px</title>
    <desc>Created with Sketch.</desc>
    <defs></defs>
    <g id="Page-1" stroke="none" stroke-width="1" fill="none" fill-rule="evenodd">
        <g id="reading_hover_22px">
            <rect id="Rectangle-46-Copy-67" fill="#747568" opacity="0" x="0" y="0" width="22" height="22"></rect>
            <g id="Group-3" transform="translate(2.000000, 3.000000)" fill="#FFFFFF" opacity="0.8">
                <g id="Page-1" transform="translate(0.000000, 2.500000)">
                    <path d="M18.5,0.5156 C18.224,0.5156 18,0.7396 18,1.0156 L18,11.5156 L11.531,11.5156 C11.255,11.5156 11,11.7396 11,12.0156 L11,12.5436 L8,12.5186 L8,12.0156 C8,11.7396 7.776,11.5156 7.5,11.5156 L1,11.5156 L1,1.0156 C1,0.7396 0.776,0.5156 0.5,0.5156 C0.224,0.5156 0,0.7396 0,1.0156 L0,12.0156 C0,12.2916 0.224,12.5156 0.5,12.5156 L7,12.5156 L7,13.0156 C7,13.2906 7.222,13.4976 7.497,13.4996 L11.528,13.5156 L11.531,13.5156 C11.663,13.5156 11.774,13.4796 11.868,13.3856 C11.962,13.2916 12,13.1796 12,13.0466 L12,12.5156 L18.5,12.5156 C18.776,12.5156 19,12.2916 19,12.0156 L19,1.0156 C19,0.7396 18.776,0.5156 18.5,0.5156" id="Fill-3"></path>
                </g>
                <path d="M9,0.0154921968 C8.93605963,0.00529618053 8.87033315,0 8.8032217,0 L3.1967783,0 C2.53670124,0 2,0.519382258 2,1.17955446 L2,11.8204455 C2,12.4772687 2.53004151,13 3.1967783,13 L8.8032217,13 C8.87023005,13 8.93596696,12.9946475 9,12.9843386 L9,11.8204455 C9,11.9208598 8.91822085,12 8.8032217,12 L3.1967783,12 C3.07924145,12 3,11.9218514 3,11.8204455 L3,1.17955446 C3,1.07914019 3.08177915,1 3.1967783,1 L8.8032217,1 C8.92075855,1 9,1.07814856 9,1.17955446 L9,0.0154921968 Z M15.9965773,13 C16.5491133,13 17,12.5487822 17,11.9996527 L17,1.00034732 C17,0.448573045 16.5440175,0 15.9965773,0 L9.5,0 L9,0 L9,0.5 L9,12.5 L9,13 L9.5,13 L15.9965773,13 Z M15.9965773,12 L9.5,12 L10,12.5 L10,0.5 L9.5,1 L15.9965773,1 C15.9953666,1 16,1.00455809 16,1.00034732 L16,11.9996527 C16,11.9966617 15.9966641,12 15.9965773,12 Z" id="Combined-Shape"></path>
            </g>
        </g>
    </g>
</svg>