<?xml version="1.0" encoding="UTF-8" standalone="no"?>
<svg width="22px" height="22px" viewBox="0 0 22 22" version="1.1" xmlns="http://www.w3.org/2000/svg" xmlns:xlink="http://www.w3.org/1999/xlink">
    <!-- Generator: Sketch 3.6.1 (26313) - http://www.bohemiancoding.com/sketch -->
    <title>sort_active_22px</title>
    <desc>Created with Sketch.</desc>
    <defs></defs>
    <g id="Page-1" stroke="none" stroke-width="1" fill="none" fill-rule="evenodd">
        <g id="sort_active_22px">
            <rect id="Rectangle-46-Copy-86" fill="#747568" opacity="0" x="0" y="0" width="22" height="22"></rect>
            <path d="M12,8.99707067 C12,9.55097324 12.4378814,10 13.0029293,10 L17.9970707,10 C18.5509732,10 19,9.56211865 19,8.99707067 L19,4.00292933 C19,3.44902676 18.5621186,3 17.9970707,3 L13.0029293,3 C12.4490268,3 12,3.43788135 12,4.00292933 L12,8.99707067 Z" id="图标视图-2" fill="#FFFFFF"></path>
            <path d="M3,8.99707067 C3,9.55097324 3.43788135,10 4.00292933,10 L8.99707067,10 C9.55097324,10 10,9.56211865 10,8.99707067 L10,4.00292933 C10,3.44902676 9.56211865,3 8.99707067,3 L4.00292933,3 C3.44902676,3 3,3.43788135 3,4.00292933 L3,8.99707067 Z" id="图标视图-2" fill="#FFFFFF"></path>
            <path d="M12,17.9970707 C12,18.5509732 12.4378814,19 13.0029293,19 L17.9970707,19 C18.5509732,19 19,18.5621186 19,17.9970707 L19,13.0029293 C19,12.4490268 18.5621186,12 17.9970707,12 L13.0029293,12 C12.4490268,12 12,12.4378814 12,13.0029293 L12,17.9970707 Z" id="图标视图-2" fill="#FFFFFF"></path>
            <path d="M3,17.9970707 C3,18.5509732 3.43788135,19 4.00292933,19 L8.99707067,19 C9.55097324,19 10,18.5621186 10,17.9970707 L10,13.0029293 C10,12.4490268 9.56211865,12 8.99707067,12 L4.00292933,12 C3.44902676,12 3,12.4378814 3,13.0029293 L3,17.9970707 Z" id="图标视图-2" fill="#FFFFFF"></path>
        </g>
    </g>
</svg>