<?xml version="1.0" encoding="UTF-8"?>
<svg width="16px" height="16px" viewBox="0 0 16 16" version="1.1" xmlns="http://www.w3.org/2000/svg" xmlns:xlink="http://www.w3.org/1999/xlink">
    <title>icon-1-black</title>
    <g id="icon-1-black" stroke="none" stroke-width="1" fill="none" fill-rule="evenodd">
        <path d="M3,2 L6,2 C6.55228475,2 7,2.44771525 7,3 L7,6 C7,6.55228475 6.55228475,7 6,7 L3,7 C2.44771525,7 2,6.55228475 2,6 L2,3 C2,2.44771525 2.44771525,2 3,2 Z M3,9 L6,9 C6.55228475,9 7,9.44771525 7,10 L7,13 C7,13.5522847 6.55228475,14 6,14 L3,14 C2.44771525,14 2,13.5522847 2,13 L2,10 C2,9.44771525 2.44771525,9 3,9 Z M10,9 L13,9 C13.5522847,9 14,9.44771525 14,10 L14,13 C14,13.5522847 13.5522847,14 13,14 L10,14 C9.44771525,14 9,13.5522847 9,13 L9,10 C9,9.44771525 9.44771525,9 10,9 Z M9.5,2 L13.5,2 C13.7761424,2 14,2.22385763 14,2.5 C14,2.77614237 13.7761424,3 13.5,3 L9.5,3 C9.22385763,3 9,2.77614237 9,2.5 C9,2.22385763 9.22385763,2 9.5,2 Z M9.5,4 L13.5,4 C13.7761424,4 14,4.22385763 14,4.5 C14,4.77614237 13.7761424,5 13.5,5 L9.5,5 C9.22385763,5 9,4.77614237 9,4.5 C9,4.22385763 9.22385763,4 9.5,4 Z M9.5,6 L13.5,6 C13.7761424,6 14,6.22385763 14,6.5 C14,6.77614237 13.7761424,7 13.5,7 L9.5,7 C9.22385763,7 9,6.77614237 9,6.5 C9,6.22385763 9.22385763,6 9.5,6 Z" id="形状结合" fill="#000000" fill-rule="nonzero"></path>
    </g>
</svg>