<?xml version="1.0" encoding="UTF-8" standalone="no"?>
<svg width="22px" height="22px" viewBox="0 0 22 22" version="1.1" xmlns="http://www.w3.org/2000/svg" xmlns:xlink="http://www.w3.org/1999/xlink">
    <!-- Generator: Sketch 3.6.1 (26313) - http://www.bohemiancoding.com/sketch -->
    <title>utilities_hover_22px</title>
    <desc>Created with Sketch.</desc>
    <defs></defs>
    <g id="Page-1" stroke="none" stroke-width="1" fill="none" fill-rule="evenodd">
        <g id="utilities_hover_22px">
            <rect id="Rectangle-46-Copy-79" fill="#747568" opacity="0" x="0" y="0" width="22" height="22"></rect>
            <g id="Page-1" transform="translate(2.000000, 1.500000)" fill="#FFFFFF" opacity="0.8">
                <path d="M14.5,15.5 L12.5,15.5 C12.224,15.5 12,15.276 12,15 L12,13 C12,12.724 12.224,12.5 12.5,12.5 L14.5,12.5 C14.776,12.5 15,12.724 15,13 L15,15 C15,15.276 14.776,15.5 14.5,15.5 Z M13,14.5 L14,14.5 L14,13.5 L13,13.5 L13,14.5 Z M9.5,15.5 L7.5,15.5 C7.224,15.5 7,15.276 7,15 L7,13 C7,12.724 7.224,12.5 7.5,12.5 L9.5,12.5 C9.776,12.5 10,12.724 10,13 L10,15 C10,15.276 9.776,15.5 9.5,15.5 Z M8,14.5 L9,14.5 L9,13.5 L8,13.5 L8,14.5 Z M4.5,15.5 L2.5,15.5 C2.224,15.5 2,15.276 2,15 L2,13 C2,12.724 2.224,12.5 2.5,12.5 L4.5,12.5 C4.776,12.5 5,12.724 5,13 L5,15 C5,15.276 4.776,15.5 4.5,15.5 Z M3,14.5 L4,14.5 L4,13.5 L3,13.5 L3,14.5 Z M14.5,10.5 L12.5,10.5 C12.224,10.5 12,10.276 12,10 L12,8 C12,7.724 12.224,7.5 12.5,7.5 L14.5,7.5 C14.776,7.5 15,7.724 15,8 L15,10 C15,10.276 14.776,10.5 14.5,10.5 Z M13,9.5 L14,9.5 L14,8.5 L13,8.5 L13,9.5 Z M9.5,10.5 L7.5,10.5 C7.224,10.5 7,10.276 7,10 L7,8 C7,7.724 7.224,7.5 7.5,7.5 L9.5,7.5 C9.776,7.5 10,7.724 10,8 L10,10 C10,10.276 9.776,10.5 9.5,10.5 Z M8,9.5 L9,9.5 L9,8.5 L8,8.5 L8,9.5 Z M4.5,10.5 L2.5,10.5 C2.224,10.5 2,10.276 2,10 L2,8 C2,7.724 2.224,7.5 2.5,7.5 L4.5,7.5 C4.776,7.5 5,7.724 5,8 L5,10 C5,10.276 4.776,10.5 4.5,10.5 Z M3,9.5 L4,9.5 L4,8.5 L3,8.5 L3,9.5 Z" id="Combined-Shape"></path>
                <path d="M12,1.5 L12,0.5 C12,0.224 12.224,0 12.5,0 C12.776,0 13,0.224 13,0.5 L13,1.5 L15.5,1.5 C16.327,1.5 17,2.173 17,3 L17,17 C17,17.827 16.327,18.5 15.5,18.5 L1.5,18.5 C0.673,18.5 0,17.827 0,17 L0,3 C0,2.173 0.673,1.5 1.5,1.5 L4,1.5 L4,0.5 C4,0.224 4.224,0 4.5,0 C4.776,0 5,0.224 5,0.5 L5,1.5 L12,1.5 Z M4,2.5 L1.5,2.5 C1.224,2.5 1,2.725 1,3 L1,17 C1,17.275 1.224,17.5 1.5,17.5 L15.5,17.5 C15.776,17.5 16,17.275 16,17 L16,3 C16,2.725 15.776,2.5 15.5,2.5 L13,2.5 L13,3 C13,3.276 12.776,3.5 12.5,3.5 C12.224,3.5 12,3.276 12,3 L12,2.5 L5,2.5 L5,3 C5,3.276 4.776,3.5 4.5,3.5 C4.224,3.5 4,3.276 4,3 L4,2.5 L4,2.5 Z M1,5.5 L1,4.5 L16,4.5 L16,5.5 L1,5.5 L1,5.5 Z" id="Combined-Shape"></path>
            </g>
        </g>
    </g>
</svg>