<?xml version="1.0" encoding="UTF-8" standalone="no"?>
<svg width="16px" height="16px" viewBox="0 0 16 16" version="1.1" xmlns="http://www.w3.org/2000/svg" xmlns:xlink="http://www.w3.org/1999/xlink">
    <!-- Generator: Sketch 3.6.1 (26313) - http://www.bohemiancoding.com/sketch -->
    <title>utilities_hover_16px</title>
    <desc>Created with Sketch.</desc>
    <defs></defs>
    <g id="Page-1" stroke="none" stroke-width="1" fill="none" fill-rule="evenodd">
        <g id="utilities_hover_16px">
            <rect id="Rectangle-1-Copy-34" fill="#747568" opacity="0" x="0" y="0" width="16" height="16"></rect>
            <g id="Group-6" transform="translate(1.000000, 1.000000)" fill="#FFFFFF" opacity="0.8">
                <path d="M10,1 L10,0.5 C10,0.224 10.224,0 10.5,0 C10.776,0 11,0.224 11,0.5 L11,1 L13,1 C13.827,1 14,1.173 14,2 L14,12 C14,12.827 13.827,13 13,13 L1,13 C0.173,13 0,12.827 0,12 L0,2 C0,1.173 0.173,1 1,1 L3,1 L3,0.5 C3,0.224 3.224,0 3.5,0 C3.776,0 4,0.224 4,0.5 L4,1 L10,1 Z M0.999999998,2 L1,12 L12.9999998,12 L12.9999998,2 L11,2 L11,2.5 C11,2.776 10.776,3 10.5,3 C10.224,3 10,2.776 10,2.5 L10,2 L4,2 L4,2.5 C4,2.776 3.776,3 3.5,3 C3.224,3 3,2.776 3,2.5 L3,2 L0.999999998,2 Z M1,5 L1,4 L13,4 L13,5 L1,5 Z M9,9 L11,9 L11,11 L9,11 L9,9 Z M6,9 L8,9 L8,11 L6,11 L6,9 Z M3,9 L5,9 L5,11 L3,11 L3,9 Z M9,6 L11,6 L11,8 L9,8 L9,6 Z M6,6 L8,6 L8,8 L6,8 L6,6 Z M3,6 L5,6 L5,8 L3,8 L3,6 Z" id="Combined-Shape"></path>
            </g>
        </g>
    </g>
</svg>