<svg xmlns="http://www.w3.org/2000/svg" width="16" height="16" viewBox="0 0 16 16">
  <path fill-rule="evenodd" d="M8,1 C11.8659932,1 15,4.13400675 15,8 C15,11.8659932 11.8659932,15 8,15 C4.13400675,15 1,11.8659932 1,8 C1,4.13400675 4.13400675,1 8,1 Z M9.5,8 L6.5,8 C6.22385763,8 6,8.22385763 6,8.5 C6,8.77614237 5.77614237,9 5.5,9 L5.5,9 L5,9 C4.89014373,9 4.78478689,9.04364023 4.70710678,9.12132034 C4.54534632,9.2830808 4.54534632,9.54534632 4.70710678,9.70710678 L4.70710678,9.70710678 L7.64644661,12.6464466 C7.84170876,12.8417088 8.15829124,12.8417088 8.35355339,12.6464466 L8.35355339,12.6464466 L11.2928932,9.70710678 C11.3705733,9.62942667 11.4142136,9.52406983 11.4142136,9.41421356 C11.4142136,9.18544973 11.2287638,9 11,9 L11,9 L10.5,9 C10.2238576,9 10,8.77614237 10,8.5 C10,8.22385763 9.77614237,8 9.5,8 L9.5,8 Z M9.5,6 L6.5,6 C6.22385763,6 6,6.22385763 6,6.5 C6,6.77614237 6.22385763,7 6.5,7 L6.5,7 L9.5,7 C9.77614237,7 10,6.77614237 10,6.5 C10,6.22385763 9.77614237,6 9.5,6 L9.5,6 Z M9.5,4 L6.5,4 C6.22385763,4 6,4.22385763 6,4.5 C6,4.77614237 6.22385763,5 6.5,5 L6.5,5 L9.5,5 C9.77614237,5 10,4.77614237 10,4.5 C10,4.22385763 9.77614237,4 9.5,4 L9.5,4 Z"/>
</svg>
