<svg xmlns="http://www.w3.org/2000/svg" width="16" height="16" viewBox="0 0 16 16">
  <path fill="#FFF" fill-opacity=".8" fill-rule="evenodd" d="M13.9877675,3.77931333 C13.9959162,3.85265232 14,3.92638608 14,4.00017639 L14,11.0782513 C13.9258925,12.139383 13.1494826,12.9603669 12,12.9603669 C10.7950151,12.9603669 10,12.0581872 10,10.9204872 C10,9.78278722 10.7950151,8.88060751 12,8.88060751 C12.3777977,8.88060751 12.7152952,8.96929216 13.0006254,9.126115 L13,4.91865604 C13,4.36637129 12.5522847,3.91865604 12,3.91865604 C11.9526811,3.91865604 11.9054219,3.92201465 11.8585786,3.92870655 L6.85857864,4.64299226 C6.36592991,4.71337065 6,5.13529138 6,5.63294176 L6,12.7656464 C6,13.9033463 5.20498491,15.0002466 4,15.0002466 C2.79501509,15.0002466 2,14.0980669 2,12.9603669 C2,11.8226669 2.79501509,10.9204872 4,10.9204872 C4.37800872,10.9204872 4.71567219,10.9901084 5.00110342,11.1207927 L5,4.55573194 C5,3.53663351 5.76627159,2.68050507 6.77913695,2.56796447 L11.7791369,2.01240892 C12.8769506,1.89042962 13.8657882,2.68149967 13.9877675,3.77931333 Z"/>
</svg>
