<svg xmlns="http://www.w3.org/2000/svg" width="16" height="16" viewBox="0 0 16 16">
  <path fill-rule="evenodd" d="M12.9941413,2 C14.1019465,2 15,2.90195036 15,4.0085302 L15,11.9914698 C15,13.1007504 14.1029399,14 12.9941413,14 L3.00585866,14 C1.89805351,14 1,13.0980496 1,11.9914698 L1,4.0085302 C1,2.8992496 1.89706013,2 3.00585866,2 L12.9941413,2 Z M9.08397485,6.2226499 L7.72024506,9.04429842 C7.59860716,9.29597539 7.37731028,9.30163722 7.23410064,9.07009862 L6.35355339,7.64644661 C6.13507881,7.42797203 5.77271827,7.4579619 5.59313326,7.7093809 L3.09313326,11.2093809 C2.85675167,11.5403151 3.09331372,12 3.5,12 L12.5,12 C12.8886472,12 13.1287038,11.5760144 12.9287465,11.2427521 L9.92874646,6.24275212 C9.73989719,5.92800333 9.28758145,5.91724 9.08397485,6.2226499 Z M4.5,4 C3.67157288,4 3,4.67157288 3,5.5 C3,6.32842712 3.67157288,7 4.5,7 C5.32842712,7 6,6.32842712 6,5.5 C6,4.67157288 5.32842712,4 4.5,4 Z"/>
</svg>
