<svg xmlns="http://www.w3.org/2000/svg" width="16" height="16" viewBox="0 0 16 16">
  <path fill-rule="evenodd" d="M14,5 L10,5 L10,1 L14,5 Z M11.4995642,12.0010024 L4.50043583,12.0010024 C4.23079681,12.0010024 4,12.22486 4,12.5010024 C4,12.7392836 4.17702934,12.9490155 4.41048186,12.9926808 L4.50043583,13.0010024 L11.4995642,13.0010024 C11.7692032,13.0010024 12,12.7771448 12,12.5010024 C12,12.232936 11.7759472,12.0010024 11.4995642,12.0010024 Z M11.4995642,10.0010024 L4.50043583,10.0010024 C4.23079681,10.0010024 4,10.22486 4,10.5010024 C4,10.7392836 4.17702934,10.9490155 4.41048186,10.9926808 L4.50043583,11.0010024 L11.4995642,11.0010024 C11.7692032,11.0010024 12,10.7771448 12,10.5010024 C12,10.232936 11.7759472,10.0010024 11.4995642,10.0010024 Z M11.4995642,8.00100238 L4.50043583,8.00100238 C4.23079681,8.00100238 4,8.22486 4,8.50100238 C4,8.73928363 4.17702934,8.94901549 4.41048186,8.99268083 L4.50043583,9.00100238 L11.4995642,9.00100238 C11.7692032,9.00100238 12,8.77714475 12,8.50100238 C12,8.23293597 11.7759472,8.00100238 11.4995642,8.00100238 Z M9,1 L9,6 L14,6 L14,13 C14,14.1045695 13.1045695,15 12,15 L4,15 C2.8954305,15 2,14.1045695 2,13 L2,3 C2,1.8954305 2.8954305,1 4,1 L9,1 Z"/>
</svg>
