<svg xmlns="http://www.w3.org/2000/svg" width="16" height="16" viewBox="0 0 16 16">
  <path fill-rule="evenodd" d="M12,1 C13.1045695,1 14,1.8954305 14,3 L14,12 C14,13.1045695 13.1045695,14 12,14 L4,14 C2.8954305,14 2,13.1045695 2,12 L2,3 C2,1.8954305 2.8954305,1 4,1 L12,1 Z M5,11 L3,11 L3,12 C3,12.5522847 3.44771525,13 4,13 L4,13 L5,13 L5,11 Z M13,11 L11,11 L11,13 L12,13 C12.5522847,13 13,12.5522847 13,12 L13,12 L13,11 Z M5,8 L3,8 L3,10 L5,10 L5,8 Z M13,8 L11,8 L11,10 L13,10 L13,8 Z M5,5 L3,5 L3,7 L5,7 L5,5 Z M13,5 L11,5 L11,7 L13,7 L13,5 Z M5,2 L4,2 C3.44771525,2 3,2.44771525 3,3 L3,3 L3,4 L5,4 L5,2 Z M12,2 L11,2 L11,4 L13,4 L13,3 C13,2.44771525 12.5522847,2 12,2 L12,2 Z"/>
</svg>
