<?xml version="1.0" encoding="UTF-8"?>
<svg width="24px" height="24px" viewBox="0 0 24 24" version="1.1" xmlns="http://www.w3.org/2000/svg" xmlns:xlink="http://www.w3.org/1999/xlink">
    <!-- Generator: Sketch 49.3 (51167) - http://www.bohemiancoding.com/sketch -->
    <title>settings</title>
    <desc>Created with Sketch.</desc>
    <defs></defs>
    <g id="settings" stroke="none" stroke-width="1" fill="none" fill-rule="evenodd">
        <path d="M9.75,3 L9.75,5.0870405 L9.28141118,5.27672043 C9.2249678,5.29975392 9.2249678,5.29975392 9.16884056,5.32340077 L8.70313422,5.5211537 L7.22702923,4.04504871 C6.73887386,3.55689335 5.94741764,3.55689335 5.45926227,4.04504871 L4.04504871,5.45926227 C3.55689335,5.94741764 3.55689335,6.73887386 4.04504871,7.22702923 L5.5211537,8.70313422 L5.32340077,9.16884056 C5.29975392,9.2249678 5.29975392,9.2249678 5.27672043,9.28141118 L5.0870405,9.75 L3,9.75 C2.30964406,9.75 1.75,10.3096441 1.75,11 L1.75,13 C1.75,13.6903559 2.30964406,14.25 3,14.25 L5.0870405,14.25 L5.27672043,14.7185888 C5.29975392,14.7750322 5.29975392,14.7750322 5.32340077,14.8311594 L5.5211537,15.2968658 L4.04504871,16.7729708 C3.55689335,17.2611261 3.55689335,18.0525824 4.04504871,18.5407377 L5.45926227,19.9549513 C5.94741764,20.4431067 6.73887386,20.4431067 7.22702923,19.9549513 L8.70313422,18.4788463 L9.16884056,18.6765992 C9.2249678,18.7002461 9.2249678,18.7002461 9.28141118,18.7232796 L9.75,18.9129595 L9.75,21 C9.75,21.6903559 10.3096441,22.25 11,22.25 L13,22.25 C13.6903559,22.25 14.25,21.6903559 14.25,21 L14.25,18.9129595 L14.7185888,18.7232796 C14.7750322,18.7002461 14.7750322,18.7002461 14.8311594,18.6765992 L15.2968658,18.4788463 L16.7729708,19.9549513 C17.2611261,20.4431067 18.0525824,20.4431067 18.5407377,19.9549513 L19.9549513,18.5407377 C20.4431067,18.0525824 20.4431067,17.2611261 19.9549513,16.7729708 L18.4788463,15.2968658 L18.6765992,14.8311594 C18.7002461,14.7750322 18.7002461,14.7750322 18.7232796,14.7185888 L18.9129595,14.25 L21,14.25 C21.6903559,14.25 22.25,13.6903559 22.25,13 L22.25,11 C22.25,10.3096441 21.6903559,9.75 21,9.75 L18.9129595,9.75 L18.7232796,9.28141118 C18.7002461,9.2249678 18.7002461,9.2249678 18.6765992,9.16884056 L18.4788463,8.70313422 L19.9549513,7.22702923 C20.4431067,6.73887386 20.4431067,5.94741764 19.9549513,5.45926227 L18.5407377,4.04504871 C18.0525824,3.55689335 17.2611261,3.55689335 16.7729708,4.04504871 L15.2968658,5.5211537 L14.8311594,5.32340077 C14.7750322,5.29975392 14.7750322,5.29975392 14.7185888,5.27672043 L14.25,5.0870405 L14.25,3 C14.25,2.30964406 13.6903559,1.75 13,1.75 L11,1.75 C10.3096441,1.75 9.75,2.30964406 9.75,3 Z M12,15.75 C9.92893219,15.75 8.25,14.0710678 8.25,12 C8.25,9.92893219 9.92893219,8.25 12,8.25 C14.0710678,8.25 15.75,9.92893219 15.75,12 C15.75,14.0710678 14.0710678,15.75 12,15.75 Z" stroke="#000000" stroke-width="1.5"></path>
    </g>
</svg>