<svg xmlns="http://www.w3.org/2000/svg" width="16" height="16" viewBox="0 0 16 16">
  <path fill="#FFF" fill-opacity=".8" fill-rule="evenodd" d="M7,-4.44540238e-14 C10.8659932,-4.44540238e-14 14,3.13400675 14,7 C14,10.8659932 10.8659932,14 7,14 C3.13400675,14 -2.19160085e-14,10.8659932 -2.19160085e-14,7 C-2.19160085e-14,3.13400675 3.13400675,-4.44540238e-14 7,-4.44540238e-14 Z M8.18515815,0.64430755 C8.02682156,0.608361123 7.86681742,0.697399349 7.8139039,0.850901082 L7.8139039,0.850901082 L7.55381561,1.60541527 C7.50759767,1.73949315 7.37822241,1.82679562 7.23659091,1.8194818 C7.14044755,1.81451472 7.06152023,1.81203119 6.99980897,1.81203119 L6.9323592,1.81285903 C6.88356693,1.81396282 6.82712311,1.81617039 6.76302776,1.81948176 C6.6213908,1.82679917 6.49201041,1.73949323 6.44579947,1.60540699 L6.44579947,1.60540699 L6.18571403,0.850901082 C6.13280051,0.697399349 5.97279637,0.608361123 5.81445978,0.64430755 L5.81445978,0.64430755 L5.41518716,0.734952572 C5.25756529,0.770736737 5.15181669,0.919010663 5.16931911,1.07969303 L5.16931911,1.07969303 L5.25769259,1.89101295 C5.27231459,2.02525138 5.20061346,2.15409873 5.07882999,2.21243008 L5.07882999,2.21243008 L4.61897128,2.43269134 C4.49635546,2.49142137 4.34997097,2.46575603 4.25464864,2.36881528 L4.25464864,2.36881528 L3.69077081,1.79536374 C3.57670714,1.67936346 3.39351191,1.66809026 3.2660862,1.76923012 L3.2660862,1.76923012 L2.94382194,2.0250165 C2.81775419,2.12507851 2.7862628,2.30352444 2.8704649,2.440694 L2.8704649,2.440694 L3.29326402,3.1294555 C3.36394443,3.24459754 3.35420309,3.39182123 3.2689681,3.49664682 L3.2689681,3.49664682 L2.9260902,3.91833252 C2.84113703,4.02281149 2.6996132,4.06249925 2.57272151,4.01742827 L2.57272151,4.01742827 L1.8160093,3.74864976 C1.66413746,3.69470602 1.49591684,3.76283694 1.42438578,3.90726093 L1.42438578,3.90726093 L1.24226108,4.2749778 C1.17035881,4.42015128 1.21901422,4.59617162 1.35526919,4.68380643 L1.35526919,4.68380643 L2.02095074,5.11195137 C2.13540992,5.18556783 2.19037879,5.32382781 2.15771169,5.45593816 L2.15771169,5.45593816 L2.01668259,6.02627966 C1.9848353,6.15507459 1.87641362,6.25058981 1.74463134,6.26594607 L1.74463134,6.26594607 L0.933030242,6.36051995 C0.778139988,6.37856893 0.659154858,6.50621074 0.652010307,6.66198529 L0.652010307,6.66198529 L0.636697768,6.99584862 L0.636472716,7.01875741 L0.640793973,7.18374428 C0.643445888,7.28499517 0.720130009,7.36889591 0.820734883,7.38061915 L0.820734883,7.38061915 L1.7025801,7.4833784 C1.83971518,7.49935842 1.95089668,7.60195332 1.97782386,7.73736499 L1.97782386,7.73736499 L2.10000225,8.35177678 C2.12549624,8.47998116 2.06998756,8.61073433 1.96004879,8.6814434 L1.96004879,8.6814434 L1.26629024,9.12764656 C1.13372789,9.21290641 1.08356249,9.38236674 1.14835121,9.52604847 L1.14835121,9.52604847 L1.30645457,9.87667381 C1.37451907,10.0276202 1.54697677,10.1011332 1.70300901,10.0457117 L1.70300901,10.0457117 L2.43200068,9.78677932 C2.5629906,9.74025268 2.70902146,9.78414517 2.79265296,9.89518057 L2.79265296,9.89518057 L3.18481307,10.4158415 C3.26349409,10.5203042 3.27024262,10.6622721 3.2018254,10.7737273 L3.2018254,10.7737273 L2.76566099,11.4842616 C2.6830601,11.6188227 2.71163089,11.7936031 2.83277986,11.8948579 L2.83277986,11.8948579 L3.11310376,12.129149 C3.24029771,12.2354561 3.42780067,12.2262958 3.54402653,12.1080966 L3.54402653,12.1080966 L4.09515799,11.5476079 C4.19221408,11.4489039 4.34195058,11.4242768 4.46550666,11.4866967 L4.46550666,11.4866967 L5.05854636,11.7862974 C5.17687462,11.8460762 5.2457384,11.9729581 5.23138293,12.1047496 L5.23138293,12.1047496 L5.14161139,12.9289046 C5.1242304,13.0884721 5.22842183,13.2359999 5.384615,13.2729808 L5.384615,13.2729808 L5.72719699,13.3540918 C5.88628908,13.3917591 6.04803562,13.3027276 6.10131567,13.1481625 L6.10131567,13.1481625 L6.36099754,12.3948274 C6.40736345,12.2603202 6.53738891,12.1729416 6.67944448,12.1808273 L6.67944448,12.1808273 L6.98217345,12.1976321 L7.01744448,12.1976321 L7.32017345,12.1808273 C7.46222902,12.1729416 7.59225449,12.2603202 7.63862039,12.3948274 L7.63862039,12.3948274 L7.89830226,13.1481625 C7.95158231,13.3027276 8.11332885,13.3917591 8.27242094,13.3540918 L8.27242094,13.3540918 L8.61500293,13.2729808 C8.77119611,13.2359999 8.87538753,13.0884721 8.85800654,12.9289046 L8.85800654,12.9289046 L8.768235,12.1047496 C8.75387953,11.9729581 8.82274331,11.8460762 8.94107157,11.7862974 L8.94107157,11.7862974 L9.53411127,11.4866967 C9.65766735,11.4242768 9.80740386,11.4489039 9.90445994,11.5476079 L9.90445994,11.5476079 L10.4555914,12.1080966 C10.5718173,12.2262958 10.7593202,12.2354561 10.8865142,12.129149 L10.8865142,12.129149 L11.1668381,11.8948579 C11.287987,11.7936031 11.3165578,11.6188227 11.2339569,11.4842616 L11.2339569,11.4842616 L10.7977925,10.7737273 C10.7293753,10.6622721 10.7361238,10.5203042 10.8148049,10.4158415 L10.8148049,10.4158415 L11.206965,9.89518057 C11.2905965,9.78414517 11.4366273,9.74025268 11.5676173,9.78677932 L11.5676173,9.78677932 L12.2966089,10.0457117 C12.4526412,10.1011332 12.6250989,10.0276202 12.6931634,9.87667381 L12.6931634,9.87667381 L12.8512667,9.52604847 C12.9160554,9.38236674 12.86589,9.21290641 12.7333277,9.12764656 L12.7333277,9.12764656 L12.0395691,8.6814434 C11.9296304,8.61073433 11.8741217,8.47998116 11.8996157,8.35177678 L11.8996157,8.35177678 L12.0217941,7.73736499 C12.0487213,7.60195332 12.1599027,7.49935842 12.2970378,7.4833784 L12.2970378,7.4833784 L13.178883,7.38061915 C13.2794879,7.36889591 13.356172,7.28499517 13.358824,7.18374428 L13.358824,7.18374428 L13.3631452,7.01875741 L13.3629202,6.99584862 L13.3476076,6.66198529 C13.3404631,6.50621074 13.2214779,6.37856893 13.0665877,6.36051995 L13.0665877,6.36051995 L12.2549866,6.26594607 C12.1232043,6.25058981 12.0147826,6.15507459 11.9829353,6.02627966 L11.9829353,6.02627966 L11.8419062,5.45593816 C11.8092391,5.32382781 11.864208,5.18556783 11.9786672,5.11195137 L11.9786672,5.11195137 L12.6443487,4.68380643 C12.7806037,4.59617162 12.8292591,4.42015128 12.7573569,4.2749778 L12.7573569,4.2749778 L12.5752321,3.90726093 C12.5037011,3.76283694 12.3354805,3.69470602 12.1836086,3.74864976 L12.1836086,3.74864976 L11.4268964,4.01742827 C11.3000047,4.06249925 11.1584809,4.02281149 11.0735277,3.91833252 L11.0735277,3.91833252 L10.7306498,3.49664682 C10.6454148,3.39182123 10.6356735,3.24459754 10.7063539,3.1294555 L10.7063539,3.1294555 L11.129153,2.440694 C11.2133551,2.30352444 11.1818637,2.12507851 11.055796,2.0250165 L11.055796,2.0250165 L10.7335317,1.76923012 C10.606106,1.66809026 10.4229108,1.67936346 10.3088471,1.79536374 L10.3088471,1.79536374 L9.74496929,2.36881528 C9.64964696,2.46575603 9.50326247,2.49142137 9.38064665,2.43269134 L9.38064665,2.43269134 L8.92078794,2.21243008 C8.79900447,2.15409873 8.72730334,2.02525138 8.74192534,1.89101295 L8.74192534,1.89101295 L8.83029882,1.07969303 C8.84780124,0.919010663 8.74205264,0.770736737 8.58443077,0.734952572 L8.58443077,0.734952572 Z M2.95280653,6.14167542 C4.16295431,6.01717056 5.38860048,6.5953378 6.03556262,7.71590909 C6.64704497,8.77502758 6.58042323,10.0395692 5.97040491,11.0067987 C4.18344967,10.5488128 2.86363636,8.92853584 2.86363636,7 C2.86363636,6.70570171 2.89437132,6.41858195 2.95280653,6.14167542 Z M7.96443738,7.71590909 C8.61146778,6.59521957 9.83730433,6.01704856 11.0463376,6.14098914 L11.0463376,6.14098914 L11.0572644,6.19088348 L11.1008339,6.45541611 C11.1242707,6.63362032 11.1363636,6.81539793 11.1363636,7 C11.1363636,8.92853584 9.81655033,10.5488128 8.03087912,11.0068754 C7.41957677,10.0395692 7.35295503,8.77502758 7.96443738,7.71590909 Z M7.00000776,6.36318175 C7.35146169,6.36318175 7.63637139,6.64809146 7.63637139,6.99954539 C7.63637139,7.35099932 7.35146169,7.63590902 7.00000776,7.63590902 C6.64855383,7.63590902 6.36364412,7.35099932 6.36364412,6.99954539 C6.36364412,6.64809146 6.64855383,6.36318175 7.00000776,6.36318175 Z M7,2.86363636 C8.14833343,2.86363636 9.18737289,3.33157951 9.93683483,4.08718227 C9.45752152,5.23791542 8.3230662,6.04545455 7,6.04545455 C5.67731976,6.04545455 4.54314037,5.2383865 4.0630515,4.08984008 C4.811706,3.33199445 5.85115755,2.86363636 7,2.86363636 Z" transform="translate(1 1)"/>
</svg>
