<svg xmlns="http://www.w3.org/2000/svg" width="20" height="20" viewBox="0 0 20 20">
  <path fill="#FFF" fill-opacity=".8" fill-rule="evenodd" d="M9,0 C13.9624286,0 18,4.03757143 18,9 C18,13.9624286 13.9624286,18 9,18 C4.03714286,18 0,13.9624286 0,9 C0,4.03757143 4.03714286,0 9,0 Z M12.65725,4.1199999 C12.3921533,3.92117739 12.0160725,3.97490322 11.81725,4.2399999 C11.6184275,4.50509658 11.6721533,4.88117739 11.93725,5.0799999 C13.1640688,6.00011398 13.9,7.43965246 13.9,9.0021999 C13.9,11.7084791 11.7062792,13.9021999 9,13.9021999 C6.29372085,13.9021999 4.1,11.7084791 4.1,9.0021999 C4.1,7.44070019 4.83490353,6.00215721 6.06028437,5.08198649 C6.32526319,4.88300693 6.37876615,4.50689435 6.17978659,4.24191553 C5.98080703,3.97693672 5.60469444,3.92343375 5.33971563,4.12241332 C3.81562554,5.26689266 2.9,7.05919144 2.9,9.0021999 C2.9,12.3712208 5.63097915,15.1021999 9,15.1021999 C12.3690208,15.1021999 15.1,12.3712208 15.1,9.0021999 C15.1,7.05789775 14.1831141,5.26439802 12.65725,4.1199999 Z M9.00000018,2 C8.30000019,2 8.30000019,2.69999981 8.30000019,2.69999981 L8.3002076,8.30891871 C8.3031113,8.39022239 8.34666686,9 9.00000018,9 C9.70000017,9 9.70000017,8.30000019 9.70000017,8.30000019 L9.70000017,8.30000019 L9.70000017,2.69999981 C9.70000017,2.69999981 9.70000017,2 9.00000018,2 Z" transform="translate(1 1)"/>
</svg>
