<?xml version="1.0" encoding="iso-8859-1"?>
<!-- Generator: Adobe Illustrator 18.1.1, SVG Export Plug-In . SVG Version: 6.00 Build 0)  -->
<!DOCTYPE svg PUBLIC "-//W3C//DTD SVG 1.1//EN" "http://www.w3.org/Graphics/SVG/1.1/DTD/svg11.dtd" [
	<!ENTITY ns_extend "http://ns.adobe.com/Extensibility/1.0/">
	<!ENTITY ns_ai "http://ns.adobe.com/AdobeIllustrator/10.0/">
	<!ENTITY ns_graphs "http://ns.adobe.com/Graphs/1.0/">
	<!ENTITY ns_vars "http://ns.adobe.com/Variables/1.0/">
	<!ENTITY ns_imrep "http://ns.adobe.com/ImageReplacement/1.0/">
	<!ENTITY ns_sfw "http://ns.adobe.com/SaveForWeb/1.0/">
	<!ENTITY ns_custom "http://ns.adobe.com/GenericCustomNamespace/1.0/">
	<!ENTITY ns_adobe_xpath "http://ns.adobe.com/XPath/1.0/">
]>
<svg version="1.1" id="&#x56FE;&#x5C42;_1" xmlns:x="&ns_extend;" xmlns:i="&ns_ai;" xmlns:graph="&ns_graphs;"
	 xmlns="http://www.w3.org/2000/svg" xmlns:xlink="http://www.w3.org/1999/xlink" x="0px" y="0px" viewBox="0 0 32 32"
	 enable-background="new 0 0 32 32" xml:space="preserve">
<metadata>
	<sfw  xmlns="&ns_sfw;">
		<slices></slices>
		<sliceSourceBounds  height="1050" width="16383" y="-822" x="-8165" bottomLeftOrigin="true"></sliceSourceBounds>
	</sfw>
</metadata>
<path fill="#FFFFFF" d="M16,7.136c-5.21,0-9.449,3.646-9.449,8.127c0,2.304,1.127,4.48,3.105,6.021l-1.014,3.057
	c-0.059,0.178-0.001,0.373,0.144,0.491c0.082,0.065,0.182,0.1,0.282,0.1c0.079,0,0.158-0.021,0.229-0.063l3.38-2
	c1.064,0.345,2.181,0.52,3.323,0.52c5.21,0,9.449-3.646,9.449-8.126C25.449,10.781,21.21,7.136,16,7.136z M11.495,16.5
	c-0.828,0-1.5-0.672-1.5-1.5s0.672-1.5,1.5-1.5s1.5,0.672,1.5,1.5S12.324,16.5,11.495,16.5z M16,16.5c-0.828,0-1.5-0.672-1.5-1.5
	s0.672-1.5,1.5-1.5c0.828,0,1.5,0.672,1.5,1.5S16.828,16.5,16,16.5z M20.516,16.5c-0.828,0-1.5-0.672-1.5-1.5s0.672-1.5,1.5-1.5
	s1.5,0.672,1.5,1.5S21.344,16.5,20.516,16.5z"/>
<path fill="#FFFFFF" d="M16,32c8.822,0,16-7.177,16-16S24.822,0,16,0S0,7.177,0,16S7.178,32,16,32z M16,1c8.271,0,15,6.729,15,15
	s-6.729,15-15,15S1,24.271,1,16S7.729,1,16,1z"/>
</svg>
