<?xml version="1.0" encoding="iso-8859-1"?>
<!-- Generator: Adobe Illustrator 18.1.1, SVG Export Plug-In . SVG Version: 6.00 Build 0)  -->
<!DOCTYPE svg PUBLIC "-//W3C//DTD SVG 1.1//EN" "http://www.w3.org/Graphics/SVG/1.1/DTD/svg11.dtd" [
	<!ENTITY ns_extend "http://ns.adobe.com/Extensibility/1.0/">
	<!ENTITY ns_ai "http://ns.adobe.com/AdobeIllustrator/10.0/">
	<!ENTITY ns_graphs "http://ns.adobe.com/Graphs/1.0/">
	<!ENTITY ns_vars "http://ns.adobe.com/Variables/1.0/">
	<!ENTITY ns_imrep "http://ns.adobe.com/ImageReplacement/1.0/">
	<!ENTITY ns_sfw "http://ns.adobe.com/SaveForWeb/1.0/">
	<!ENTITY ns_custom "http://ns.adobe.com/GenericCustomNamespace/1.0/">
	<!ENTITY ns_adobe_xpath "http://ns.adobe.com/XPath/1.0/">
]>
<svg version="1.1" id="&#x56FE;&#x5C42;_1" xmlns:x="&ns_extend;" xmlns:i="&ns_ai;" xmlns:graph="&ns_graphs;"
	 xmlns="http://www.w3.org/2000/svg" xmlns:xlink="http://www.w3.org/1999/xlink" x="0px" y="0px" viewBox="0 0 32 32"
	 enable-background="new 0 0 32 32" xml:space="preserve">
<metadata>
	<sfw  xmlns="&ns_sfw;">
		<slices></slices>
		<sliceSourceBounds  height="1050" width="16383" y="-822" x="-8165" bottomLeftOrigin="true"></sliceSourceBounds>
	</sfw>
</metadata>
<g opacity="0.1">
	<path fill="#FFFFFF" d="M16,0C7.178,0,0,7.177,0,16s7.178,16,16,16c8.822,0,16-7.177,16-16S24.822,0,16,0z M16,31
		C7.729,31,1,24.271,1,16S7.729,1,16,1s15,6.729,15,15S24.271,31,16,31z"/>
	<path fill="#FFFFFF" d="M20.969,17.344c-0.009-0.027-0.02-0.051-0.033-0.076L16.459,6.891c-0.079-0.183-0.258-0.301-0.458-0.302
		c-0.22-0.01-0.379,0.117-0.459,0.299L8.99,21.802c-0.111,0.253,0.004,0.548,0.257,0.659c0.254,0.11,0.548-0.004,0.659-0.257
		L11.753,18h8.409l1.813,4.202c0.082,0.189,0.266,0.302,0.459,0.302c0.066,0,0.133-0.013,0.198-0.041
		c0.253-0.109,0.37-0.403,0.261-0.657L20.969,17.344z M12.192,17l3.803-8.658L19.731,17H12.192z"/>
</g>
</svg>
