<?xml version="1.0" encoding="iso-8859-1"?>
<!-- Generator: Adobe Illustrator 18.0.0, SVG Export Plug-In . SVG Version: 6.00 Build 0)  -->
<!DOCTYPE svg PUBLIC "-//W3C//DTD SVG 1.1//EN" "http://www.w3.org/Graphics/SVG/1.1/DTD/svg11.dtd">
<svg version="1.1" id="&#x56FE;&#x5C42;_1" xmlns="http://www.w3.org/2000/svg" xmlns:xlink="http://www.w3.org/1999/xlink" x="0px"
	 y="0px" viewBox="0 0 32 32" enable-background="new 0 0 32 32" xml:space="preserve">
<path fill="#FFFFFF" d="M23.5,8h-15C7.673,8,7,8.673,7,9.5v13C7,23.327,7.673,24,8.5,24h15c0.827,0,1.5-0.673,1.5-1.5v-13
	C25,8.673,24.327,8,23.5,8z M10.182,17.055l3.107-3.049l-3.133-2.928l0.859-0.953l3.973,3.881l-3.973,3.916L10.182,17.055z M20,20
	h-7v-1h7V20z"/>
<path fill="#FFFFFF" d="M16,32c8.822,0,16-7.177,16-16S24.822,0,16,0S0,7.177,0,16S7.178,32,16,32z M16,1.3
	c8.106,0,14.7,6.594,14.7,14.7S24.106,30.7,16,30.7S1.3,24.106,1.3,16S7.894,1.3,16,1.3z"/>
</svg>
