<?xml version="1.0" encoding="iso-8859-1"?>
<!-- Generator: Adobe Illustrator 18.0.0, SVG Export Plug-In . SVG Version: 6.00 Build 0)  -->
<!DOCTYPE svg PUBLIC "-//W3C//DTD SVG 1.1//EN" "http://www.w3.org/Graphics/SVG/1.1/DTD/svg11.dtd">
<svg version="1.1" id="&#x56FE;&#x5C42;_1" xmlns="http://www.w3.org/2000/svg" xmlns:xlink="http://www.w3.org/1999/xlink" x="0px"
	 y="0px" viewBox="0 0 32 32" enable-background="new 0 0 32 32" xml:space="preserve">
<path opacity="0.5" fill="#FFFFFF" d="M8.512,21.872c0.575,0,1.164-0.152,1.703-0.441c1.188-0.637,1.857-1.799,1.772-2.866
	C11.99,18.542,12,18.523,12,18.5v-7.345l11,2.734v7.055c-0.412-0.264-0.913-0.424-1.476-0.424c-0.576,0-1.165,0.153-1.703,0.441
	c-0.711,0.382-1.267,0.962-1.564,1.635c-0.316,0.715-0.308,1.45,0.023,2.068c0.405,0.756,1.24,1.207,2.232,1.207
	c0.575,0,1.164-0.152,1.703-0.441c1.188-0.637,1.857-1.799,1.772-2.866C23.99,22.542,24,22.523,24,22.5V9.515
	c0-0.229-0.156-0.429-0.378-0.485l-12-3.015c-0.149-0.035-0.308-0.004-0.429,0.091S11,6.346,11,6.5v10.444
	c-0.412-0.264-0.913-0.424-1.476-0.424c-0.576,0-1.165,0.153-1.703,0.441c-0.711,0.382-1.267,0.962-1.564,1.635
	c-0.316,0.715-0.308,1.45,0.023,2.068C6.685,21.421,7.52,21.872,8.512,21.872z M21.739,24.544c-0.982,0.525-2.193,0.351-2.572-0.355
	c-0.182-0.338-0.178-0.759,0.01-1.185c0.207-0.469,0.604-0.878,1.119-1.154c0.393-0.211,0.817-0.322,1.228-0.322
	c0.615,0,1.118,0.254,1.345,0.677C23.266,22.947,22.76,23.996,21.739,24.544z M23,9.904v2.955l-11-2.734V7.142L23,9.904z
	 M7.177,19.004c0.207-0.469,0.604-0.878,1.119-1.154c0.393-0.211,0.817-0.322,1.228-0.322c0.615,0,1.118,0.254,1.345,0.677
	c0.397,0.743-0.109,1.792-1.129,2.34c-0.983,0.525-2.194,0.351-2.572-0.355C6.985,19.851,6.989,19.43,7.177,19.004z"/>
<g opacity="0.5">
	<path fill="#FFFFFF" d="M16,31.936c8.822,0,16-7.177,16-16s-7.178-16-16-16s-16,7.177-16,16S7.178,31.936,16,31.936z M16,1.236
		c8.106,0,14.7,6.594,14.7,14.7s-6.594,14.7-14.7,14.7s-14.7-6.594-14.7-14.7S7.894,1.236,16,1.236z"/>
</g>
</svg>
