<?xml version="1.0" encoding="UTF-8" standalone="no"?>
<svg width="22px" height="22px" viewBox="0 0 22 22" version="1.1" xmlns="http://www.w3.org/2000/svg" xmlns:xlink="http://www.w3.org/1999/xlink">
    <!-- Generator: Sketch 3.6.1 (26313) - http://www.bohemiancoding.com/sketch -->
    <title>chat_normal_22px</title>
    <desc>Created with Sketch.</desc>
    <defs></defs>
    <g id="Page-1" stroke="none" stroke-width="1" fill="none" fill-rule="evenodd">
        <g id="chat_normal_22px">
            <rect id="Rectangle-46-Copy-60" opacity="0" x="0" y="0" width="22" height="22"></rect>
            <g id="Page-1" transform="translate(2.000000, 2.000000)" fill="#FFFFFF" opacity="0.1">
                <path d="M9.4487,15.3545 C8.3347,15.3545 7.2487,15.1745 6.2197,14.8195 C6.0947,14.7755 5.9577,14.7895 5.8447,14.8565 L3.3197,16.3505 L4.0577,14.1255 C4.1197,13.9385 4.0537,13.7345 3.8957,13.6205 C1.9907,12.2415 0.8977,10.2395 0.8977,8.1265 C0.8977,4.1405 4.7337,0.8985 9.4487,0.8985 C14.1637,0.8985 17.9997,4.1405 17.9997,8.1265 C17.9997,12.1125 14.1637,15.3545 9.4487,15.3545 M9.4487,0.0005 C4.2387,0.0005 -0.0003,3.6455 -0.0003,8.1265 C-0.0003,10.4305 1.1277,12.6075 3.1047,14.1485 L2.0907,17.2055 C2.0317,17.3825 2.0897,17.5785 2.2347,17.6965 C2.3167,17.7615 2.4167,17.7955 2.5167,17.7955 C2.5947,17.7955 2.6747,17.7745 2.7447,17.7335 L6.1257,15.7335 C7.1897,16.0785 8.3057,16.2525 9.4487,16.2525 C14.6587,16.2525 18.8977,12.6075 18.8977,8.1265 C18.8977,3.6455 14.6587,0.0005 9.4487,0.0005" id="Fill-1"></path>
                <path d="M4.944,6.6143 C4.254,6.6143 3.694,7.1743 3.694,7.8643 C3.694,8.5543 4.254,9.1143 4.944,9.1143 C5.634,9.1143 6.194,8.5543 6.194,7.8643 C6.194,7.1743 5.634,6.6143 4.944,6.6143" id="Fill-4"></path>
                <path d="M9.4487,6.6143 C8.7587,6.6143 8.1987,7.1743 8.1987,7.8643 C8.1987,8.5543 8.7587,9.1143 9.4487,9.1143 C10.1387,9.1143 10.6987,8.5543 10.6987,7.8643 C10.6987,7.1743 10.1387,6.6143 9.4487,6.6143" id="Fill-6"></path>
                <path d="M13.9644,6.6143 C13.2744,6.6143 12.7144,7.1743 12.7144,7.8643 C12.7144,8.5543 13.2744,9.1143 13.9644,9.1143 C14.6544,9.1143 15.2144,8.5543 15.2144,7.8643 C15.2144,7.1743 14.6544,6.6143 13.9644,6.6143" id="Fill-8"></path>
            </g>
        </g>
    </g>
</svg>