<?xml version="1.0" encoding="UTF-8" standalone="no"?>
<svg width="16px" height="16px" viewBox="0 0 16 16" version="1.1" xmlns="http://www.w3.org/2000/svg" xmlns:xlink="http://www.w3.org/1999/xlink">
    <!-- Generator: Sketch 3.6.1 (26313) - http://www.bohemiancoding.com/sketch -->
    <title>chat_normal_16px</title>
    <desc>Created with Sketch.</desc>
    <defs></defs>
    <g id="Page-1" stroke="none" stroke-width="1" fill="none" fill-rule="evenodd">
        <g id="chat_normal_16px">
            <rect id="Rectangle-1-Copy-15" opacity="0" x="0" y="0" width="16" height="16"></rect>
            <path d="M6,8 C6,8.552 5.552,9 5,9 C4.448,9 4,8.552 4,8 C4,7.448 4.448,7 5,7 C5.552,7 6,7.448 6,8 Z M12,8 C12,8.552 11.552,9 11,9 C10.448,9 10,8.552 10,8 C10,7.448 10.448,7 11,7 C11.552,7 12,7.448 12,8 Z M9,8 C9,8.552 8.552,9 8,9 C7.448,9 7,8.552 7,8 C7,7.448 7.448,7 8,7 C8.552,7 9,7.448 9,8 Z M3.32580526,11.95177 L2.51980526,14.340123 C2.37217133,14.7775944 2.84570316,15.1643167 3.24485915,14.9322575 L5.81380359,13.4387379 L5.40180093,13.4799525 C6.22482119,13.7592902 7.10178844,13.9048944 8,13.9048944 C11.8485396,13.9048944 15,11.2609634 15,7.95209209 C15,4.64333286 11.8486855,2 8,2 C4.15179395,2 1,4.6435321 1,7.95209209 C1,9.74439488 1.93489115,11.3991939 3.50979365,12.5191247 L3.32580526,11.95177 L3.32580526,11.95177 Z M4.08931746,11.7041694 C2.76761409,10.7642914 2,9.40558017 2,7.95209209 C2,5.23857065 4.6689721,3 8,3 C11.331494,3 14,5.23835146 14,7.95209209 C14,10.6659916 11.331317,12.9048944 8,12.9048944 C7.21141607,12.9048944 6.44300165,12.7773134 5.72319907,12.5330084 C5.58636158,12.486565 5.43612252,12.5015941 5.31119641,12.574223 L3.89669033,13.3875176 L4.27330585,12.2715241 C4.34383685,12.0625254 4.26907944,11.8320001 4.08931746,11.7041694 Z" id="Stroke-1" fill="#FFFFFF" opacity="0.1"></path>
        </g>
    </g>
</svg>