<?xml version="1.0" encoding="UTF-8" standalone="no"?>
<svg width="22px" height="22px" viewBox="0 0 22 22" version="1.1" xmlns="http://www.w3.org/2000/svg" xmlns:xlink="http://www.w3.org/1999/xlink">
    <!-- Generator: Sketch 3.6.1 (26313) - http://www.bohemiancoding.com/sketch -->
    <title>chat_active_22px</title>
    <desc>Created with Sketch.</desc>
    <defs></defs>
    <g id="Page-1" stroke="none" stroke-width="1" fill="none" fill-rule="evenodd">
        <g id="chat_active_22px">
            <rect id="Rectangle-46-Copy-62" opacity="0" x="0" y="0" width="22" height="22"></rect>
            <g id="Page-1" transform="translate(2.000000, 2.000000)" fill="#FFFFFF">
                <path d="M13.9644,9.3643 C13.1364,9.3643 12.4644,8.6923 12.4644,7.8643 C12.4644,7.0363 13.1364,6.3643 13.9644,6.3643 C14.7924,6.3643 15.4644,7.0363 15.4644,7.8643 C15.4644,8.6923 14.7924,9.3643 13.9644,9.3643 M9.4484,9.3643 C8.6204,9.3643 7.9484,8.6923 7.9484,7.8643 C7.9484,7.0363 8.6204,6.3643 9.4484,6.3643 C10.2774,6.3643 10.9484,7.0363 10.9484,7.8643 C10.9484,8.6923 10.2774,9.3643 9.4484,9.3643 M4.9444,9.3643 C4.1154,9.3643 3.4444,8.6923 3.4444,7.8643 C3.4444,7.0363 4.1154,6.3643 4.9444,6.3643 C5.7724,6.3643 6.4444,7.0363 6.4444,7.8643 C6.4444,8.6923 5.7724,9.3643 4.9444,9.3643 M9.4484,0.0003 C4.2384,0.0003 0.0004,3.6453 0.0004,8.1273 C0.0004,10.4303 1.1274,12.6073 3.1054,14.1483 L2.0904,17.2053 C2.0314,17.3833 2.0894,17.5783 2.2354,17.6963 C2.3164,17.7613 2.4164,17.7963 2.5164,17.7963 C2.5954,17.7963 2.6744,17.7743 2.7454,17.7333 L6.1254,15.7333 C7.1894,16.0783 8.3064,16.2533 9.4484,16.2533 C14.6584,16.2533 18.8974,12.6073 18.8974,8.1273 C18.8974,3.6453 14.6584,0.0003 9.4484,0.0003" id="Fill-1"></path>
            </g>
        </g>
    </g>
</svg>