<?xml version="1.0" encoding="UTF-8" standalone="no"?>
<svg width="16px" height="16px" viewBox="0 0 16 16" version="1.1" xmlns="http://www.w3.org/2000/svg" xmlns:xlink="http://www.w3.org/1999/xlink">
    <!-- Generator: Sketch 3.6.1 (26313) - http://www.bohemiancoding.com/sketch -->
    <title>chat_active_16px</title>
    <desc>Created with Sketch.</desc>
    <defs></defs>
    <g id="Page-1" stroke="none" stroke-width="1" fill="none" fill-rule="evenodd">
        <g id="chat_active_16px">
            <rect id="Rectangle-1-Copy-17" fill="#747568" opacity="0" x="0" y="0" width="16" height="16"></rect>
            <g id="Page-1" transform="translate(1.000000, 2.000000)" fill="#FFFFFF">
                <path d="M5,6 C5,6.552 4.552,7 4,7 C3.448,7 3,6.552 3,6 C3,5.448 3.448,5 4,5 C4.552,5 5,5.448 5,6 Z M11,6 C11,6.552 10.552,7 10,7 C9.448,7 9,6.552 9,6 C9,5.448 9.448,5 10,5 C10.552,5 11,5.448 11,6 Z M8,6 C8,6.552 7.552,7 7,7 C6.448,7 6,6.552 6,6 C6,5.448 6.448,5 7,5 C7.552,5 8,5.448 8,6 Z M2.32580526,9.95177003 L1.51980526,12.340123 C1.37217133,12.7775944 1.84570316,13.1643167 2.24485915,12.9322575 L4.81380359,11.4387379 L4.40180093,11.4799525 C5.22482119,11.7592902 6.10178844,11.9048944 7,11.9048944 C10.8485396,11.9048944 14,9.26096342 14,5.95209209 C14,2.64333286 10.8486855,0 7,0 C3.15179395,0 0,2.6435321 0,5.95209209 C0,7.74439488 0.934891155,9.39919394 2.50979365,10.5191247 L2.32580526,9.95177003 L2.32580526,9.95177003 Z" id="Stroke-1"></path>
            </g>
        </g>
    </g>
</svg>