<?xml version="1.0" encoding="UTF-8" standalone="no"?>
<svg width="22px" height="22px" viewBox="0 0 22 22" version="1.1" xmlns="http://www.w3.org/2000/svg" xmlns:xlink="http://www.w3.org/1999/xlink">
    <!-- Generator: Sketch 3.6.1 (26313) - http://www.bohemiancoding.com/sketch -->
    <title>development_active_22px</title>
    <desc>Created with Sketch.</desc>
    <defs></defs>
    <g id="Page-1" stroke="none" stroke-width="1" fill="none" fill-rule="evenodd">
        <g id="development_active_22px">
            <rect id="Rectangle-46-Copy-65" opacity="0" x="0" y="0" width="22" height="22"></rect>
            <path d="M8,15 L15,15 L15,14 L8,14 L8,15 Z M5.182,12.055 L8.29,9.006 L5.156,6.078 L6.016,5.125 L9.989,9.006 L6.016,12.922 L5.182,12.055 Z M18.5,3 L3.5,3 C2.673,3 2,3.673 2,4.5 L2,17.5 C2,18.327 2.673,19 3.5,19 L18.5,19 C19.327,19 20,18.327 20,17.5 L20,4.5 C20,3.673 19.327,3 18.5,3 L18.5,3 Z" id="Page-1" fill="#FFFFFF"></path>
        </g>
    </g>
</svg>