<?xml version="1.0" encoding="UTF-8" standalone="no"?>
<svg width="22px" height="22px" viewBox="0 0 22 22" version="1.1" xmlns="http://www.w3.org/2000/svg" xmlns:xlink="http://www.w3.org/1999/xlink">
    <!-- Generator: Sketch 3.6.1 (26313) - http://www.bohemiancoding.com/sketch -->
    <title>development_normal_22px</title>
    <desc>Created with Sketch.</desc>
    <defs></defs>
    <g id="Page-1" stroke="none" stroke-width="1" fill="none" fill-rule="evenodd">
        <g id="development_normal_22px">
            <rect id="Rectangle-46-Copy-63" opacity="0" x="0" y="0" width="22" height="22"></rect>
            <g id="Page-1" transform="translate(2.000000, 3.000000)" fill="#FFFFFF" opacity="0.1">
                <path d="M17,14.5 C17,14.775 16.776,15 16.5,15 L1.5,15 C1.224,15 1,14.775 1,14.5 L1,1.5 C1,1.225 1.224,1 1.5,1 L16.5,1 C16.776,1 17,1.225 17,1.5 L17,14.5 Z M18,14.5 L18,1.5 C18,0.673 17.327,0 16.5,0 L1.5,0 C0.673,0 0,0.673 0,1.5 L0,14.5 C0,15.327 0.673,16 1.5,16 L16.5,16 C17.327,16 18,15.327 18,14.5 L18,14.5 Z" id="Fill-1"></path>
                <path d="M3.9761,2.2969 L3.2431,3.0179 L6.2891,6.0059 L3.1821,9.0549 L3.9161,9.7759 L7.7561,6.0059 L3.9761,2.2969 Z" id="Fill-3"></path>
                <path d="M6,12 L13,12 L13,11 L6,11 L6,12 Z" id="Fill-5"></path>
            </g>
        </g>
    </g>
</svg>