<?xml version="1.0" encoding="UTF-8" standalone="no"?>
<svg width="16px" height="16px" viewBox="0 0 16 16" version="1.1" xmlns="http://www.w3.org/2000/svg" xmlns:xlink="http://www.w3.org/1999/xlink">
    <!-- Generator: Sketch 3.6.1 (26313) - http://www.bohemiancoding.com/sketch -->
    <title>game_normal_16px</title>
    <desc>Created with Sketch.</desc>
    <defs></defs>
    <g id="Page-1" stroke="none" stroke-width="1" fill="none" fill-rule="evenodd">
        <g id="game_normal_16px">
            <rect id="Rectangle-1-Copy-6" opacity="0" x="0" y="0" width="16" height="16"></rect>
            <g id="Page-1" transform="translate(0.000000, 2.000000)" fill="#FFFFFF" opacity="0.1">
                <path d="M11.8043018,0.5 C11.4125493,0.5 11.0521957,0.61349354 10.6381635,0.831835629 C10.5431416,0.881945945 10.4460202,0.936987748 10.3299564,1.00567066 C10.2637366,1.04485746 10.1811781,1.09459227 10.0357937,1.18218324 C9.38488414,1.57208329 9.00202219,1.72223463 8.51055861,1.72223463 C8.00049479,1.72223463 7.60461111,1.56901417 6.96157116,1.18255711 C6.95399529,1.17800413 6.70150675,1.02500377 6.62764179,0.981259824 C6.49507511,0.902751827 6.38442096,0.840883229 6.27558622,0.785731282 C5.90615463,0.598522014 5.57394254,0.5 5.21839441,0.5 C3.16216373,0.5 1.51276125,2.76126008 0.800915729,5.78766352 C0.103356603,8.75332851 0.57217165,11.3339923 2.36155181,11.4888422 C3.30501005,11.5703954 3.99273066,11.2477083 4.8578962,10.4963816 C4.99009907,10.3815741 5.4349548,9.97887669 5.47102566,9.94678883 C6.50238411,9.02931491 7.2716411,8.64642412 8.49713731,8.64642412 C9.4962114,8.64642412 10.2492639,9.01477608 11.4869898,9.94901915 C11.5322143,9.98315487 11.8492727,10.2239546 11.9421017,10.2936608 C12.1190456,10.4265298 12.2640447,10.5322073 12.4048142,10.6297908 C13.19726,11.1791266 13.8492604,11.4534592 14.5801409,11.4534592 C16.4128125,11.4534592 16.8999432,8.87534594 16.2075395,5.86466394 C15.5027983,2.80033635 13.8600991,0.5 11.8043018,0.5 L11.8043018,0.5 Z M11.8043018,1.5 C13.2439288,1.5 14.6211903,3.4286336 15.2329806,6.0887953 C15.7948073,8.53170753 15.4316951,10.4534592 14.5801409,10.4534592 C14.0939578,10.4534592 13.6150086,10.2519388 12.9745284,9.807948 C12.8456862,9.71863256 12.7102411,9.61991817 12.5425673,9.49401022 C12.4523921,9.42629677 12.1367168,9.18654746 12.0894421,9.15086421 C10.691183,8.0954497 9.77320264,7.64642412 8.49713731,7.64642412 C6.98426717,7.64642412 6.00377085,8.13445739 4.8063742,9.19963528 C4.76347499,9.23779748 4.32510708,9.63462191 4.20221021,9.74134795 C3.521646,10.3323632 3.06627327,10.5460298 2.44771964,10.4925616 C1.5606838,10.415799 1.20288155,8.44622201 1.77435078,6.01662685 C2.3918376,3.39138841 3.77144923,1.5 5.21839441,1.5 C5.39504472,1.5 5.58256429,1.55561148 5.82356265,1.67773727 C5.97321745,1.75357477 5.78001465,1.63915714 6.44645505,2.03967752 C7.23194674,2.51174587 7.77579751,2.72223463 8.51055861,2.72223463 C9.22888641,2.72223463 9.75576672,2.51560196 10.5496636,2.04005139 C11.1043301,1.70780173 10.9687842,1.78801354 11.1046299,1.71637456 C11.3874454,1.56723027 11.6009084,1.5 11.8043018,1.5 Z M13.3115153,6.11001889 C12.8710941,6.11001889 12.5115666,5.76585343 12.5115666,5.34541017 C12.5115666,4.91886468 12.8710941,4.57591966 13.3115153,4.57591966 C13.7577145,4.57591966 14.1166,4.91886468 14.1166,5.34541017 C14.1166,5.76585343 13.7577145,6.11001889 13.3115153,6.11001889 Z M11.8781562,4.73415034 C11.433241,4.73415034 11.0756395,4.38998488 11.0756395,3.96527006 C11.0756395,3.54116546 11.433241,3.197 11.8781562,3.197 C12.3217875,3.197 12.6806729,3.54116546 12.6806729,3.96527006 C12.6806729,4.38998488 12.3217875,4.73415034 11.8781562,4.73415034 Z M11.8787983,7.48271429 C11.435167,7.48271429 11.0756395,7.13915905 11.0756395,6.71444423 C11.0756395,6.29094985 11.435167,5.94739461 11.8787983,5.94739461 C12.3211455,5.94739461 12.6806729,6.29094985 12.6806729,6.71444423 C12.6806729,7.13915905 12.3211455,7.48271429 11.8787983,7.48271429 Z M10.4197587,6.11136138 C9.97612748,6.11136138 9.6166,5.76719592 9.6166,5.34675266 C9.6166,4.92020717 9.97612748,4.57726215 10.4197587,4.57726215 C10.8621059,4.57726215 11.2216334,4.92020717 11.2216334,5.34675266 C11.2216334,5.76719592 10.8621059,6.11136138 10.4197587,6.11136138 Z M5.30049223,5.83999944 C4.96881222,5.83999944 4.70001221,5.57061167 4.70001221,5.24216028 C4.70001221,4.90842677 4.96881222,4.63999939 5.30049223,4.63999939 C5.63121224,4.63999939 5.90001225,4.90842677 5.90001225,5.24216028 C5.90001225,5.57061167 5.63121224,5.83999944 5.30049223,5.83999944 Z M5.32089197,6.41823049 C4.65806765,6.41823049 4.12089192,5.88105476 4.12089192,5.21823045 C4.12089192,4.55540613 4.65806765,4.0182304 5.32089197,4.0182304 C5.9826807,4.0182304 6.52089201,4.55607019 6.52089201,5.21823045 C6.52089201,5.8803907 5.9826807,6.41823049 5.32089197,6.41823049 Z M5.32089197,7.41823049 C6.53481093,7.41823049 7.52089201,6.43283009 7.52089201,5.21823045 C7.52089201,4.00363081 6.53481093,3.0182304 5.32089197,3.0182304 C4.1057829,3.0182304 3.12089192,4.00312138 3.12089192,5.21823045 C3.12089192,6.43333951 4.1057829,7.41823049 5.32089197,7.41823049 Z" id="Stroke-1"></path>
            </g>
        </g>
    </g>
</svg>