<?xml version="1.0" encoding="UTF-8" standalone="no"?>
<svg width="22px" height="22px" viewBox="0 0 22 22" version="1.1" xmlns="http://www.w3.org/2000/svg" xmlns:xlink="http://www.w3.org/1999/xlink">
    <!-- Generator: Sketch 3.6.1 (26313) - http://www.bohemiancoding.com/sketch -->
    <title>game_active_22px</title>
    <desc>Created with Sketch.</desc>
    <defs></defs>
    <g id="Page-1" stroke="none" stroke-width="1" fill="none" fill-rule="evenodd">
        <g id="game_active_22px">
            <rect id="Rectangle-46-Copy-53" opacity="0" x="0" y="0" width="22" height="22"></rect>
            <g id="Page-1" transform="translate(1.000000, 4.000000)" fill="#FFFFFF">
                <path d="M16.7391475,7.184 C16.0541475,7.184 15.4931475,6.62 15.4931475,5.931 C15.4931475,5.232 16.0541475,4.67 16.7391475,4.67 C17.4341475,4.67 17.9931475,5.232 17.9931475,5.931 C17.9931475,6.62 17.4341475,7.184 16.7391475,7.184 M14.5071475,9.434 C13.8161475,9.434 13.2561475,8.871 13.2561475,8.175 C13.2561475,7.48 13.8161475,6.918 14.5071475,6.918 C15.1971475,6.918 15.7561475,7.48 15.7561475,8.175 C15.7561475,8.871 15.1971475,9.434 14.5071475,9.434 M12.2351475,7.186 C11.5431475,7.186 10.9841475,6.622 10.9841475,5.934 C10.9841475,5.234 11.5431475,4.672 12.2351475,4.672 C12.9241475,4.672 13.4841475,5.234 13.4841475,5.934 C13.4841475,6.622 12.9241475,7.186 12.2351475,7.186 M14.5061475,2.41 C15.1981475,2.41 15.7561475,2.974 15.7561475,3.67 C15.7561475,4.365 15.1981475,4.929 14.5061475,4.929 C13.8131475,4.929 13.2561475,4.365 13.2561475,3.67 C13.2561475,2.974 13.8131475,2.41 14.5061475,2.41 Z M6.01844746,3.896 C4.91544746,3.896 4.01844746,4.793 4.01844746,5.896 C4.01844746,6.999 4.91544746,7.896 6.01844746,7.896 C7.12144746,7.896 8.01844746,6.999 8.01844746,5.896 C8.01844746,4.793 7.12144746,3.896 6.01844746,3.896 Z M6.01814746,9.396 C4.08814746,9.396 2.51814746,7.826 2.51814746,5.896 C2.51814746,3.966 4.08814746,2.396 6.01814746,2.396 C7.94814746,2.396 9.51814746,3.966 9.51814746,5.896 C9.51814746,7.826 7.94814746,9.396 6.01814746,9.396 M14.4051475,0 C12.9741475,0 11.9251475,1.693 10.0141475,1.693 C8.05114746,1.693 7.01614746,0 5.62514746,0 C0.480147463,0 -1.95685254,13.491 1.87314746,13.835 C4.93314746,14.11 5.54814746,9.897 9.99514746,9.897 C13.5921475,9.897 15.3981475,13.784 18.1061475,13.784 C21.9521475,13.784 19.5491475,0 14.4051475,0" id="Fill-3"></path>
            </g>
        </g>
    </g>
</svg>