<?xml version="1.0" encoding="UTF-8" standalone="no"?>
<svg width="16px" height="16px" viewBox="0 0 16 16" version="1.1" xmlns="http://www.w3.org/2000/svg" xmlns:xlink="http://www.w3.org/1999/xlink">
    <!-- Generator: Sketch 3.6.1 (26313) - http://www.bohemiancoding.com/sketch -->
    <title>graphics_hover_16px</title>
    <desc>Created with Sketch.</desc>
    <defs></defs>
    <g id="Page-1" stroke="none" stroke-width="1" fill="none" fill-rule="evenodd">
        <g id="graphics_hover_16px">
            <rect id="Rectangle-1-Copy-10" opacity="0" x="0" y="0" width="16" height="16"></rect>
            <g id="pictures_normal_16px" transform="translate(1.000000, 2.000000)" fill="#FFFFFF" opacity="0.5">
                <path d="M0,0.5 L0,11.5 C0,11.7761424 0.223857625,12 0.5,12 L13.5,12 C13.7761424,12 14,11.7761424 14,11.5 L14,0.5 C14,0.223857625 13.7761424,0 13.5,0 L0.5,0 C0.223857625,0 0,0.223857625 0,0.5 L0,0.5 Z M1,0.5 L0.5,1 L13.5,1 L13,0.5 L13,11.5 L13.5,11 L0.5,11 L1,11.5 L1,0.5 L1,0.5 Z M4.5,5 C5.32842712,5 6,4.32842712 6,3.5 C6,2.67157288 5.32842712,2 4.5,2 C3.67157288,2 3,2.67157288 3,3.5 C3,4.32842712 3.67157288,5 4.5,5 L4.5,5 Z M4.5,4 C4.22385763,4 4,3.77614237 4,3.5 C4,3.22385763 4.22385763,3 4.5,3 C4.77614237,3 5,3.22385763 5,3.5 C5,3.77614237 4.77614237,4 4.5,4 L4.5,4 Z M2.5,10 L11.5,10 C11.8886472,10 12.1287038,9.57601438 11.9287465,9.24275212 L8.92874646,4.24275212 C8.73989719,3.92800333 8.28758145,3.91724 8.08397485,4.2226499 L6.08397485,7.2226499 L6.85355339,7.14644661 L5.35355339,5.64644661 C5.13507881,5.42797203 4.77271827,5.4579619 4.59313326,5.7093809 L2.09313326,9.2093809 C1.85675167,9.54031514 2.09331372,10 2.5,10 L2.5,10 Z M2.5,9 L2.90686674,9.7906191 L5.40686674,6.2906191 L4.64644661,6.35355339 L6.14644661,7.85355339 C6.36955521,8.07666199 6.74100436,8.03988128 6.91602515,7.7773501 L8.91602515,4.7773501 L8.07125354,4.75724788 L11.0712535,9.75724788 L11.5,9 L2.5,9 L2.5,9 Z" id="Combined-Shape"></path>
            </g>
        </g>
    </g>
</svg>