<?xml version="1.0" encoding="UTF-8" standalone="no"?>
<svg width="22px" height="22px" viewBox="0 0 22 22" version="1.1" xmlns="http://www.w3.org/2000/svg" xmlns:xlink="http://www.w3.org/1999/xlink">
    <!-- Generator: Sketch 3.6.1 (26313) - http://www.bohemiancoding.com/sketch -->
    <title>graphics_hover_22px</title>
    <desc>Created with Sketch.</desc>
    <defs></defs>
    <g id="Page-1" stroke="none" stroke-width="1" fill="none" fill-rule="evenodd">
        <g id="graphics_hover_22px">
            <rect id="Rectangle-46-Copy-55" opacity="0" x="0" y="0" width="22" height="22"></rect>
            <g id="pictures_normal_22px" transform="translate(2.000000, 4.000000)" fill="#FFFFFF" opacity="0.5">
                <path d="M0,0.5 L0,14.5 C0,14.7761424 0.223857625,15 0.5,15 L17.5,15 C17.7761424,15 18,14.7761424 18,14.5 L18,0.5 C18,0.223857625 17.7761424,0 17.5,0 L0.5,0 C0.223857625,0 0,0.223857625 0,0.5 L0,0.5 Z M1,0.5 L0.5,1 L17.5,1 L17,0.5 L17,14.5 L17.5,14 L0.5,14 L1,14.5 L1,0.5 L1,0.5 Z" id="Path-17"></path>
                <path d="M5.5,7 C6.88071187,7 8,5.88071187 8,4.5 C8,3.11928813 6.88071187,2 5.5,2 C4.11928813,2 3,3.11928813 3,4.5 C3,5.88071187 4.11928813,7 5.5,7 L5.5,7 Z M5.5,6 C4.67157288,6 4,5.32842712 4,4.5 C4,3.67157288 4.67157288,3 5.5,3 C6.32842712,3 7,3.67157288 7,4.5 C7,5.32842712 6.32842712,6 5.5,6 L5.5,6 Z" id="Oval-2"></path>
                <path d="M2.5,13 L15.5,13 C15.8955829,13 16.1345037,12.562377 15.9205892,12.2296212 L11.4205892,5.2296212 C11.2283546,4.93058956 10.7942449,4.92203899 10.590384,5.21326883 L7.09038404,10.2132688 L7.85355339,10.1464466 L5.85355339,8.14644661 C5.63839871,7.93129192 5.2825648,7.95658026 5.1,8.2 L2.1,12.2 C1.8527864,12.5296181 2.08797734,13 2.5,13 L2.5,13 Z M2.5,12 L2.9,12.8 L5.9,8.8 L5.14644661,8.85355339 L7.14644661,10.8535534 C7.36628613,11.0733929 7.7313265,11.0414304 7.90961596,10.7867312 L11.409616,5.78673117 L10.5794108,5.7703788 L15.0794108,12.7703788 L15.5,12 L2.5,12 L2.5,12 Z" id="Path-18"></path>
            </g>
        </g>
    </g>
</svg>