<?xml version="1.0" encoding="UTF-8" standalone="no"?>
<svg width="22px" height="22px" viewBox="0 0 22 22" version="1.1" xmlns="http://www.w3.org/2000/svg" xmlns:xlink="http://www.w3.org/1999/xlink">
    <!-- Generator: Sketch 3.6.1 (26313) - http://www.bohemiancoding.com/sketch -->
    <title>Industry_active_22px</title>
    <desc>Created with Sketch.</desc>
    <defs></defs>
    <g id="Page-1" stroke="none" stroke-width="1" fill="none" fill-rule="evenodd">
        <g id="Industry_active_22px">
            <rect id="Rectangle-46-Copy-77" opacity="0" x="0" y="0" width="22" height="22"></rect>
            <g id="Page-1" transform="translate(3.000000, 3.000000)" fill="#FFFFFF">
                <path d="M15.5,16 L0.5,16 C0.224,16 0,15.776 0,15.5 L0,1.5 C0,1.224 0.224,1 0.5,1 C0.776,1 1,1.224 1,1.5 L1,15 L15.5,15 C15.776,15 16,15.224 16,15.5 C16,15.776 15.776,16 15.5,16" id="Fill-1"></path>
                <path d="M2.5,14 L4.5,14 C4.776,14 5,13.776 5,13.5 L5,4.5 C5,4.224 4.776,4 4.5,4 L2.5,4 C2.224,4 2,4.224 2,4.5 L2,13.5 C2,13.776 2.224,14 2.5,14" id="Fill-3"></path>
                <path d="M7.5,14 L9.5,14 C9.776,14 10,13.776 10,13.5 L10,0.5 C10,0.224 9.776,0 9.5,0 L7.5,0 C7.224,0 7,0.224 7,0.5 L7,13.5 C7,13.776 7.224,14 7.5,14" id="Fill-5"></path>
                <path d="M12,7.5 L12,13.5 C12,13.776 12.224,14 12.5,14 L14.5,14 C14.776,14 15,13.776 15,13.5 L15,7.5 C15,7.224 14.776,7 14.5,7 L12.5,7 C12.224,7 12,7.224 12,7.5" id="Fill-7"></path>
            </g>
        </g>
    </g>
</svg>