<?xml version="1.0" encoding="UTF-8" standalone="no"?>
<svg width="22px" height="22px" viewBox="0 0 22 22" version="1.1" xmlns="http://www.w3.org/2000/svg" xmlns:xlink="http://www.w3.org/1999/xlink">
    <!-- Generator: Sketch 3.6.1 (26313) - http://www.bohemiancoding.com/sketch -->
    <title>Industry_hover_22px</title>
    <desc>Created with Sketch.</desc>
    <defs></defs>
    <g id="Page-1" stroke="none" stroke-width="1" fill="none" fill-rule="evenodd">
        <g id="Industry_hover_22px">
            <rect id="Rectangle-46-Copy-76" fill="#747568" opacity="0" x="0" y="0" width="22" height="22"></rect>
            <g id="Page-1" transform="translate(3.000000, 3.000000)" fill="#FFFFFF" opacity="0.8">
                <path d="M3,13 L4,13 L4,5 L3,5 L3,13 Z M4.5,14 L2.5,14 C2.224,14 2,13.776 2,13.5 L2,4.5 C2,4.224 2.224,4 2.5,4 L4.5,4 C4.776,4 5,4.224 5,4.5 L5,13.5 C5,13.776 4.776,14 4.5,14 L4.5,14 Z" id="Fill-3"></path>
                <path d="M8,13 L9,13 L9,1 L8,1 L8,13 Z M9.5,14 L7.5,14 C7.224,14 7,13.776 7,13.5 L7,0.5 C7,0.224 7.224,0 7.5,0 L9.5,0 C9.776,0 10,0.224 10,0.5 L10,13.5 C10,13.776 9.776,14 9.5,14 L9.5,14 Z" id="Fill-5"></path>
                <path d="M13,13 L14,13 L14,8 L13,8 L13,13 Z M14.5,14 L12.5,14 C12.224,14 12,13.776 12,13.5 L12,7.5 C12,7.224 12.224,7 12.5,7 L14.5,7 C14.776,7 15,7.224 15,7.5 L15,13.5 C15,13.776 14.776,14 14.5,14 L14.5,14 Z" id="Fill-6"></path>
                <path d="M15.5,16 L0.5,16 C0.224,16 0,15.776 0,15.5 L0,1.5 C0,1.224 0.224,1 0.5,1 C0.776,1 1,1.224 1,1.5 L1,15 L15.5,15 C15.776,15 16,15.224 16,15.5 C16,15.776 15.776,16 15.5,16" id="Fill-1"></path>
            </g>
        </g>
    </g>
</svg>