<?xml version="1.0" encoding="UTF-8" standalone="no"?>
<svg width="16px" height="16px" viewBox="0 0 16 16" version="1.1" xmlns="http://www.w3.org/2000/svg" xmlns:xlink="http://www.w3.org/1999/xlink">
    <!-- Generator: Sketch 3.6.1 (26313) - http://www.bohemiancoding.com/sketch -->
    <title>Industry_hover_16px</title>
    <desc>Created with Sketch.</desc>
    <defs></defs>
    <g id="Page-1" stroke="none" stroke-width="1" fill="none" fill-rule="evenodd">
        <g id="Industry_hover_16px">
            <rect id="Rectangle-1-Copy-31" fill="#747568" opacity="0" x="0" y="0" width="16" height="16"></rect>
            <g id="Page-1" transform="translate(2.000000, 1.000000)" fill="#FFFFFF" opacity="0.8">
                <path d="M12.5019,12 L0.4999,12 L0.9999,12.5 L0.9999,1.505 C0.9999,1.22885763 0.776042375,1.005 0.4999,1.005 C0.223757625,1.005 -0.0001,1.22885763 -0.0001,1.505 L-0.0001,12.5 C-0.0001,12.7761424 0.223757625,13 0.4999,13 L12.5019,13 C12.7780424,13 13.0019,12.7761424 13.0019,12.5 C13.0019,12.2238576 12.7780424,12 12.5019,12 L12.5019,12 Z" id="Stroke-1"></path>
                <path d="M3.6,11 L2.4,11 C2.179,11 2,10.821 2,10.6 L2,4.4 C2,4.179 2.179,4 2.4,4 L3.6,4 C3.821,4 4,4.179 4,4.4 L4,10.6 C4,10.821 3.821,11 3.6,11" id="Fill-3"></path>
                <path d="M7.6,11 L6.4,11 C6.179,11 6,10.8031895 6,10.5602 L6,0.4448 C6,0.2018105 6.179,0.005 6.4,0.005 L7.6,0.005 C7.821,0.005 8,0.2018105 8,0.4448 L8,10.5602 C8,10.8031895 7.821,11 7.6,11" id="Fill-5"></path>
                <path d="M11.6,11 L10.4,11 C10.179,11 10,10.821 10,10.6 L10,7.4 C10,7.179 10.179,7 10.4,7 L11.6,7 C11.821,7 12,7.179 12,7.4 L12,10.6 C12,10.821 11.821,11 11.6,11" id="Fill-7"></path>
            </g>
        </g>
    </g>
</svg>