<?xml version="1.0" encoding="UTF-8" standalone="no"?>
<svg width="22px" height="22px" viewBox="0 0 22 22" version="1.1" xmlns="http://www.w3.org/2000/svg" xmlns:xlink="http://www.w3.org/1999/xlink">
    <!-- Generator: Sketch 3.6.1 (26313) - http://www.bohemiancoding.com/sketch -->
    <title>internet_normal_22px</title>
    <desc>Created with Sketch.</desc>
    <defs></defs>
    <g id="Page-1" stroke="none" stroke-width="1" fill="none" fill-rule="evenodd">
        <g id="internet_normal_22px">
            <rect id="Rectangle-46" opacity="0" x="0" y="0" width="22" height="22"></rect>
            <g id="Page-1" transform="translate(2.000000, 2.000000)" fill="#FFFFFF" opacity="0.1">
                <path d="M14.0594475,15.1497619 C14.0844287,14.3158209 14.0714385,13.5098443 13.9944962,12.7577993 C14.3382382,12.5760302 14.5990425,12.2674221 14.7189525,11.8918989 C15.2895242,11.8599395 15.880081,11.7980181 16.491622,11.709131 C15.9949947,13.0624125 15.152627,14.2489058 14.0594475,15.1497619 M7.22557675,16.783687 C8.8033925,14.9150599 10.9897515,13.4049775 12.3297457,12.5750314 C12.5206025,12.736826 12.7474322,12.8566738 13.002241,12.9076091 C13.0951712,13.8244449 13.1071622,14.8091944 13.0352162,15.8578627 C11.8401132,16.5649648 10.4511557,16.9784397 8.965271,16.9784397 C8.36672025,16.9784397 7.786156,16.9085285 7.22557675,16.783687 M2.33324875,13.4649014 C2.51511225,12.5810238 2.95778,11.0180086 3.95203375,9.30318623 C4.060952,9.32815452 4.172868,9.34413423 4.288781,9.34413423 C4.52960025,9.34413423 4.75343225,9.28321159 4.9542815,9.18233969 C6.6050425,10.4007924 8.81638275,11.4554531 11.6652445,11.8070067 C10.180359,12.7338298 7.838117,14.3927232 6.1933515,16.4760776 C4.61553575,15.8918196 3.26654825,14.8341626 2.33324875,13.4649014 M1.62777825,5.73371896 C1.94354125,6.19713049 2.3602285,6.74443549 2.889831,7.32270117 C2.8278775,7.48649318 2.789906,7.66127124 2.789906,7.84603661 C2.789906,8.19359526 2.91281375,8.50819576 3.11066525,8.76187362 C2.3642255,10.0422477 1.902572,11.2467182 1.626779,12.1875235 C1.19010675,11.1987791 0.943292,10.1091627 0.943292,8.96161997 C0.943292,7.81307846 1.19010675,6.72246339 1.62777825,5.73371896 M5.54683675,1.71881734 C6.0574535,1.99246984 6.77391575,2.42492068 7.57731275,3.05212422 C7.494375,3.23788833 7.446411,3.44262833 7.446411,3.65835439 C7.446411,3.78019966 7.4643975,3.89605255 7.4923765,4.00990797 C6.41418575,4.76195297 5.51885775,5.58790413 4.77741425,6.43682611 C4.62352975,6.3828946 4.460652,6.34793899 4.288781,6.34793899 C4.01598575,6.34793899 3.7631755,6.4268388 3.5433405,6.55467646 C2.9078175,5.84857311 2.45915425,5.20339241 2.16537475,4.72699736 C2.97876425,3.42764736 4.15188375,2.37897902 5.54683675,1.71881734 M12.346733,1.70084017 C11.5023667,1.96051042 10.7129592,2.25413755 9.99150075,2.58771396 C9.720704,2.32404878 9.35298,2.16025677 8.945286,2.16025677 C8.70046975,2.16025677 8.47264075,2.22517433 8.26879375,2.32904244 C7.718207,1.89359539 7.2005955,1.53804689 6.75193225,1.2613982 C7.45540425,1.05865565 8.19684775,0.943801501 8.965271,0.943801501 C10.1743635,0.943801501 11.3175055,1.2204502 12.346733,1.70084017 M5.5618255,7.06303092 C6.243314,6.29001255 7.062699,5.53796754 8.04496175,4.84884263 C8.2957735,5.0396004 8.605541,5.15645201 8.945286,5.15645201 C9.19010225,5.15645201 9.41793125,5.09253318 9.62177825,4.98866508 C10.7659195,6.29999986 11.8331185,8.01182608 12.4736377,10.1890613 C12.2368155,10.3458622 12.0479572,10.5685794 11.9300457,10.8302471 C9.2710415,10.5256339 7.20958875,9.56685141 5.659752,8.44927058 C5.74069125,8.26450521 5.787656,8.06176267 5.787656,7.84603661 C5.787656,7.55840187 5.70271975,7.29174049 5.5618255,7.06303092 M16.98725,8.96161997 C16.98725,9.54388058 16.9203002,10.1111602 16.8023887,10.6584652 C16.0649422,10.7833067 15.3654672,10.8552154 14.6899742,10.8931672 C14.489125,10.3818165 14.0164797,10.0142832 13.4489057,9.95635679 C12.754427,7.56039933 11.5763112,5.68178491 10.3172562,4.25859217 C10.3981955,4.07482553 10.444161,3.87208299 10.444161,3.65835439 C10.444161,3.60042795 10.4331692,3.5454977 10.4271737,3.48856999 C11.359474,3.05811661 12.394697,2.68558967 13.54983,2.39196254 C15.624273,3.84212103 16.98725,6.24407089 16.98725,8.96161997 M8.965271,0 C4.020982,0 0,4.01989528 0,8.96161997 C0,13.9023459 4.020982,17.9222412 8.965271,17.9222412 C13.9085607,17.9222412 17.930542,13.9023459 17.930542,8.96161997 C17.930542,4.01989528 13.9085607,0 8.965271,0" id="Fill-1"></path>
            </g>
        </g>
    </g>
</svg>