<?xml version="1.0" encoding="UTF-8" standalone="no"?>
<svg width="22px" height="22px" viewBox="0 0 22 22" version="1.1" xmlns="http://www.w3.org/2000/svg" xmlns:xlink="http://www.w3.org/1999/xlink">
    <!-- Generator: Sketch 3.6.1 (26313) - http://www.bohemiancoding.com/sketch -->
    <title>internet_active_22px</title>
    <desc>Created with Sketch.</desc>
    <defs></defs>
    <g id="Page-1" stroke="none" stroke-width="1" fill="none" fill-rule="evenodd">
        <g id="internet_active_22px">
            <rect id="Rectangle-46-Copy-47" opacity="0" x="0" y="0" width="22" height="22"></rect>
            <g id="Page-1" transform="translate(2.000000, 2.000000)" fill="#FFFFFF">
                <path d="M8.9528,5.2051 C8.5808,5.2051 8.2448,5.0631 7.9848,4.8371 C7.0318,5.5171 6.2248,6.2511 5.5478,7.0061 C5.7228,7.2491 5.8288,7.5461 5.8288,7.8681 C5.8288,8.0241 5.7978,8.1701 5.7538,8.3111 C7.3148,9.4181 9.3618,10.3611 11.9668,10.7131 C12.0988,10.4731 12.2938,10.2761 12.5308,10.1411 C11.8848,8.0001 10.8328,6.3091 9.7058,4.9931 C9.4838,5.1251 9.2288,5.2051 8.9528,5.2051 M14.6577,11.9028 C14.5527,12.2088 14.3567,12.4718 14.0947,12.6518 C14.1827,13.4078 14.2027,14.2218 14.1897,15.0608 C13.8637,15.3408 13.5137,15.5918 13.1457,15.8168 C13.2017,14.7828 13.1887,13.7998 13.0887,12.8918 C12.8907,12.8688 12.7057,12.8078 12.5397,12.7148 C11.1697,13.5748 9.0747,15.0468 7.4887,16.8568 C7.1057,16.7848 6.7337,16.6838 6.3727,16.5598 C8.0457,14.5068 10.3347,12.8588 11.8597,11.8948 C11.8447,11.8518 11.8297,11.8098 11.8187,11.7648 C8.9957,11.3868 6.7797,10.3498 5.0937,9.1418 C4.8737,9.2718 4.6197,9.3518 4.3447,9.3518 C4.1817,9.3518 4.0267,9.3188 3.8797,9.2698 C2.9437,10.8338 2.4567,12.2888 2.2077,13.2778 C1.9367,12.8528 1.7037,12.4008 1.5147,11.9258 C1.8347,10.9648 2.3187,9.8088 3.0597,8.5958 C2.9377,8.3798 2.8617,8.1338 2.8617,7.8688 C2.8617,7.6688 2.9027,7.4788 2.9737,7.3048 C2.4257,6.7298 1.9947,6.1888 1.6457,5.7058 C1.8067,5.3458 1.9947,5.0018 2.2047,4.6718 C2.5577,5.1988 3.0477,5.8488 3.7017,6.5378 C3.8967,6.4428 4.1137,6.3848 4.3447,6.3848 C4.4527,6.3848 4.5577,6.3978 4.6587,6.4198 C5.4317,5.5388 6.3657,4.6808 7.4867,3.8968 C7.4797,3.8388 7.4697,3.7818 7.4697,3.7218 C7.4697,3.4638 7.5417,3.2248 7.6577,3.0128 C6.9027,2.4098 6.2087,1.9648 5.6747,1.6608 C6.0737,1.4798 6.4897,1.3338 6.9197,1.2198 C7.3817,1.5188 7.8977,1.8818 8.4487,2.3318 C8.6067,2.2748 8.7747,2.2388 8.9527,2.2388 C9.2847,2.2388 9.5887,2.3518 9.8357,2.5358 C10.5477,2.1898 11.3367,1.8878 12.1637,1.6098 C12.6037,1.8008 13.0237,2.0298 13.4187,2.2938 C12.3117,2.6068 11.3127,2.9898 10.4057,3.4228 C10.4257,3.5198 10.4357,3.6198 10.4357,3.7218 C10.4357,3.8778 10.4047,4.0258 10.3607,4.1678 C11.6427,5.6228 12.8407,7.5348 13.5527,9.9718 C14.0387,10.0698 14.4387,10.6128 14.6267,11.0588 C15.1687,11.0438 16.0697,10.9488 16.7687,10.8528 C16.6937,11.1618 16.6007,11.4628 16.4917,11.7558 C15.8617,11.8308 15.2447,11.8858 14.6577,11.9028 M8.9717,-0.0002 C4.0247,-0.0002 -0.0003,4.0248 -0.0003,8.9718 C-0.0003,13.9198 4.0247,17.9448 8.9717,17.9448 C13.9197,17.9448 17.9447,13.9198 17.9447,8.9718 C17.9447,4.0248 13.9197,-0.0002 8.9717,-0.0002" id="Fill-3"></path>
            </g>
        </g>
    </g>
</svg>