<?xml version="1.0" encoding="UTF-8" standalone="no"?>
<svg width="16px" height="16px" viewBox="0 0 16 16" version="1.1" xmlns="http://www.w3.org/2000/svg" xmlns:xlink="http://www.w3.org/1999/xlink">
    <!-- Generator: Sketch 3.6.1 (26313) - http://www.bohemiancoding.com/sketch -->
    <title>internet_active_16px</title>
    <desc>Created with Sketch.</desc>
    <defs></defs>
    <g id="Page-1" stroke="none" stroke-width="1" fill="none" fill-rule="evenodd">
        <g id="internet_active_16px">
            <rect id="Rectangle-1-Copy-2" fill="#747568" opacity="0" x="0" y="0" width="16" height="16"></rect>
            <g id="Page-1" transform="translate(1.000000, 1.000000)" fill="#FFFFFF">
                <path d="M6.96328889,4.04841111 C6.67395556,4.04841111 6.41262222,3.93796667 6.2104,3.76218889 C5.46917778,4.29107778 4.84151111,4.86196667 4.31495556,5.44918889 C4.45106667,5.63818889 4.53351111,5.86918889 4.53351111,6.11963333 C4.53351111,6.24096667 4.5094,6.35452222 4.47517778,6.46418889 C5.68928889,7.32518889 7.2814,8.05863333 9.30751111,8.33241111 C9.41017778,8.14574444 9.56184444,7.99252222 9.74617778,7.88752222 C9.24373333,6.2223 8.42551111,4.90707778 7.54895556,3.88352222 C7.37628889,3.98618889 7.17795556,4.04841111 6.96328889,4.04841111 M11.4004333,9.25773333 C11.3187667,9.49573333 11.1663222,9.70028889 10.9625444,9.84028889 C11.0309889,10.4282889 11.0465444,11.0614 11.0364333,11.7139556 C10.7828778,11.9317333 10.5106556,12.1269556 10.2244333,12.3019556 C10.2679889,11.4977333 10.2578778,10.7331778 10.1801,10.0269556 C10.0261,10.0090667 9.88221111,9.96162222 9.7531,9.88928889 C8.68754444,10.5581778 7.0581,11.7030667 5.82454444,13.1108444 C5.52665556,13.0548444 5.23732222,12.9762889 4.95654444,12.8798444 C6.25776667,11.2830667 8.0381,10.0012889 9.22421111,9.25151111 C9.21254444,9.21806667 9.20087778,9.1854 9.19232222,9.1504 C6.99665556,8.8564 5.2731,8.04984444 3.96176667,7.11028889 C3.79065556,7.2114 3.5931,7.27362222 3.37921111,7.27362222 C3.25243333,7.27362222 3.13187778,7.24795556 3.01754444,7.20984444 C2.28954444,8.42628889 1.91076667,9.55795556 1.7171,10.3271778 C1.50632222,9.99662222 1.3251,9.64506667 1.1781,9.27562222 C1.42698889,8.52817778 1.80343333,7.62906667 2.37976667,6.68562222 C2.28487778,6.51762222 2.22576667,6.32628889 2.22576667,6.12017778 C2.22576667,5.96462222 2.25765556,5.81684444 2.31287778,5.68151111 C1.88665556,5.23428889 1.55143333,4.81351111 1.27998889,4.43784444 C1.40521111,4.15784444 1.55143333,3.89028889 1.71476667,3.63362222 C1.98932222,4.04351111 2.37043333,4.54906667 2.8791,5.08495556 C3.03076667,5.01106667 3.19954444,4.96595556 3.37921111,4.96595556 C3.46321111,4.96595556 3.54487778,4.97606667 3.62343333,4.99317778 C4.22465556,4.30795556 4.9511,3.64062222 5.82298889,3.03084444 C5.81754444,2.98573333 5.80976667,2.9414 5.80976667,2.89473333 C5.80976667,2.69406667 5.86576667,2.50817778 5.95598889,2.34328889 C5.36876667,1.87428889 4.82898889,1.52817778 4.41365556,1.29173333 C4.72398889,1.15095556 5.04754444,1.0374 5.38198889,0.948733333 C5.74132222,1.18128889 6.14265556,1.46362222 6.57121111,1.81362222 C6.6941,1.76928889 6.82476667,1.74128889 6.96321111,1.74128889 C7.22143333,1.74128889 7.45787778,1.82917778 7.64998889,1.97228889 C8.20376667,1.70317778 8.81743333,1.46828889 9.46065556,1.25206667 C9.80287778,1.40062222 10.1295444,1.57873333 10.4367667,1.78406667 C9.57576667,2.02751111 8.79876667,2.3254 8.09332222,2.66217778 C8.10887778,2.73762222 8.11665556,2.8154 8.11665556,2.89473333 C8.11665556,3.01606667 8.09254444,3.13117778 8.05832222,3.24162222 C9.05543333,4.37328889 9.98721111,5.8604 10.5409889,7.75584444 C10.9189889,7.83206667 11.2301,8.2544 11.3763222,8.60128889 C11.7978778,8.58962222 12.4986556,8.51573333 13.0423222,8.44106667 C12.9839889,8.6814 12.9116556,8.91551111 12.8268778,9.1434 C12.3368778,9.20173333 11.8569889,9.24451111 11.4004333,9.25773333 M6.97798889,-0.000155555556 C3.13032222,-0.000155555556 -0.000233333333,3.1304 -0.000233333333,6.97806667 C-0.000233333333,10.8265111 3.13032222,13.9570667 6.97798889,13.9570667 C10.8264333,13.9570667 13.9569889,10.8265111 13.9569889,6.97806667 C13.9569889,3.1304 10.8264333,-0.000155555556 6.97798889,-0.000155555556" id="Fill-3"></path>
            </g>
        </g>
    </g>
</svg>