<?xml version="1.0" encoding="UTF-8" standalone="no"?>
<svg width="22px" height="22px" viewBox="0 0 22 22" version="1.1" xmlns="http://www.w3.org/2000/svg" xmlns:xlink="http://www.w3.org/1999/xlink">
    <!-- Generator: Sketch 3.6.1 (26313) - http://www.bohemiancoding.com/sketch -->
    <title>multimedia_normal_22px</title>
    <desc>Created with Sketch.</desc>
    <defs></defs>
    <g id="Page-1" stroke="none" stroke-width="1" fill="none" fill-rule="evenodd">
        <g id="multimedia_normal_22px">
            <rect id="Rectangle-46-Copy-48" opacity="0" x="0" y="0" width="22" height="22"></rect>
            <g id="Page-1" transform="translate(3.000000, 3.000000)" fill="#FFFFFF" opacity="0.1">
                <path d="M15,4 L12,4 L12,1 L14.6,1 C14.82,1 15,1.213 15,1.433 L15,4 Z M12,8 L15,8 L15,5 L12,5 L12,8 Z M12,12 L15,12 L15,9 L12,9 L12,12 Z M15,15.633 C15,15.853 14.82,16 14.6,16 L12,16 L12,13 L15,13 L15,15.633 Z M5,8 L11,8 L11,1 L5,1 L5,8 Z M5,16 L11,16 L11,9 L5,9 L5,16 Z M4,4 L1,4 L1,1.433 C1,1.213 1.18,1 1.4,1 L4,1 L4,4 Z M1,8 L4,8 L4,5 L1,5 L1,8 Z M1,12 L4,12 L4,9 L1,9 L1,12 Z M4,16 L1.4,16 C1.179,16 1,15.854 1,15.633 L1,13 L4,13 L4,16 Z M1,0 C0.45,0 0,0.483 0,1.033 L0,16.033 C0,16.585 0.448,17 1,17 L15,17 C15.55,17 16,16.583 16,16.033 L16,1.033 C16,0.483 15.55,0 15,0 L1,0 Z" id="Fill-3"></path>
            </g>
        </g>
    </g>
</svg>