<?xml version="1.0" encoding="UTF-8" standalone="no"?>
<svg width="22px" height="22px" viewBox="0 0 22 22" version="1.1" xmlns="http://www.w3.org/2000/svg" xmlns:xlink="http://www.w3.org/1999/xlink">
    <!-- Generator: Sketch 3.6.1 (26313) - http://www.bohemiancoding.com/sketch -->
    <title>multimedia_active_22px</title>
    <desc>Created with Sketch.</desc>
    <defs></defs>
    <g id="Page-1" stroke="none" stroke-width="1" fill="none" fill-rule="evenodd">
        <g id="multimedia_active_22px">
            <rect id="Rectangle-46-Copy-50" opacity="0" x="0" y="0" width="22" height="22"></rect>
            <path d="M18,8 L15,8 L15,11 L18,11 L18,12 L15,12 L15,15 L18,15 L18,16 L15,16 L15,19 L14,19 L14,12 L8,12 L8,19 L7,19 L7,16 L4,16 L4,15 L7,15 L7,12 L4,12 L4,11 L7,11 L7,8 L4,8 L4,7 L7,7 L7,4 L8,4 L8,11 L14,11 L14,4 L15,4 L15,7 L18,7 L18,8 Z M18.966,4 C18.884,3 18.493,3 18,3 L16.823,3 L16.823,3 L14,3 L8,3 L4.817,3 L4.817,3 L4,3 C3.448,3 3,3.448 3,4 L3,19 C3,19.552 3.448,20 4,20 L18,20 C18.552,20 19,19.552 19,19 L19,4 L19,4 L18.966,4 Z" id="Page-1" fill="#FFFFFF"></path>
        </g>
    </g>
</svg>