<?xml version="1.0" encoding="UTF-8" standalone="no"?>
<svg width="16px" height="16px" viewBox="0 0 16 16" version="1.1" xmlns="http://www.w3.org/2000/svg" xmlns:xlink="http://www.w3.org/1999/xlink">
    <!-- Generator: Sketch 3.6.1 (26313) - http://www.bohemiancoding.com/sketch -->
    <title>multimedia_hover_16px</title>
    <desc>Created with Sketch.</desc>
    <defs></defs>
    <g id="Page-1" stroke="none" stroke-width="1" fill="none" fill-rule="evenodd">
        <g id="multimedia_hover_16px">
            <rect id="Rectangle-1-Copy-4" fill="#747568" opacity="0" x="0" y="0" width="16" height="16"></rect>
            <g id="videos_normal_16px" transform="translate(2.000000, 1.000000)" fill="#FFFFFF" opacity="0.8">
                <path d="M9,3 L9,1 C9,0.723857625 8.77614237,0.5 8.5,0.5 C8.22385763,0.5 8,0.723857625 8,1 L8,6 L4,6 L4,1 C4,0.723857625 3.77614237,0.5 3.5,0.5 C3.22385763,0.5 3,0.723857625 3,1 L3,3 L1,3 C0.723857625,3 0.5,3.22385763 0.5,3.5 C0.5,3.77614237 0.723857625,4 1,4 L3,4 L3,6 L1,6 C0.723857625,6 0.5,6.22385763 0.5,6.5 C0.5,6.77614237 0.723857625,7 1,7 L3,7 L3,9 L1,9 C0.723857625,9 0.5,9.22385763 0.5,9.5 C0.5,9.77614237 0.723857625,10 1,10 L3,10 L3,12 C3,12.2761424 3.22385763,12.5 3.5,12.5 C3.77614237,12.5 4,12.2761424 4,12 L4,7 L8,7 L8,12 C8,12.2761424 8.22385763,12.5 8.5,12.5 C8.77614237,12.5 9,12.2761424 9,12 L9,10 L11,10 C11.2761424,10 11.5,9.77614237 11.5,9.5 C11.5,9.22385763 11.2761424,9 11,9 L9,9 L9,7 L11,7 C11.2761424,7 11.5,6.77614237 11.5,6.5 C11.5,6.22385763 11.2761424,6 11,6 L9,6 L9,4 L11,4 C11.2761424,4 11.5,3.77614237 11.5,3.5 C11.5,3.22385763 11.2761424,3 11,3 L9,3 Z M1,0.5 L0.5,1 L11.5,1 L11,0.5 L11,12.5 L11.5,12 L0.5,12 L1,12.5 L1,0.5 L1,0.5 Z M0,0.5 L0,12.5 C0,12.7761424 0.223857625,13 0.5,13 L11.5,13 C11.7761424,13 12,12.7761424 12,12.5 L12,0.5 C12,0.223857625 11.7761424,0 11.5,0 L0.5,0 C0.223857625,0 0,0.223857625 0,0.5 L0,0.5 Z" id="Combined-Shape"></path>
            </g>
        </g>
    </g>
</svg>