<?xml version="1.0" encoding="UTF-8" standalone="no"?>
<svg width="22px" height="22px" viewBox="0 0 22 22" version="1.1" xmlns="http://www.w3.org/2000/svg" xmlns:xlink="http://www.w3.org/1999/xlink">
    <!-- Generator: Sketch 3.6.1 (26313) - http://www.bohemiancoding.com/sketch -->
    <title>music_active_22px</title>
    <desc>Created with Sketch.</desc>
    <defs></defs>
    <g id="Page-1" stroke="none" stroke-width="1" fill="none" fill-rule="evenodd">
        <g id="music_active_22px">
            <rect id="Rectangle-46-Copy-83" opacity="0" x="0" y="0" width="22" height="22"></rect>
            <path d="M7.0073853,7.45993579 L7.0073853,17.5000593 L6.96622216,17.5412224 C6.79547493,18.4877396 5.9916419,19.3660352 4.87364794,19.7729517 C3.34099861,20.3307904 1.69119961,19.8304898 1.22134306,18.5395695 C0.751486517,17.2486493 1.69371884,15.8049264 3.22636816,15.2470877 C4.22262512,14.8844798 5.26838129,14.9689671 6.0073853,15.4270743 L6.0073853,6.25005927 L6.0073853,3.50005927 C6.0073853,3.24528467 6.19895319,3.03125256 6.45216953,3.00311741 L18.4521695,2.00311741 C18.7483525,1.97020819 19.0073853,2.20205363 19.0073853,2.50005927 L19.0073853,5.25005927 L19.0073853,16.5000593 L18.9650638,16.5423808 C18.7938133,17.488227 17.990342,18.3657333 16.8730625,18.7723897 C15.340651,19.3301419 13.6911079,18.8299189 13.2213242,17.539199 C12.7515406,16.248479 13.6936267,14.8049801 15.2260383,14.2472279 C16.2224828,13.8845517 17.2684529,13.9692086 18.0073853,14.4276587 L18.0073853,6.54326912 L7.0073853,7.45993579 Z" id="Combined-Shape" fill="#FFFFFF"></path>
        </g>
    </g>
</svg>