<?xml version="1.0" encoding="UTF-8" standalone="no"?>
<svg width="16px" height="16px" viewBox="0 0 16 16" version="1.1" xmlns="http://www.w3.org/2000/svg" xmlns:xlink="http://www.w3.org/1999/xlink">
    <!-- Generator: Sketch 3.6.1 (26313) - http://www.bohemiancoding.com/sketch -->
    <title>music_normal_16px</title>
    <desc>Created with Sketch.</desc>
    <defs></defs>
    <g id="Page-1" stroke="none" stroke-width="1" fill="none" fill-rule="evenodd">
        <g id="music_normal_16px">
            <rect id="Rectangle-1-Copy-36" opacity="0" x="0" y="0" width="16" height="16"></rect>
            <g id="音乐" transform="translate(1.000000, 1.000000)" fill="#FFFFFF" opacity="0.1">
                <path d="M5,4.4475214 L13,3.55863251 L13,9.26544213 C12.401407,8.96850536 11.6124328,8.93423273 10.8576672,9.20894495 C9.5847882,9.67223501 8.80225584,10.8712598 9.1924759,11.9433806 C9.58269596,13.0155014 10.9528688,13.4310055 12.2257477,12.9677154 C13.3429602,12.5610833 14.0824262,11.587666 13.9827337,10.6307404 C13.9939932,10.589066 14,10.5452345 14,10.5 L14,2.75 L14,0.5 C14,0.201994351 13.7409672,-0.0298510859 13.4447842,0.00305813266 L4.44478424,1.00305813 C4.1915679,1.03119328 4,1.24522539 4,1.5 L4,3.75 L4,10.2648132 C3.40151819,9.9682953 2.61296345,9.93419752 1.85858247,10.2087697 C0.585703508,10.6720598 -0.196828853,11.8710845 0.193391206,12.9432053 C0.583611264,14.0153261 1.95378408,14.4308303 3.22666304,13.9675402 L3.22666304,13.9675402 C4.34478343,13.5605777 5.08454307,12.5859083 4.98340428,11.6282322 C4.99423152,11.5873086 5,11.544328 5,11.5 L5,4.4475214 Z M13.0000002,2.50161788 C12.6619317,2.54905294 5,3.62275961 5,3.5 L5,2.00000003 L13.0115265,1.05735179 L13.0115261,2.39276684 C13.0039775,2.42731133 13,2.46319117 13,2.5 L13,2.50161791 Z M11.8837276,12.0280228 C11.0806949,12.3203028 10.308626,12.0861733 10.1321685,11.6013604 C9.95571105,11.1165475 10.3966547,10.4409176 11.1996873,10.1486376 C12.00272,9.85635759 12.7747889,10.0904871 12.9512464,10.5753 C13.1277038,11.0601129 12.6867602,11.7357428 11.8837276,12.0280228 Z M2.8846429,13.0278476 C2.08161025,13.3201276 1.3095413,13.0859981 1.13308383,12.6011852 C0.956626357,12.1163723 1.39756996,11.4407423 2.20060261,11.1484624 C3.00363527,10.8561824 3.77570422,11.0903119 3.95216169,11.5751248 C4.12861916,12.0599377 3.68767555,12.7355676 2.8846429,13.0278476 L2.8846429,13.0278476 Z" id="Combined-Shape"></path>
            </g>
        </g>
    </g>
</svg>