<?xml version="1.0" encoding="UTF-8" standalone="no"?>
<svg width="22px" height="22px" viewBox="0 0 22 22" version="1.1" xmlns="http://www.w3.org/2000/svg" xmlns:xlink="http://www.w3.org/1999/xlink">
    <!-- Generator: Sketch 3.6.1 (26313) - http://www.bohemiancoding.com/sketch -->
    <title>music_hover_22px</title>
    <desc>Created with Sketch.</desc>
    <defs></defs>
    <g id="Page-1" stroke="none" stroke-width="1" fill="none" fill-rule="evenodd">
        <g id="music_hover_22px">
            <rect id="Rectangle-46-Copy-82" opacity="0" x="0" y="0" width="22" height="22"></rect>
            <g id="音乐" transform="translate(1.000000, 2.000000)" fill="#FFFFFF" opacity="0.5">
                <path d="M18,3.75 L18,0.5 C18,0.207479926 17.7499869,-0.022565349 17.4584773,0.00172712088 L5.45847726,1.00172712 C5.1993312,1.02332263 5,1.23995568 5,1.5 L5,4.75 L5,13.3929602 C4.25238695,12.9442932 3.19910299,12.8644914 2.1900761,13.2317472 C0.623511084,13.8019302 -0.33211045,15.2661685 0.138279344,16.5585539 C0.608669138,17.8509392 2.28191195,18.3583492 3.84847696,17.7881661 L3.84847696,17.7881661 C5.32691351,17.2500592 6.26121141,15.9156593 5.96626659,14.680914 C5.98805017,14.6248111 6,14.5638011 6,14.5 L6,5.46006644 L17,4.54339977 L17,12.3929602 C16.2523869,11.9442932 15.199103,11.8644914 14.1900761,12.2317472 C12.6235111,12.8019302 11.6678895,14.2661685 12.1382793,15.5585539 C12.6086691,16.8509392 14.281912,17.3583492 15.848477,16.7881661 C17.3269135,16.2500592 18.2612114,14.9156593 17.9662666,13.680914 C17.9880502,13.6248111 18,13.5638011 18,13.5 L18,3.75 Z M17,3.50096166 L6,4.5 L6.0019888,1.95990071 L17.0105876,1.04251747 L17.0105879,3.39715526 C17.0036483,3.43034676 17,3.46474733 17,3.5 Z M15.5064568,15.8484735 C14.4097381,16.2476465 13.3345992,15.9216112 13.077972,15.2165337 C12.8213448,14.5114563 13.4353775,13.5706128 14.5320962,13.1714398 C15.6288149,12.7722668 16.7039539,13.0983021 16.9605811,13.8033796 C17.2172083,14.508457 16.6031755,15.4493005 15.5064568,15.8484735 Z M3.50645682,16.8484735 C2.40973812,17.2476465 1.33459917,16.9216112 1.07797196,16.2165337 C0.82134476,15.5114563 1.43537754,14.5706128 2.53209624,14.1714398 C3.62881494,13.7722668 4.70395389,14.0983021 4.9605811,14.8033796 C5.2172083,15.508457 4.60317552,16.4493005 3.50645682,16.8484735 L3.50645682,16.8484735 Z" id="Combined-Shape"></path>
            </g>
        </g>
    </g>
</svg>