<?xml version="1.0" encoding="UTF-8" standalone="no"?>
<svg width="22px" height="22px" viewBox="0 0 22 22" version="1.1" xmlns="http://www.w3.org/2000/svg" xmlns:xlink="http://www.w3.org/1999/xlink">
    <!-- Generator: Sketch 3.6.1 (26313) - http://www.bohemiancoding.com/sketch -->
    <title>office_active_22px</title>
    <desc>Created with Sketch.</desc>
    <defs></defs>
    <g id="Page-1" stroke="none" stroke-width="1" fill="none" fill-rule="evenodd">
        <g id="office_active_22px">
            <rect id="Rectangle-46-Copy-59" opacity="0" x="0" y="0" width="22" height="22"></rect>
            <g id="Page-1" transform="translate(1.000000, 2.000000)" fill="#FFFFFF">
                <path d="M17,13.5 C17,13.775 16.744,14 16.469,14 L3.5,14 C3.224,14 3,13.775 3,13.5 L3,3 L17,3 L17,13.5 Z M18.969,0 L1,0 C0.449,0 0,0.448 0,1 L0,2 C0,2.552 0.449,3 1,3 L2,3 L2,13.5 C2,14.327 2.673,15 3.5,15 L8.793,15 L6.732,17.061 C6.537,17.256 6.537,17.572 6.732,17.768 C6.83,17.865 6.958,17.914 7.086,17.914 C7.214,17.914 7.342,17.865 7.439,17.768 L10,15.207 L10,19 C10,19.276 10.224,19.5 10.5,19.5 C10.776,19.5 11,19.276 11,19 L11,15.207 L13.561,17.768 C13.658,17.865 13.786,17.914 13.914,17.914 C14.042,17.914 14.17,17.865 14.268,17.768 C14.463,17.572 14.463,17.256 14.268,17.061 L12.207,15 L16.469,15 C17.296,15 18,14.327 18,13.5 L18,3 L18.969,3 C19.52,3 20,2.552 20,2 L20,1 C20,0.448 19.52,0 18.969,0 L18.969,0 Z" id="Fill-1"></path>
                <path d="M15.0879,8 L15.0369,7.454 C14.8299,5.228 13.7839,4.199 11.5409,4.017 L10.9999,3.973 L10.9999,4.515 L10.9999,8 L14.5389,8 L15.0879,8 Z" id="Fill-3"></path>
                <path d="M9.5,13 C11.43,13 13,11.43 13,9.5 L13,9 L10,9 L10,6 L9.5,6 C7.57,6 6,7.57 6,9.5 C6,11.43 7.57,13 9.5,13" id="Fill-5"></path>
            </g>
        </g>
    </g>
</svg>