<?xml version="1.0" encoding="UTF-8" standalone="no"?>
<svg width="16px" height="16px" viewBox="0 0 16 16" version="1.1" xmlns="http://www.w3.org/2000/svg" xmlns:xlink="http://www.w3.org/1999/xlink">
    <!-- Generator: Sketch 3.6.1 (26313) - http://www.bohemiancoding.com/sketch -->
    <title>office_active_16px</title>
    <desc>Created with Sketch.</desc>
    <defs></defs>
    <g id="Page-1" stroke="none" stroke-width="1" fill="none" fill-rule="evenodd">
        <g id="office_active_16px">
            <rect id="Rectangle-1-Copy-14" fill="#747568" opacity="0" x="0" y="0" width="16" height="16"></rect>
            <g id="Page-1" transform="translate(1.000000, 1.000000)" fill="#FFFFFF">
                <path d="M9,4 L10,4 L10,5 L9,5 L9,4 L9,4 L9,4 L9,4 Z M10,6 L8,6 L8,4 L7.5,4 C6.11928813,4 5,5.11928813 5,6.5 C5,7.88071187 6.11928813,9 7.5,9 C8.88071187,9 10,7.88071187 10,6.5 L10,6 Z M13.2153591,10.9988371 C13.4403672,10.9890217 13.6122,10.9485331 13.7752444,10.8105534 C13.9382888,10.6725737 13.9861325,10.5271567 13.9977308,10.336739 C14.0018475,10.2691525 13.999105,3 13.999105,3 L1.00089497,3 C1.00089497,3 0.998152456,10.2691525 1.00226916,10.336739 C1.01386751,10.5271567 1.06171115,10.6725737 1.22475559,10.8105534 C1.38780002,10.9485331 1.5596328,10.9890217 1.78464092,10.9988371 C1.86450492,11.0023209 13.1354951,11.0023209 13.2153591,10.9988371 Z M2.04007776,2.991976 L13,3 L13,10 C13,9.96815562 2,10 2,10 C2.0389209,10 2.04007776,2.991976 2.04007776,2.991976 Z M8,13.5 C8,13.7761424 7.77614237,14 7.5,14 C7.22385763,14 7,13.7761424 7,13.5 L7,11.1558682 L4.81064651,12.8917891 C4.59426733,13.0633544 4.27977617,13.0270256 4.10821084,12.8106465 C3.93664551,12.5942673 3.97297432,12.2797761 4.18935349,12.1082108 L5.49999997,11.0057389 L9.42020262,11.0057389 L10.8106466,12.1082108 C11.0270258,12.2797761 11.0633546,12.5942673 10.8917892,12.8106464 C10.7202239,13.0270256 10.4057327,13.0633544 10.1893536,12.8917891 L8,11.1558682 L8,13.5 L8,13.5 Z M0,0.998956561 C0,0.447248087 0.448920205,0 1.00748397,0 L13.992516,0 C14.5489341,0 15,0.442660332 15,0.998956561 L15,2.00104344 C15,2.55275191 14.5510798,3 13.992516,3 L1.00748397,3 C0.45106594,3 0,2.55733967 0,2.00104344 L0,0.998956561 Z" id="Rectangle-100"></path>
            </g>
        </g>
    </g>
</svg>