<?xml version="1.0" encoding="UTF-8" standalone="no"?>
<svg width="22px" height="22px" viewBox="0 0 22 22" version="1.1" xmlns="http://www.w3.org/2000/svg" xmlns:xlink="http://www.w3.org/1999/xlink">
    <!-- Generator: Sketch 3.6.1 (26313) - http://www.bohemiancoding.com/sketch -->
    <title>office_normal_22px</title>
    <desc>Created with Sketch.</desc>
    <defs></defs>
    <g id="Page-1" stroke="none" stroke-width="1" fill="none" fill-rule="evenodd">
        <g id="office_normal_22px">
            <rect id="Rectangle-46-Copy-57" fill="#747568" opacity="0" x="0" y="0" width="22" height="22"></rect>
            <g id="Page-1" transform="translate(1.000000, 2.000000)" fill="#FFFFFF" opacity="0.5">
                <path d="M19,2 L18.041,2 L2,2 L1,2 L1,1 L19,1 L19,2 Z M17,13.506 C17,13.782 16.817,14 16.541,14 L3.5,14 C3.224,14 3,13.782 3,13.506 L3,3 L17,3 L17,13.506 Z M19.041,0 L1,0 C0.449,0 0,0.454 0,1.006 L0,2.006 C0,2.558 0.449,3 1,3 L2,3 L2,13.506 C2,14.333 2.673,15 3.5,15 L8.793,15 L6.732,17.064 C6.537,17.259 6.537,17.577 6.732,17.772 C6.83,17.87 6.958,17.919 7.086,17.919 C7.214,17.919 7.342,17.871 7.439,17.773 L10,15.213 L10,19.006 C10,19.283 10.224,19.506 10.5,19.506 C10.776,19.506 11,19.283 11,19.006 L11,15.213 L13.561,17.774 C13.658,17.871 13.786,17.92 13.914,17.92 C14.042,17.92 14.17,17.871 14.268,17.774 C14.463,17.578 14.463,17.259 14.268,17.064 L12.207,15 L16.541,15 C17.368,15 18,14.333 18,13.506 L18,3 L19.041,3 C19.592,3 20,2.558 20,2.006 L20,1.006 C20,0.454 19.592,0 19.041,0 L19.041,0 Z" id="Fill-1"></path>
                <path d="M12,7.0061 L12,5.0851 C13.192,5.2871 13.75,5.8301 13.967,7.0061 L12,7.0061 Z M15.037,7.4571 C14.83,5.2301 13.784,4.2041 11.541,4.0211 L11,3.9791 L11,8.0001 L15.088,8.0001 L15.037,7.4571 Z" id="Fill-4"></path>
                <path d="M9,7.0559 L9,9.9999 L11.95,9.9999 C11.717,10.9999 10.708,12.0029 9.5,12.0029 C8.122,12.0029 7,10.8839 7,9.5049 C7,8.2979 7.86,7.2879 9,7.0559 M9.5,13.0059 C11.43,13.0059 13,11.4359 13,9.5059 L13,8.9999 L10,8.9999 L10,5.9999 L9.5,5.9999 C7.57,5.9999 6,7.5729 6,9.5029 C6,11.4329 7.57,13.0059 9.5,13.0059" id="Fill-6"></path>
            </g>
        </g>
    </g>
</svg>