<?xml version="1.0" encoding="UTF-8" standalone="no"?>
<svg width="22px" height="22px" viewBox="0 0 22 22" version="1.1" xmlns="http://www.w3.org/2000/svg" xmlns:xlink="http://www.w3.org/1999/xlink">
    <!-- Generator: Sketch 3.6.1 (26313) - http://www.bohemiancoding.com/sketch -->
    <title>others_hover_22px</title>
    <desc>Created with Sketch.</desc>
    <defs></defs>
    <g id="Page-1" stroke="none" stroke-width="1" fill="none" fill-rule="evenodd">
        <g id="others_hover_22px">
            <rect id="Rectangle-46-Copy-73" opacity="0" x="0" y="0" width="22" height="22"></rect>
            <g id="Page-1" transform="translate(4.000000, 9.000000)" fill="#FFFFFF" opacity="0.5">
                <path d="M1.5,3 C2.328,3 3,2.328 3,1.5 C3,0.672 2.328,0 1.5,0 C0.672,0 0,0.672 0,1.5 C0,2.328 0.672,3 1.5,3" id="Fill-1"></path>
                <path d="M13.5,3 C14.328,3 15,2.328 15,1.5 C15,0.672 14.328,0 13.5,0 C12.672,0 12,0.672 12,1.5 C12,2.328 12.672,3 13.5,3" id="Fill-5"></path>
                <path d="M7.5,3 C8.328,3 9,2.328 9,1.5 C9,0.672 8.328,0 7.5,0 C6.672,0 6,0.672 6,1.5 C6,2.328 6.672,3 7.5,3" id="Fill-3"></path>
            </g>
            <path d="M11.5,20 C16.7467051,20 21,15.7467051 21,10.5 C21,5.25329488 16.7467051,1 11.5,1 C6.25329488,1 2,5.25329488 2,10.5 C2,15.7467051 6.25329488,20 11.5,20 L11.5,20 Z M11.5,19 C6.80557963,19 3,15.1944204 3,10.5 C3,5.80557963 6.80557963,2 11.5,2 C16.1944204,2 20,5.80557963 20,10.5 C20,15.1944204 16.1944204,19 11.5,19 L11.5,19 Z" id="Oval-11" fill="#FFFFFF" opacity="0.5"></path>
        </g>
    </g>
</svg>