<?xml version="1.0" encoding="UTF-8" standalone="no"?>
<svg width="16px" height="16px" viewBox="0 0 16 16" version="1.1" xmlns="http://www.w3.org/2000/svg" xmlns:xlink="http://www.w3.org/1999/xlink">
    <!-- Generator: Sketch 3.6.1 (26313) - http://www.bohemiancoding.com/sketch -->
    <title>others_normal_16px</title>
    <desc>Created with Sketch.</desc>
    <defs></defs>
    <g id="Page-1" stroke="none" stroke-width="1" fill="none" fill-rule="evenodd">
        <g id="others_normal_16px">
            <rect id="Rectangle-1-Copy-27" opacity="0" x="0" y="0" width="16" height="16"></rect>
            <g id="Group" transform="translate(1.000000, 1.000000)" fill="#FFFFFF" opacity="0.1">
                <circle id="Oval-4" cx="3" cy="7" r="1"></circle>
                <circle id="Oval-4" cx="7" cy="7" r="1"></circle>
                <circle id="Oval-4" cx="11" cy="7" r="1"></circle>
                <path d="M7,14 C10.8659932,14 14,10.8659932 14,7 C14,3.13400675 10.8659932,0 7,0 C3.13400675,0 0,3.13400675 0,7 C0,10.8659932 3.13400675,14 7,14 L7,14 Z M7,13 C3.6862915,13 1,10.3137085 1,7 C1,3.6862915 3.6862915,1 7,1 C10.3137085,1 13,3.6862915 13,7 C13,10.3137085 10.3137085,13 7,13 L7,13 Z" id="Oval-11"></path>
            </g>
        </g>
    </g>
</svg>