<?xml version="1.0" encoding="UTF-8" standalone="no"?>
<svg width="22px" height="22px" viewBox="0 0 22 22" version="1.1" xmlns="http://www.w3.org/2000/svg" xmlns:xlink="http://www.w3.org/1999/xlink">
    <!-- Generator: Sketch 3.6.1 (26313) - http://www.bohemiancoding.com/sketch -->
    <title>others_active_22px</title>
    <desc>Created with Sketch.</desc>
    <defs></defs>
    <g id="Page-1" stroke="none" stroke-width="1" fill="none" fill-rule="evenodd">
        <g id="others_active_22px">
            <rect id="Rectangle-46-Copy-74" fill="#747568" opacity="0" x="0" y="0" width="22" height="22"></rect>
            <path d="M11.5,20 C16.7467051,20 21,15.7467051 21,10.5 C21,5.25329488 16.7467051,1 11.5,1 C6.25329488,1 2,5.25329488 2,10.5 C2,15.7467051 6.25329488,20 11.5,20 Z M5.5,12 C6.328,12 7,11.328 7,10.5 C7,9.672 6.328,9 5.5,9 C4.672,9 4,9.672 4,10.5 C4,11.328 4.672,12 5.5,12 Z M17.5,12 C18.328,12 19,11.328 19,10.5 C19,9.672 18.328,9 17.5,9 C16.672,9 16,9.672 16,10.5 C16,11.328 16.672,12 17.5,12 Z M11.5,12 C12.328,12 13,11.328 13,10.5 C13,9.672 12.328,9 11.5,9 C10.672,9 10,9.672 10,10.5 C10,11.328 10.672,12 11.5,12 Z" id="Combined-Shape" fill="#FFFFFF"></path>
        </g>
    </g>
</svg>