<?xml version="1.0" encoding="UTF-8" standalone="no"?>
<svg width="16px" height="16px" viewBox="0 0 16 16" version="1.1" xmlns="http://www.w3.org/2000/svg" xmlns:xlink="http://www.w3.org/1999/xlink">
    <!-- Generator: Sketch 3.6.1 (26313) - http://www.bohemiancoding.com/sketch -->
    <title>others_hover_16px</title>
    <desc>Created with Sketch.</desc>
    <defs></defs>
    <g id="Page-1" stroke="none" stroke-width="1" fill="none" fill-rule="evenodd">
        <g id="others_hover_16px">
            <rect id="Rectangle-1-Copy-28" fill="#747568" opacity="0" x="0" y="0" width="16" height="16"></rect>
            <g id="Group" transform="translate(3.000000, 7.000000)" fill="#FFFFFF" opacity="0.8">
                <circle id="Oval-4" cx="1" cy="1" r="1"></circle>
                <circle id="Oval-4" cx="5" cy="1" r="1"></circle>
                <circle id="Oval-4" cx="9" cy="1" r="1"></circle>
            </g>
            <path d="M8,15 C11.8659932,15 15,11.8659932 15,8 C15,4.13400675 11.8659932,1 8,1 C4.13400675,1 1,4.13400675 1,8 C1,11.8659932 4.13400675,15 8,15 L8,15 Z M8,14 C4.6862915,14 2,11.3137085 2,8 C2,4.6862915 4.6862915,2 8,2 C11.3137085,2 14,4.6862915 14,8 C14,11.3137085 11.3137085,14 8,14 L8,14 Z" id="Oval-11" fill="#FFFFFF" opacity="0.8"></path>
        </g>
    </g>
</svg>