<?xml version="1.0" encoding="UTF-8" standalone="no"?>
<svg width="16px" height="16px" viewBox="0 0 16 16" version="1.1" xmlns="http://www.w3.org/2000/svg" xmlns:xlink="http://www.w3.org/1999/xlink">
    <!-- Generator: Sketch 3.6.1 (26313) - http://www.bohemiancoding.com/sketch -->
    <title>reading_normal_16px</title>
    <desc>Created with Sketch.</desc>
    <defs></defs>
    <g id="Page-1" stroke="none" stroke-width="1" fill="none" fill-rule="evenodd">
        <g id="reading_normal_16px">
            <rect id="Rectangle-1-Copy-21" opacity="0" x="0" y="0" width="16" height="16"></rect>
            <g id="Group-5" transform="translate(1.000000, 2.000000)" fill="#FFFFFF" opacity="0.1">
                <path d="M3.00756836,9 C3.00100104,9 3,1.00966585 3,1.00966585 C3,1.00145006 7,1 7,1 L7,0 L3.00756836,0 C2.44673701,0 2,0.451549724 2,1.00966585 L2,8.99033415 C2,9.55210556 2.44953119,10 3.00756836,10 L7,10 L7,9 L3.00756836,9 L3.00756836,9 Z M7.5,1 L12.0023012,1 C12.0011665,1 12,0.998814681 12,1.00966585 L12,8.99033415 C12,9.00235717 12.0022763,9 12.0023012,9 L7.5,9 L8,9.5 L8,0.5 L7.5,1 L7.5,1 L7.5,1 Z M7.5,0 L7,0 L7,0.5 L7,9.5 L7,10 L7.5,10 L12.0023012,10 C12.5625216,10 13,9.54698296 13,8.99033415 L13,1.00966585 C13,0.450077155 12.5570618,0 12.0023012,0 L7.5,0 L7.5,0 Z M0,2.49999998 L0,11.469 C0,11.7439325 0.221972794,11.9672858 0.496900046,11.9689904 L5.49690005,11.9999905 L5,11.5000001 L5,12.5000001 C5,12.7761425 5.22385763,13.0000001 5.5,13.0000001 L9.5,13.0000001 C9.77614237,13.0000001 10,12.7761425 10,12.5000001 L10,11.4690001 L9.50000004,11.9690001 L14.5,11.9689997 C14.7761424,11.9689997 15,11.7451421 15,11.4689997 L15,2.49999986 C15,2.22385749 14.7761424,1.99999986 14.5,1.99999986 C14.2238576,1.99999986 14,2.22385749 14,2.49999986 L14,11.4689997 L14.5,10.9689997 L9.49999996,10.9690001 C9.2238576,10.9690001 9,11.1928577 9,11.4690001 L9,12.5000001 L9.5,12.0000001 L5.5,12.0000001 L6,12.5000001 L6,11.5000001 C6,11.2250676 5.77802721,11.0017143 5.50309995,11.0000097 L0.503099954,10.9690096 L1,11.469 L1,2.49999998 C1,2.22385761 0.776142375,1.99999998 0.5,1.99999998 C0.223857625,1.99999998 0,2.22385761 0,2.49999998 L0,2.49999998 Z" id="Rectangle-99"></path>
            </g>
        </g>
    </g>
</svg>