<?xml version="1.0" encoding="UTF-8" standalone="no"?>
<svg width="22px" height="22px" viewBox="0 0 22 22" version="1.1" xmlns="http://www.w3.org/2000/svg" xmlns:xlink="http://www.w3.org/1999/xlink">
    <!-- Generator: Sketch 3.6.1 (26313) - http://www.bohemiancoding.com/sketch -->
    <title>sort_normal_22px</title>
    <desc>Created with Sketch.</desc>
    <defs></defs>
    <g id="Page-1" stroke="none" stroke-width="1" fill="none" fill-rule="evenodd">
        <g id="sort_normal_22px">
            <rect id="Rectangle-46-Copy-84" opacity="0" x="0" y="0" width="22" height="22"></rect>
            <path d="M12,8.25 L12,10 L13.75,10 L17.25,10 L19,10 L19,8.25 L19,4.75 L19,3 L17.25,3 L13.75,3 L12,3 L12,4.75 L12,8.25 Z M13,9 L18,9 L18,4 L13,4 L13,9 Z M3,8.25 L3,10 L4.75,10 L8.25,10 L10,10 L10,8.25 L10,4.75 L10,3 L8.25,3 L4.75,3 L3,3 L3,4.75 L3,8.25 Z M4,9 L9,9 L9,4 L4,4 L4,9 Z M12,17.25 L12,19 L13.75,19 L17.25,19 L19,19 L19,17.25 L19,13.75 L19,12 L17.25,12 L13.75,12 L12,12 L12,13.75 L12,17.25 Z M13,18 L18,18 L18,13 L13,13 L13,18 Z M3,17.25 L3,19 L4.75,19 L8.25,19 L10,19 L10,17.25 L10,13.75 L10,12 L8.25,12 L4.75,12 L3,12 L3,13.75 L3,17.25 Z M4,18 L9,18 L9,13 L4,13 L4,18 Z" id="图标视图-2" fill="#FFFFFF" opacity="0.1"></path>
        </g>
    </g>
</svg>