<?xml version="1.0" encoding="UTF-8" standalone="no"?>
<svg width="16px" height="16px" viewBox="0 0 16 16" version="1.1" xmlns="http://www.w3.org/2000/svg" xmlns:xlink="http://www.w3.org/1999/xlink">
    <!-- Generator: Sketch 3.6.1 (26313) - http://www.bohemiancoding.com/sketch -->
    <title>sort_hover_16px</title>
    <desc>Created with Sketch.</desc>
    <defs></defs>
    <g id="Page-1" stroke="none" stroke-width="1" fill="none" fill-rule="evenodd">
        <g id="sort_hover_16px">
            <rect id="Rectangle-1-Copy-40" fill="#747568" opacity="0" x="0" y="0" width="16" height="16"></rect>
            <path d="M9,12.75 L9,14 L10.25,14 L12.75,14 L14,14 L14,12.75 L14,10.25 L14,9 L12.75,9 L10.25,9 L9,9 L9,10.25 L9,12.75 Z M10,13 L13,13 L13,10 L10,10 L10,13 Z M2,12.75 L2,14 L3.25,14 L5.75,14 L7,14 L7,12.75 L7,10.25 L7,9 L5.75,9 L3.25,9 L2,9 L2,10.25 L2,12.75 Z M3,13 L6,13 L6,10 L3,10 L3,13 Z M9,5.75 L9,7 L10.25,7 L12.75,7 L14,7 L14,5.75 L14,3.25 L14,2 L12.75,2 L10.25,2 L9,2 L9,3.25 L9,5.75 Z M10,6 L13,6 L13,3 L10,3 L10,6 Z M2,5.75 L2,7 L3.25,7 L5.75,7 L7,7 L7,5.75 L7,3.25 L7,2 L5.75,2 L3.25,2 L2,2 L2,3.25 L2,5.75 Z M3,6 L6,6 L6,3 L3,3 L3,6 Z" id="图标视图-2" fill="#FFFFFF" opacity="0.8"></path>
        </g>
    </g>
</svg>