<?xml version="1.0" encoding="UTF-8" standalone="no"?>
<svg width="16px" height="16px" viewBox="0 0 16 16" version="1.1" xmlns="http://www.w3.org/2000/svg" xmlns:xlink="http://www.w3.org/1999/xlink">
    <!-- Generator: Sketch 3.6.1 (26313) - http://www.bohemiancoding.com/sketch -->
    <title>system_hover_16px</title>
    <desc>Created with Sketch.</desc>
    <defs></defs>
    <g id="Page-1" stroke="none" stroke-width="1" fill="none" fill-rule="evenodd">
        <g id="system_hover_16px">
            <rect id="Rectangle-1-Copy-25" fill="#747568" opacity="0" x="0" y="0" width="16" height="16"></rect>
            <g id="Page-1" transform="translate(1.000000, 1.000000)" fill="#FFFFFF" opacity="0.8">
                <path d="M1.1,13 C1.04514237,13 1,12.9548576 1,12.9 L1,1.1 C1,1.04514237 1.04514237,1 1.1,1 L12.9,1 C12.9548576,1 13,1.04514237 13,1.1 L13,12.9 C13,12.9548576 12.9548576,13 12.9,13 L1.1,13 L1.1,13 Z M1.1,14 L12.9,14 C13.5071424,14 14,13.5071424 14,12.9 L14,1.1 C14,0.492857625 13.5071424,0 12.9,0 L1.1,0 C0.492857625,0 0,0.492857625 0,1.1 L0,12.9 C0,13.5071424 0.492857625,14 1.1,14 L1.1,14 Z" id="Stroke-1"></path>
                <path d="M1,5 L13,5 L13,4 L1,4 L1,5 L1,5 Z" id="Stroke-3"></path>
                <path d="M7.016,3 L8.016,3 L8.016,2 L7.016,2 L7.016,3 Z" id="Fill-5"></path>
                <path d="M9.001,3 L10.001,3 L10.001,2 L9.001,2 L9.001,3 Z" id="Fill-7"></path>
                <path d="M11.001,3 L12.001,3 L12.001,2 L11.001,2 L11.001,3 Z" id="Fill-8"></path>
                <path d="M10,9.336875 L10,8.663125 C10,8.45129849 9.86652054,8.2624591 9.66683362,8.19177954 L9.30308362,8.06302954 C9.29906668,8.06157341 9.29440929,8.05713913 9.29216323,8.05169867 C9.28920088,8.04459212 9.28935543,8.03809399 9.29178251,8.03297551 L9.45759051,7.68515516 C9.54871238,7.49400476 9.50953927,7.26618249 9.35980339,7.11644661 L8.88355339,6.64019661 C8.73400708,6.4906503 8.50654579,6.45136812 8.31550461,6.54209556 L7.96675461,6.70772056 C7.96086823,6.71053651 7.9551211,6.71067941 7.95010823,6.70858688 C7.94296606,6.70563414 7.93872745,6.70117559 7.93625674,6.6942885 L7.80813009,6.33291128 C7.73737564,6.13335625 7.54860219,6 7.336875,6 L6.663125,6 C6.45139781,6 6.26262436,6.13335625 6.19186991,6.33291128 L6.06311991,6.69603628 C6.06127255,6.70117559 6.05703394,6.70563414 6.05169867,6.70783677 C6.0448789,6.71067941 6.03913177,6.71053651 6.03470247,6.70841543 L5.68449539,6.54209556 C5.49345421,6.45136812 5.26599292,6.4906503 5.11644661,6.64019661 L4.64019661,7.11644661 C4.49046073,7.26618249 4.45128762,7.49400476 4.54240949,7.68515516 L4.70865949,8.03390516 C4.71064457,8.03809399 4.71079912,8.04459212 4.70858688,8.04989177 C4.70559071,8.05713913 4.70093332,8.06157341 4.69424021,8.06398534 L4.33316638,8.19177954 C4.13347946,8.2624591 4,8.45129849 4,8.663125 L4,9.336875 C4,9.54870151 4.13347946,9.7375409 4.33316638,9.80822046 L4.69691638,9.93697046 C4.70093332,9.93842659 4.70559071,9.94286087 4.70783677,9.94830133 C4.71085013,9.95553008 4.71070183,9.96175874 4.70783036,9.96784283 L4.54240949,10.3148448 C4.45128762,10.5059952 4.49046073,10.7338175 4.64019661,10.8835534 L5.11644661,11.3598034 C5.26599292,11.5093497 5.49345421,11.5486319 5.68449539,11.4579044 L6.03324539,11.2922794 C6.03913177,11.2894635 6.0448789,11.2893206 6.04989177,11.2914131 C6.05683784,11.2942849 6.06072957,11.2983789 6.06268732,11.3038804 L6.19203469,11.6675527 C6.26292509,11.8668678 6.45157849,12 6.663125,12 L7.336875,12 C7.54858423,12 7.73734575,11.866666 7.80811373,11.6671348 L7.93623873,11.3058848 C7.93851082,11.2995266 7.94438599,11.2933403 7.95227807,11.2900399 C7.95567196,11.2886263 7.96006605,11.2887366 7.96432556,11.2907659 L8.31512693,11.4577249 C8.5062307,11.548678 8.73389858,11.5094582 8.88355339,11.3598034 L9.35980339,10.8835534 C9.50953927,10.7338175 9.54871238,10.5059952 9.45759051,10.3148448 L9.29134051,9.96609484 C9.28929817,9.96175874 9.28914987,9.95553008 9.29141312,9.95010823 C9.29436586,9.94296606 9.29882441,9.93872745 9.3057115,9.93625674 L9.66708872,9.80813009 C9.86664375,9.73737564 10,9.54860219 10,9.336875 L10,9.336875 Z M9,9.336875 L9.5,9.336875 L9.33291128,8.86561991 L8.96978628,8.99436991 C8.69594358,9.09260578 8.47804081,9.29975999 8.36783677,9.56669867 C8.2571846,9.83176757 8.2643578,10.133042 8.38783036,10.3946572 L8.55490949,10.7451552 L9.00625,10.53 L8.65269661,10.1764466 L8.17644661,10.6526966 L8.53,11.00625 L8.74487307,10.5547751 L8.39424807,10.3879001 C8.13385932,10.263847 7.8332572,10.2562991 7.56706731,10.3672115 C7.2993088,10.4791828 7.09146912,10.6980296 6.99412904,10.9705818 L6.86563627,11.3328652 L7.336875,11.5 L7.336875,11 L6.663125,11 L6.663125,11.5 L7.13421531,11.3324473 L7.00484031,10.9686973 C6.90794317,10.696404 6.70044964,10.4781274 6.43330133,10.3678368 C6.16742098,10.2568459 5.86442327,10.2643799 5.60279753,10.3896654 L5.25550461,10.5545956 L5.47,11.00625 L5.82355339,10.6526966 L5.34730339,10.1764466 L4.99375,10.53 L5.44509051,10.7451552 L5.61134051,10.3964052 C5.7356422,10.133042 5.7428154,9.83176757 5.63141312,9.56489177 C5.5221104,9.30012627 5.30456633,9.09300346 5.03325979,8.99523534 L4.66683362,8.86552954 L4.5,9.336875 L5,9.336875 L5,8.663125 L4.5,8.663125 L4.66683362,9.13447046 L5.03058362,9.00572046 C5.30456633,8.90699654 5.5221104,8.69987373 5.63216323,8.43330133 C5.74287673,8.16808553 5.73568795,7.86583003 5.61178251,7.60452449 L5.44509051,7.25484484 L4.99375,7.47 L5.34730339,7.82355339 L5.82355339,7.34730339 L5.47,6.99375 L5.25550461,7.44540444 L5.60425461,7.61102944 C5.86442327,7.73562013 6.16742098,7.74315413 6.43510823,7.63141312 C6.70024001,7.52195919 6.90739422,7.30405642 7.00500674,7.0319615 L7.13438009,6.66708872 L6.663125,6.5 L6.663125,7 L7.336875,7 L7.336875,6.5 L6.86561991,6.66708872 L6.99436991,7.03021372 C7.09260578,7.30405642 7.29975999,7.52195919 7.56669867,7.63216323 C7.83257902,7.74315413 8.13557673,7.73562013 8.39720247,7.61033457 L8.74449539,7.44540444 L8.53,6.99375 L8.17644661,7.34730339 L8.65269661,7.82355339 L9.00625,7.47 L8.55490949,7.25484484 L8.38865949,7.60359484 C8.26431205,7.86583003 8.25712327,8.16808553 8.36858688,8.43510823 C8.4778896,8.69987373 8.69543367,8.90699654 8.96674021,9.00476466 L9.33316638,9.13447046 L9.5,8.663125 L9,8.663125 L9,9.336875 L9,9.336875 Z" id="Stroke-9"></path>
                <path d="M7,8 C6.44866667,8 6,8.44866667 6,9 C6,9.55133333 6.44866667,10 7,10 C7.55133333,10 8,9.55133333 8,9 C8,8.44866667 7.55133333,8 7,8" id="Fill-10"></path>
            </g>
        </g>
    </g>
</svg>