<?xml version="1.0" encoding="UTF-8" standalone="no"?>
<svg width="16px" height="16px" viewBox="0 0 16 16" version="1.1" xmlns="http://www.w3.org/2000/svg" xmlns:xlink="http://www.w3.org/1999/xlink">
    <!-- Generator: Sketch 3.6.1 (26313) - http://www.bohemiancoding.com/sketch -->
    <title>system_active_16px</title>
    <desc>Created with Sketch.</desc>
    <defs></defs>
    <g id="Page-1" stroke="none" stroke-width="1" fill="none" fill-rule="evenodd">
        <g id="system_active_16px">
            <rect id="Rectangle-1-Copy-26" fill="#747568" opacity="0" x="0" y="0" width="16" height="16"></rect>
            <g id="Page-1" transform="translate(1.000000, 1.000000)" fill="#FFFFFF">
                <path d="M1.1,13 C1.04514237,13 1,12.9548576 1,12.9 L1,1.1 C1,1.04514237 1.04514237,1 1.1,1 L12.9,1 C12.9548576,1 13,1.04514237 13,1.1 L13,12.9 C13,12.9548576 12.9548576,13 12.9,13 L1.1,13 L1.1,13 Z M1.1,14 L12.9,14 C13.5071424,14 14,13.5071424 14,12.9 L14,1.1 C14,0.492857625 13.5071424,0 12.9,0 L1.1,0 C0.492857625,0 0,0.492857625 0,1.1 L0,12.9 C0,13.5071424 0.492857625,14 1.1,14 L1.1,14 Z" id="Stroke-1"></path>
                <path d="M1,5 L13,5 L13,4 L1,4 L1,5 L1,5 Z" id="Stroke-3"></path>
                <path d="M1,1 L13,1 L13,4 L1,4 L1,1 Z M7.016,3 L8.016,3 L8.016,2 L7.016,2 L7.016,3 Z M9.001,3 L10.001,3 L10.001,2 L9.001,2 L9.001,3 Z M11.001,3 L12.001,3 L12.001,2 L11.001,2 L11.001,3 Z" id="Combined-Shape"></path>
                <path d="M10,9.336875 L10,8.663125 C10,8.45129849 9.86652054,8.2624591 9.66683362,8.19177954 L9.30308362,8.06302954 C9.29906668,8.06157341 9.29440929,8.05713913 9.29216323,8.05169867 C9.28920088,8.04459212 9.28935543,8.03809399 9.29178251,8.03297551 L9.45759051,7.68515516 C9.54871238,7.49400476 9.50953927,7.26618249 9.35980339,7.11644661 L8.88355339,6.64019661 C8.73400708,6.4906503 8.50654579,6.45136812 8.31550461,6.54209556 L7.96675461,6.70772056 C7.96086823,6.71053651 7.9551211,6.71067941 7.95010823,6.70858688 C7.94296606,6.70563414 7.93872745,6.70117559 7.93625674,6.6942885 L7.80813009,6.33291128 C7.73737564,6.13335625 7.54860219,6 7.336875,6 L6.663125,6 C6.45139781,6 6.26262436,6.13335625 6.19186991,6.33291128 L6.06311991,6.69603628 C6.06127255,6.70117559 6.05703394,6.70563414 6.05169867,6.70783677 C6.0448789,6.71067941 6.03913177,6.71053651 6.03470247,6.70841543 L5.68449539,6.54209556 C5.49345421,6.45136812 5.26599292,6.4906503 5.11644661,6.64019661 L4.64019661,7.11644661 C4.49046073,7.26618249 4.45128762,7.49400476 4.54240949,7.68515516 L4.70865949,8.03390516 C4.71064457,8.03809399 4.71079912,8.04459212 4.70858688,8.04989177 C4.70559071,8.05713913 4.70093332,8.06157341 4.69424021,8.06398534 L4.33316638,8.19177954 C4.13347946,8.2624591 4,8.45129849 4,8.663125 L4,9.336875 C4,9.54870151 4.13347946,9.7375409 4.33316638,9.80822046 L4.69691638,9.93697046 C4.70093332,9.93842659 4.70559071,9.94286087 4.70783677,9.94830133 C4.71085013,9.95553008 4.71070183,9.96175874 4.70783036,9.96784283 L4.54240949,10.3148448 C4.45128762,10.5059952 4.49046073,10.7338175 4.64019661,10.8835534 L5.11644661,11.3598034 C5.26599292,11.5093497 5.49345421,11.5486319 5.68449539,11.4579044 L6.03324539,11.2922794 C6.03913177,11.2894635 6.0448789,11.2893206 6.04989177,11.2914131 C6.05683784,11.2942849 6.06072957,11.2983789 6.06268732,11.3038804 L6.19203469,11.6675527 C6.26292509,11.8668678 6.45157849,12 6.663125,12 L7.336875,12 C7.54858423,12 7.73734575,11.866666 7.80811373,11.6671348 L7.93623873,11.3058848 C7.93851082,11.2995266 7.94438599,11.2933403 7.95227807,11.2900399 C7.95567196,11.2886263 7.96006605,11.2887366 7.96432556,11.2907659 L8.31512693,11.4577249 C8.5062307,11.548678 8.73389858,11.5094582 8.88355339,11.3598034 L9.35980339,10.8835534 C9.50953927,10.7338175 9.54871238,10.5059952 9.45759051,10.3148448 L9.29134051,9.96609484 C9.28929817,9.96175874 9.28914987,9.95553008 9.29141312,9.95010823 C9.29436586,9.94296606 9.29882441,9.93872745 9.3057115,9.93625674 L9.66708872,9.80813009 C9.86664375,9.73737564 10,9.54860219 10,9.336875 Z M7,8 C6.44866667,8 6,8.44866667 6,9 C6,9.55133333 6.44866667,10 7,10 C7.55133333,10 8,9.55133333 8,9 C8,8.44866667 7.55133333,8 7,8 Z" id="Combined-Shape"></path>
            </g>
        </g>
    </g>
</svg>