<?xml version="1.0" encoding="UTF-8" standalone="no"?>
<svg width="22px" height="22px" viewBox="0 0 22 22" version="1.1" xmlns="http://www.w3.org/2000/svg" xmlns:xlink="http://www.w3.org/1999/xlink">
    <!-- Generator: Sketch 3.6.1 (26313) - http://www.bohemiancoding.com/sketch -->
    <title>system_active_22px</title>
    <desc>Created with Sketch.</desc>
    <defs></defs>
    <g id="Page-1" stroke="none" stroke-width="1" fill="none" fill-rule="evenodd">
        <g id="system_active_22px">
            <rect id="Rectangle-46-Copy-71" opacity="0" x="0" y="0" width="22" height="22"></rect>
            <g id="Page-1" transform="translate(2.000000, 2.000000)" fill="#FFFFFF">
                <path d="M9,12.52 C7.896,12.52 7,11.624 7,10.52 C7,9.416 7.896,8.52 9,8.52 C10.104,8.52 11,9.416 11,10.52 C11,11.624 10.104,12.52 9,12.52 L9,12.52 Z M12.845,9.681 C12.596,9.592 12.395,9.402 12.294,9.156 C12.191,8.911 12.199,8.634 12.312,8.393 L12.611,7.765 L11.754,6.907 L11.127,7.205 C10.887,7.319 10.609,7.324 10.363,7.221 C10.118,7.12 9.928,6.914 9.839,6.664 L9.606,6 L8.394,6 L8.161,6.664 C8.072,6.914 7.882,7.125 7.637,7.226 C7.391,7.329 7.113,7.321 6.873,7.207 L6.246,6.909 L5.389,7.766 L5.688,8.393 C5.801,8.633 5.809,8.912 5.706,9.157 C5.605,9.402 5.405,9.592 5.155,9.681 L4.5,9.913 L4.5,11.126 L5.155,11.359 C5.405,11.448 5.605,11.638 5.706,11.883 C5.809,12.128 5.801,12.406 5.688,12.646 L5.389,13.274 L6.246,14.13 L6.873,13.83 C7.113,13.716 7.391,13.706 7.637,13.808 C7.882,13.91 8.072,14.105 8.161,14.355 L8.394,15 L9.606,15 L9.837,14.36 C9.927,14.108 10.119,13.915 10.367,13.812 C10.61,13.711 10.884,13.717 11.123,13.831 L11.754,14.131 L12.611,13.274 L12.312,12.646 C12.199,12.406 12.191,12.129 12.294,11.883 C12.395,11.638 12.596,11.448 12.846,11.359 L13.5,11.126 L13.5,9.913 L12.845,9.681 L12.845,9.681 Z" id="Fill-1"></path>
                <path d="M1,16 L17,16 L17,5 L1,5 L1,16 Z M11,3 L12,3 L12,2 L11,2 L11,3 Z M13,3 L14,3 L14,2 L13,2 L13,3 Z M15,3 L16,3 L16,2 L15,2 L15,3 Z M18,1 C18,0.448 17.552,0 17,0 L1,0 C0.448,0 0,0.448 0,1 L0,16 C0,16.552 0.448,17 1,17 L17,17 C17.552,17 18,16.552 18,16 L18,1 Z" id="Fill-3"></path>
            </g>
        </g>
    </g>
</svg>