<?xml version="1.0" encoding="UTF-8" standalone="no"?>
<svg width="22px" height="22px" viewBox="0 0 22 22" version="1.1" xmlns="http://www.w3.org/2000/svg" xmlns:xlink="http://www.w3.org/1999/xlink">
    <!-- Generator: Sketch 3.6.1 (26313) - http://www.bohemiancoding.com/sketch -->
    <title>system_hover_22px</title>
    <desc>Created with Sketch.</desc>
    <defs></defs>
    <g id="Page-1" stroke="none" stroke-width="1" fill="none" fill-rule="evenodd">
        <g id="system_hover_22px">
            <rect id="Rectangle-46-Copy-70" fill="#747568" opacity="0" x="0" y="0" width="22" height="22"></rect>
            <g id="Page-1" transform="translate(2.000000, 2.000000)" fill="#FFFFFF" opacity="0.8">
                <path d="M17,5 L17,15.551 C17,15.827 16.776,16.051 16.5,16.051 L1.5,16.051 C1.225,16.051 1,15.826 1,15.551 L1,5 L17,5 Z M1,1.5 C1,1.224 1.224,1 1.5,1 L16.5,1 C16.775,1 17,1.225 17,1.5 L17,4 L1,4 L1,1.5 Z M0,15.551 C0,16.379 0.672,17.051 1.5,17.051 L16.5,17.051 C17.328,17.051 18,16.379 18,15.551 L18,5 L18,4 L18,1.5 C18,0.672 17.328,0 16.5,0 L1.5,0 C0.672,0 0,0.672 0,1.5 L0,4 L0,5 L0,15.551 Z" id="Fill-1"></path>
                <path d="M11.016,2.9999 L12.016,2.9999 L12.016,1.9999 L11.016,1.9999 L11.016,2.9999 Z" id="Fill-4"></path>
                <path d="M13.001,2.9999 L14.001,2.9999 L14.001,1.9999 L13.001,1.9999 L13.001,2.9999 Z" id="Fill-6"></path>
                <path d="M15.001,2.9999 L16.001,2.9999 L16.001,1.9999 L15.001,1.9999 L15.001,2.9999 Z" id="Fill-8"></path>
                <path d="M9,12.0166 C9.827,12.0166 10.5,11.3436 10.5,10.5166 C10.5,9.6896 9.827,9.0166 9,9.0166 C8.173,9.0166 7.5,9.6896 7.5,10.5166 C7.5,11.3436 8.173,12.0166 9,12.0166" id="Fill-10"></path>
                <path d="M8.814,14.0166 L9.186,14.0166 L9.273,13.7726 C9.4,13.4136 9.673,13.1256 10.024,12.9816 C10.365,12.8386 10.767,12.8486 11.103,13.0086 L11.344,13.1236 L11.606,12.8616 L11.493,12.6206 C11.331,12.2786 11.321,11.8836 11.466,11.5366 C11.61,11.1896 11.897,10.9176 12.251,10.7916 L12.5,10.7036 L12.5,10.3306 L12.251,10.2436 C11.895,10.1146 11.609,9.8426 11.466,9.4956 C11.321,9.1506 11.331,8.7546 11.491,8.4126 L11.606,8.1716 L11.344,7.9106 L11.106,8.0236 C10.768,8.1846 10.364,8.1936 10.02,8.0506 C9.675,7.9086 9.402,7.6226 9.274,7.2666 L9.186,7.0166 L8.814,7.0166 L8.726,7.2646 C8.598,7.6226 8.325,7.9086 7.979,8.0506 C7.636,8.1936 7.232,8.1846 6.895,8.0236 L6.656,7.9106 L6.394,8.1716 L6.507,8.4116 C6.669,8.7536 6.679,9.1496 6.534,9.4966 C6.391,9.8426 6.105,10.1146 5.751,10.2426 L5.5,10.3306 L5.5,10.7036 L5.75,10.7916 C6.104,10.9176 6.39,11.1896 6.534,11.5376 C6.679,11.8836 6.669,12.2796 6.508,12.6206 L6.394,12.8616 L6.656,13.1226 L6.894,13.0096 C7.235,12.8476 7.637,12.8396 7.981,12.9826 C8.326,13.1246 8.598,13.4116 8.725,13.7666 L8.814,14.0166 Z M9.539,15.0166 L8.461,15.0166 C8.25,15.0166 8.061,14.8836 7.99,14.6846 L7.783,14.1026 C7.751,14.0136 7.684,13.9426 7.598,13.9066 C7.509,13.8696 7.408,13.8726 7.323,13.9126 L6.768,14.1776 C6.577,14.2696 6.35,14.2296 6.199,14.0796 L5.437,13.3186 C5.287,13.1686 5.248,12.9416 5.339,12.7496 L5.605,12.1926 C5.645,12.1076 5.647,12.0076 5.611,11.9206 C5.574,11.8326 5.503,11.7656 5.415,11.7336 L4.833,11.5266 C4.633,11.4556 4.5,11.2676 4.5,11.0556 L4.5,9.9776 C4.5,9.7656 4.633,9.5776 4.833,9.5056 L5.415,9.2996 C5.502,9.2686 5.574,9.2006 5.61,9.1136 C5.647,9.0256 5.645,8.9256 5.604,8.8396 L5.339,8.2836 C5.248,8.0916 5.287,7.8646 5.437,7.7146 L6.199,6.9536 C6.35,6.8036 6.577,6.7636 6.768,6.8556 L7.325,7.1206 C7.408,7.1606 7.509,7.1636 7.596,7.1266 C7.684,7.0906 7.752,7.0186 7.784,6.9286 L7.99,6.3496 C8.061,6.1506 8.249,6.0166 8.461,6.0166 L9.539,6.0166 C9.751,6.0166 9.939,6.1506 10.01,6.3496 L10.216,6.9306 C10.248,7.0186 10.316,7.0906 10.402,7.1266 C10.492,7.1636 10.591,7.1606 10.676,7.1206 L11.232,6.8556 C11.422,6.7636 11.65,6.8036 11.801,6.9536 L12.564,7.7146 C12.713,7.8646 12.752,8.0926 12.661,8.2846 L12.395,8.8416 C12.356,8.9256 12.353,9.0256 12.389,9.1126 C12.426,9.2006 12.498,9.2686 12.587,9.3006 L13.167,9.5056 C13.367,9.5776 13.5,9.7656 13.5,9.9776 L13.5,11.0556 C13.5,11.2676 13.367,11.4556 13.168,11.5266 L12.586,11.7336 C12.497,11.7656 12.426,11.8326 12.39,11.9196 C12.353,12.0076 12.356,12.1066 12.396,12.1926 L12.661,12.7496 C12.752,12.9416 12.713,13.1686 12.564,13.3186 L11.801,14.0796 C11.651,14.2296 11.424,14.2696 11.233,14.1776 L10.672,13.9116 C10.587,13.8716 10.494,13.8686 10.409,13.9046 C10.317,13.9426 10.248,14.0156 10.215,14.1066 L10.01,14.6836 C9.939,14.8836 9.751,15.0166 9.539,15.0166 L9.539,15.0166 Z" id="Fill-12"></path>
            </g>
        </g>
    </g>
</svg>