<?xml version="1.0" encoding="UTF-8" standalone="no"?>
<svg width="22px" height="22px" viewBox="0 0 22 22" version="1.1" xmlns="http://www.w3.org/2000/svg" xmlns:xlink="http://www.w3.org/1999/xlink">
    <!-- Generator: Sketch 3.6.1 (26313) - http://www.bohemiancoding.com/sketch -->
    <title>utilities_active_22px</title>
    <desc>Created with Sketch.</desc>
    <defs>
        <path id="path-1" d="M0,18.5 L17,18.5 L17,0 L0,0 L0,18.5 Z"></path>
    </defs>
    <g id="Page-1" stroke="none" stroke-width="1" fill="none" fill-rule="evenodd">
        <g id="utilities_active_22px">
            <rect id="Rectangle-46-Copy-80" fill="#747568" opacity="0" x="0" y="0" width="22" height="22"></rect>
            <g id="Page-1" transform="translate(3.000000, 1.500000)">
                <path d="M4.5,3.5 C4.224,3.5 4,3.276 4,3 L4,0.5 C4,0.224 4.224,0 4.5,0 C4.776,0 5,0.224 5,0.5 L5,3 C5,3.276 4.776,3.5 4.5,3.5 L4.5,3.5 Z" id="Fill-1" fill="#FFFFFF"></path>
                <path d="M12.5,3.5 C12.224,3.5 12,3.276 12,3 L12,0.5 C12,0.224 12.224,0 12.5,0 C12.776,0 13,0.224 13,0.5 L13,3 C13,3.276 12.776,3.5 12.5,3.5" id="Fill-3" fill="#FFFFFF"></path>
                <path d="M4.5,7.5 L2.5,7.5 C2.224,7.5 2,7.724 2,8 L2,10 C2,10.276 2.224,10.5 2.5,10.5 L4.5,10.5 C4.776,10.5 5,10.276 5,10 L5,8 C5,7.724 4.776,7.5 4.5,7.5" id="Fill-5" fill="#FFFFFF"></path>
                <path d="M9.5,7.5 L7.5,7.5 C7.224,7.5 7,7.724 7,8 L7,10 C7,10.276 7.224,10.5 7.5,10.5 L9.5,10.5 C9.776,10.5 10,10.276 10,10 L10,8 C10,7.724 9.776,7.5 9.5,7.5" id="Fill-7" fill="#FFFFFF"></path>
                <path d="M14.5,7.5 L12.5,7.5 C12.224,7.5 12,7.724 12,8 L12,10 C12,10.276 12.224,10.5 12.5,10.5 L14.5,10.5 C14.776,10.5 15,10.276 15,10 L15,8 C15,7.724 14.776,7.5 14.5,7.5" id="Fill-9" fill="#FFFFFF"></path>
                <path d="M4.5,12.5 L2.5,12.5 C2.224,12.5 2,12.724 2,13 L2,15 C2,15.276 2.224,15.5 2.5,15.5 L4.5,15.5 C4.776,15.5 5,15.276 5,15 L5,13 C5,12.724 4.776,12.5 4.5,12.5" id="Fill-11" fill="#FFFFFF"></path>
                <path d="M9.5,12.5 L7.5,12.5 C7.224,12.5 7,12.724 7,13 L7,15 C7,15.276 7.224,15.5 7.5,15.5 L9.5,15.5 C9.776,15.5 10,15.276 10,15 L10,13 C10,12.724 9.776,12.5 9.5,12.5" id="Fill-13" fill="#FFFFFF"></path>
                <path d="M14.5,12.5 L12.5,12.5 C12.224,12.5 12,12.724 12,13 L12,15 C12,15.276 12.224,15.5 12.5,15.5 L14.5,15.5 C14.776,15.5 15,15.276 15,15 L15,13 C15,12.724 14.776,12.5 14.5,12.5" id="Fill-15" fill="#FFFFFF"></path>
                <mask id="mask-2" fill="white">
                    <use xlink:href="#path-1"></use>
                </mask>
                <g id="Clip-18"></g>
                <path d="M1,17.5 L16,17.5 L16,5.5 L1,5.5 L1,17.5 Z M16,1.5 L14,1.5 L14,3 C14,3.827 13.327,4.5 12.5,4.5 C11.673,4.5 11,3.827 11,3 L11,1.5 L6,1.5 L6,3 C6,3.827 5.327,4.5 4.5,4.5 C3.673,4.5 3,3.827 3,3 L3,1.5 L1,1.5 C0.448,1.5 0,1.948 0,2.5 L0,17.5 C0,18.052 0.448,18.5 1,18.5 L16,18.5 C16.552,18.5 17,18.052 17,17.5 L17,2.5 C17,1.948 16.552,1.5 16,1.5 L16,1.5 Z" id="Fill-17" fill="#FFFFFF" mask="url(#mask-2)"></path>
            </g>
        </g>
    </g>
</svg>