<?xml version="1.0" encoding="iso-8859-1"?>
<!-- Generator: Adobe Illustrator 18.1.1, SVG Export Plug-In . SVG Version: 6.00 Build 0)  -->
<!DOCTYPE svg PUBLIC "-//W3C//DTD SVG 1.1//EN" "http://www.w3.org/Graphics/SVG/1.1/DTD/svg11.dtd" [
	<!ENTITY ns_extend "http://ns.adobe.com/Extensibility/1.0/">
	<!ENTITY ns_ai "http://ns.adobe.com/AdobeIllustrator/10.0/">
	<!ENTITY ns_graphs "http://ns.adobe.com/Graphs/1.0/">
	<!ENTITY ns_vars "http://ns.adobe.com/Variables/1.0/">
	<!ENTITY ns_imrep "http://ns.adobe.com/ImageReplacement/1.0/">
	<!ENTITY ns_sfw "http://ns.adobe.com/SaveForWeb/1.0/">
	<!ENTITY ns_custom "http://ns.adobe.com/GenericCustomNamespace/1.0/">
	<!ENTITY ns_adobe_xpath "http://ns.adobe.com/XPath/1.0/">
]>
<svg version="1.1" id="&#x56FE;&#x5C42;_1" xmlns:x="&ns_extend;" xmlns:i="&ns_ai;" xmlns:graph="&ns_graphs;"
	 xmlns="http://www.w3.org/2000/svg" xmlns:xlink="http://www.w3.org/1999/xlink" x="0px" y="0px" viewBox="0 0 32 32"
	 enable-background="new 0 0 32 32" xml:space="preserve">
<metadata>
	<sfw  xmlns="&ns_sfw;">
		<slices></slices>
		<sliceSourceBounds  height="1050" width="16383" y="-822" x="-8165" bottomLeftOrigin="true"></sliceSourceBounds>
	</sfw>
</metadata>
<g opacity="0.5">
	<path fill="#FFFFFF" d="M16,32c8.822,0,16-7.177,16-16S24.822,0,16,0S0,7.177,0,16S7.178,32,16,32z M16,1c8.271,0,15,6.729,15,15
		s-6.729,15-15,15S1,24.271,1,16S7.729,1,16,1z"/>
</g>
<g opacity="0.5">
	<path fill="#FFFFFF" d="M14,15H9c-0.552,0-1-0.448-1-1V9c0-0.552,0.448-1,1-1h5c0.552,0,1,0.448,1,1v5C15,14.552,14.552,15,14,15z
		 M9.5,9C9.224,9,9,9.224,9,9.5v4C9,13.776,9.224,14,9.5,14h4c0.276,0,0.5-0.224,0.5-0.5v-4C14,9.224,13.776,9,13.5,9H9.5z"/>
</g>
<g opacity="0.5">
	<path fill="#FFFFFF" d="M23,15h-5c-0.552,0-1-0.448-1-1V9c0-0.552,0.448-1,1-1h5c0.552,0,1,0.448,1,1v5C24,14.552,23.552,15,23,15z
		 M18.5,9C18.224,9,18,9.224,18,9.5v4c0,0.276,0.224,0.5,0.5,0.5h4c0.276,0,0.5-0.224,0.5-0.5v-4C23,9.224,22.776,9,22.5,9H18.5z"/>
</g>
<g opacity="0.5">
	<path fill="#FFFFFF" d="M14,24H9c-0.552,0-1-0.448-1-1v-5c0-0.552,0.448-1,1-1h5c0.552,0,1,0.448,1,1v5C15,23.552,14.552,24,14,24z
		 M9.5,18C9.224,18,9,18.224,9,18.5v4C9,22.776,9.224,23,9.5,23h4c0.276,0,0.5-0.224,0.5-0.5v-4c0-0.276-0.224-0.5-0.5-0.5H9.5z"/>
</g>
<g opacity="0.5">
	<path fill="#FFFFFF" d="M23,24h-5c-0.552,0-1-0.448-1-1v-5c0-0.552,0.448-1,1-1h5c0.552,0,1,0.448,1,1v5C24,23.552,23.552,24,23,24
		z M18.5,18c-0.276,0-0.5,0.224-0.5,0.5v4c0,0.276,0.224,0.5,0.5,0.5h4c0.276,0,0.5-0.224,0.5-0.5v-4c0-0.276-0.224-0.5-0.5-0.5
		H18.5z"/>
</g>
</svg>
