<?xml version="1.0" encoding="iso-8859-1"?>
<!-- Generator: Adobe Illustrator 18.0.0, SVG Export Plug-In . SVG Version: 6.00 Build 0)  -->
<!DOCTYPE svg PUBLIC "-//W3C//DTD SVG 1.1//EN" "http://www.w3.org/Graphics/SVG/1.1/DTD/svg11.dtd">
<svg version="1.1" id="&#x56FE;&#x5C42;_1" xmlns="http://www.w3.org/2000/svg" xmlns:xlink="http://www.w3.org/1999/xlink" x="0px"
	 y="0px" viewBox="0 0 32 32" enable-background="new 0 0 32 32" xml:space="preserve">
<path opacity="0.5" fill="#FFFFFF" d="M25,22.5v-13C25,8.673,24.327,8,23.5,8h-15C7.673,8,7,8.673,7,9.5v13
	C7,23.327,7.673,24,8.5,24h15C24.327,24,25,23.327,25,22.5z M24,22.5c0,0.275-0.224,0.5-0.5,0.5h-15C8.224,23,8,22.775,8,22.5v-13
	C8,9.225,8.224,9,8.5,9h15C23.776,9,24,9.225,24,9.5V22.5z"/>
<polygon opacity="0.5" fill="#FFFFFF" points="10.976,10.297 10.243,11.018 13.29,14.006 10.182,17.055 10.916,17.775 
	14.756,14.006 "/>
<rect x="13" y="19" opacity="0.5" fill="#FFFFFF" width="7" height="1"/>
<g opacity="0.5">
	<path fill="#FFFFFF" d="M16,32c8.822,0,16-7.177,16-16S24.822,0,16,0S0,7.177,0,16S7.178,32,16,32z M16,1.3
		c8.106,0,14.7,6.594,14.7,14.7S24.106,30.7,16,30.7S1.3,24.106,1.3,16S7.894,1.3,16,1.3z"/>
</g>
</svg>
