<?xml version="1.0" encoding="iso-8859-1"?>
<!-- Generator: Adobe Illustrator 18.1.1, SVG Export Plug-In . SVG Version: 6.00 Build 0)  -->
<!DOCTYPE svg PUBLIC "-//W3C//DTD SVG 1.1//EN" "http://www.w3.org/Graphics/SVG/1.1/DTD/svg11.dtd" [
	<!ENTITY ns_extend "http://ns.adobe.com/Extensibility/1.0/">
	<!ENTITY ns_ai "http://ns.adobe.com/AdobeIllustrator/10.0/">
	<!ENTITY ns_graphs "http://ns.adobe.com/Graphs/1.0/">
	<!ENTITY ns_vars "http://ns.adobe.com/Variables/1.0/">
	<!ENTITY ns_imrep "http://ns.adobe.com/ImageReplacement/1.0/">
	<!ENTITY ns_sfw "http://ns.adobe.com/SaveForWeb/1.0/">
	<!ENTITY ns_custom "http://ns.adobe.com/GenericCustomNamespace/1.0/">
	<!ENTITY ns_adobe_xpath "http://ns.adobe.com/XPath/1.0/">
]>
<svg version="1.1" id="&#x56FE;&#x5C42;_1" xmlns:x="&ns_extend;" xmlns:i="&ns_ai;" xmlns:graph="&ns_graphs;"
	 xmlns="http://www.w3.org/2000/svg" xmlns:xlink="http://www.w3.org/1999/xlink" x="0px" y="0px" viewBox="0 0 32 32"
	 enable-background="new 0 0 32 32" xml:space="preserve">
<metadata>
	<sfw  xmlns="&ns_sfw;">
		<slices></slices>
		<sliceSourceBounds  height="1050" width="16383" y="-822" x="-8165" bottomLeftOrigin="true"></sliceSourceBounds>
	</sfw>
</metadata>
<path opacity="0.5" fill="#FFFFFF" d="M16.493,8.687C15.901,8.266,14.589,7.484,13,7.484c-2.181,0-3.763,1.362-3.829,1.421
	C9.062,9,9,9.137,9,9.281v11.727c0,0.184,0.101,0.353,0.263,0.44c0.074,0.04,0.156,0.06,0.237,0.06c0.096,0,0.191-0.027,0.274-0.082
	c0.014-0.009,1.351-0.873,3.221-0.873c1.819,0,3.224,0.869,3.238,0.878c0.014,0.009,0.032,0.006,0.047,0.013
	c0.044,0.022,0.092,0.032,0.142,0.04c0.055,0.009,0.104,0.008,0.159-0.001c0.048-0.008,0.095-0.018,0.138-0.04
	c0.016-0.008,0.034-0.005,0.049-0.014c0.014-0.009,1.401-0.877,3.226-0.877c1.849,0,3.22,0.866,3.234,0.875
	c0.153,0.099,0.349,0.105,0.51,0.019C23.9,21.358,24,21.19,24,21.008V9.322c0-0.14-0.058-0.272-0.16-0.367
	c-0.065-0.06-1.613-1.471-3.84-1.471C18.388,7.484,17.075,8.271,16.493,8.687z M10,20.188V9.524c0.418-0.308,1.563-1.04,3-1.04
	c1.407,0,2.583,0.773,3,1.083v10.628c-0.676-0.293-1.744-0.643-3.005-0.643C11.724,19.553,10.668,19.896,10,20.188z M23,20.19
	c-0.671-0.293-1.734-0.638-3.005-0.638c-1.261,0-2.323,0.347-2.995,0.64V9.555c0.42-0.313,1.583-1.07,3-1.07
	c1.457,0,2.594,0.761,3,1.073V20.19z"/>
<path opacity="0.5" fill="#FFFFFF" d="M25.5,11c-0.276,0-0.5,0.224-0.5,0.5V22h-6.469C18.255,22,18,22.224,18,22.5v0.528l-3-0.025
	V22.5c0-0.276-0.224-0.5-0.5-0.5H8V11.5C8,11.224,7.776,11,7.5,11S7,11.224,7,11.5v11C7,22.776,7.224,23,7.5,23H14v0.5
	c0,0.275,0.222,0.482,0.497,0.484L18.528,24c0.001,0,0.002,0,0.003,0c0.132,0,0.243-0.036,0.337-0.13
	C18.962,23.776,19,23.664,19,23.531V23h6.5c0.276,0,0.5-0.224,0.5-0.5v-11C26,11.224,25.776,11,25.5,11z"/>
<g opacity="0.5">
	<path fill="#FFFFFF" d="M16,32c8.822,0,16-7.177,16-16S24.822,0,16,0S0,7.177,0,16S7.178,32,16,32z M16,1c8.271,0,15,6.729,15,15
		s-6.729,15-15,15S1,24.271,1,16S7.729,1,16,1z"/>
</g>
</svg>
