<?xml version="1.0" encoding="iso-8859-1"?>
<!-- Generator: Adobe Illustrator 18.1.1, SVG Export Plug-In . SVG Version: 6.00 Build 0)  -->
<!DOCTYPE svg PUBLIC "-//W3C//DTD SVG 1.1//EN" "http://www.w3.org/Graphics/SVG/1.1/DTD/svg11.dtd" [
	<!ENTITY ns_extend "http://ns.adobe.com/Extensibility/1.0/">
	<!ENTITY ns_ai "http://ns.adobe.com/AdobeIllustrator/10.0/">
	<!ENTITY ns_graphs "http://ns.adobe.com/Graphs/1.0/">
	<!ENTITY ns_vars "http://ns.adobe.com/Variables/1.0/">
	<!ENTITY ns_imrep "http://ns.adobe.com/ImageReplacement/1.0/">
	<!ENTITY ns_sfw "http://ns.adobe.com/SaveForWeb/1.0/">
	<!ENTITY ns_custom "http://ns.adobe.com/GenericCustomNamespace/1.0/">
	<!ENTITY ns_adobe_xpath "http://ns.adobe.com/XPath/1.0/">
]>
<svg version="1.1" id="&#x56FE;&#x5C42;_1" xmlns:x="&ns_extend;" xmlns:i="&ns_ai;" xmlns:graph="&ns_graphs;"
	 xmlns="http://www.w3.org/2000/svg" xmlns:xlink="http://www.w3.org/1999/xlink" x="0px" y="0px" viewBox="0 0 32 32"
	 enable-background="new 0 0 32 32" xml:space="preserve">
<metadata>
	<sfw  xmlns="&ns_sfw;">
		<slices></slices>
		<sliceSourceBounds  height="1050" width="16383" y="-822" x="-8165" bottomLeftOrigin="true"></sliceSourceBounds>
	</sfw>
</metadata>
<g>
	<circle fill-rule="evenodd" clip-rule="evenodd" fill="#FFFFFF" cx="12.023" cy="13.979" r="2"/>
	<path fill-rule="evenodd" clip-rule="evenodd" fill="#FFFFFF" d="M20.41,8.082c-1.431,0-2.48,1.693-4.391,1.693
		c-1.963,0-2.998-1.693-4.389-1.693c-5.145,0-7.582,13.491-3.752,13.835c3.06,0.275,3.675-3.939,8.122-3.939
		c3.596,0,5.402,3.888,8.11,3.888C27.957,21.867,25.554,8.082,20.41,8.082z M12.023,17.479c-1.93,0-3.5-1.57-3.5-3.5
		s1.57-3.5,3.5-3.5c1.93,0,3.5,1.57,3.5,3.5S13.953,17.479,12.023,17.479z M20.511,10.493c0.691,0,1.25,0.564,1.25,1.259
		c0,0.695-0.559,1.259-1.25,1.259c-0.693,0-1.25-0.564-1.25-1.259C19.261,11.057,19.818,10.493,20.511,10.493z M18.239,15.269
		c-0.691,0-1.251-0.564-1.251-1.253c0-0.699,0.56-1.261,1.251-1.261c0.689,0,1.249,0.562,1.249,1.261
		C19.488,14.705,18.929,15.269,18.239,15.269z M20.512,17.516c-0.691,0-1.251-0.563-1.251-1.258c0-0.695,0.56-1.258,1.251-1.258
		c0.69,0,1.249,0.563,1.249,1.258C21.761,16.953,21.202,17.516,20.512,17.516z M22.744,15.266c-0.685,0-1.246-0.564-1.246-1.253
		c0-0.699,0.561-1.261,1.246-1.261c0.695,0,1.254,0.562,1.254,1.261C23.997,14.703,23.439,15.266,22.744,15.266z"/>
</g>
<path fill="#FFFFFF" d="M16,32c8.822,0,16-7.177,16-16S24.822,0,16,0S0,7.177,0,16S7.178,32,16,32z M16,1c8.271,0,15,6.729,15,15
	s-6.729,15-15,15S1,24.271,1,16S7.729,1,16,1z"/>
</svg>
