<?xml version="1.0" encoding="iso-8859-1"?>
<!-- Generator: Adobe Illustrator 18.1.1, SVG Export Plug-In . SVG Version: 6.00 Build 0)  -->
<!DOCTYPE svg PUBLIC "-//W3C//DTD SVG 1.1//EN" "http://www.w3.org/Graphics/SVG/1.1/DTD/svg11.dtd" [
	<!ENTITY ns_extend "http://ns.adobe.com/Extensibility/1.0/">
	<!ENTITY ns_ai "http://ns.adobe.com/AdobeIllustrator/10.0/">
	<!ENTITY ns_graphs "http://ns.adobe.com/Graphs/1.0/">
	<!ENTITY ns_vars "http://ns.adobe.com/Variables/1.0/">
	<!ENTITY ns_imrep "http://ns.adobe.com/ImageReplacement/1.0/">
	<!ENTITY ns_sfw "http://ns.adobe.com/SaveForWeb/1.0/">
	<!ENTITY ns_custom "http://ns.adobe.com/GenericCustomNamespace/1.0/">
	<!ENTITY ns_adobe_xpath "http://ns.adobe.com/XPath/1.0/">
]>
<svg version="1.1" id="&#x56FE;&#x5C42;_1" xmlns:x="&ns_extend;" xmlns:i="&ns_ai;" xmlns:graph="&ns_graphs;"
	 xmlns="http://www.w3.org/2000/svg" xmlns:xlink="http://www.w3.org/1999/xlink" x="0px" y="0px" viewBox="0 0 32 32"
	 enable-background="new 0 0 32 32" xml:space="preserve">
<metadata>
	<sfw  xmlns="&ns_sfw;">
		<slices></slices>
		<sliceSourceBounds  height="1050" width="16383" y="-822" x="-8165" bottomLeftOrigin="true"></sliceSourceBounds>
	</sfw>
</metadata>
<path opacity="0.5" fill="#FFFFFF" d="M8.239,22.07c0.107,0.01,0.212,0.015,0.314,0.015c1.396,0,2.324-0.873,3.22-1.718
	c1.064-1.001,2.164-2.037,4.228-2.037c1.656,0,2.902,0.983,4.107,1.935c1.146,0.904,2.229,1.759,3.597,1.759
	c0.553,0,1.317-0.225,1.818-1.296c0.314-0.672,0.481-1.612,0.481-2.72c0-4.209-2.212-10.079-5.815-10.079
	c-0.774,0-1.418,0.403-2.042,0.794c-0.669,0.419-1.301,0.814-2.13,0.814c-0.868,0-1.539-0.422-2.187-0.83
	c-0.607-0.383-1.234-0.778-1.983-0.778c-3.528,0-5.654,5.501-5.832,9.472C5.891,20.188,6.722,21.934,8.239,22.07z M7.015,17.444
	c0.16-3.556,2.076-8.516,4.833-8.516c0.46,0,0.919,0.289,1.451,0.624c0.732,0.461,1.562,0.984,2.719,0.984
	c1.117,0,1.937-0.514,2.661-0.968c0.549-0.344,1.023-0.641,1.51-0.641c2.895,0,4.815,5.465,4.815,9.079
	c0,0.962-0.134,1.756-0.386,2.296c-0.337,0.72-0.771,0.72-0.913,0.72c-1.022,0-1.928-0.715-2.978-1.543
	c-1.277-1.008-2.724-2.15-4.727-2.15c-2.46,0-3.82,1.28-4.913,2.31c-0.919,0.866-1.628,1.538-2.759,1.435
	C7.244,20.977,6.943,19.058,7.015,17.444z"/>
<path opacity="0.5" fill="#FFFFFF" d="M12.023,17.479c1.93,0,3.5-1.57,3.5-3.5s-1.57-3.5-3.5-3.5c-1.93,0-3.5,1.57-3.5,3.5
	S10.093,17.479,12.023,17.479z M12.023,11.479c1.378,0,2.5,1.121,2.5,2.5s-1.121,2.5-2.5,2.5c-1.379,0-2.5-1.121-2.5-2.5
	S10.644,11.479,12.023,11.479z"/>
<path opacity="0.5" fill="#FFFFFF" d="M18.239,15.269c0.689,0,1.249-0.564,1.249-1.253c0-0.699-0.56-1.261-1.249-1.261
	c-0.691,0-1.251,0.562-1.251,1.261C16.988,14.705,17.548,15.269,18.239,15.269z"/>
<path opacity="0.5" fill="#FFFFFF" d="M11.977,15.259c0.689,0,1.249-0.56,1.249-1.245c0-0.695-0.56-1.254-1.249-1.254
	c-0.691,0-1.251,0.559-1.251,1.254C10.726,14.698,11.286,15.259,11.977,15.259z"/>
<ellipse opacity="0.5" fill="#FFFFFF" cx="20.512" cy="16.258" rx="1.251" ry="1.258"/>
<path opacity="0.5" fill="#FFFFFF" d="M20.511,13.012c0.691,0,1.25-0.564,1.25-1.259c0-0.696-0.559-1.259-1.25-1.259
	c-0.693,0-1.25,0.564-1.25,1.259C19.261,12.448,19.818,13.012,20.511,13.012z"/>
<path opacity="0.5" fill="#FFFFFF" d="M22.744,15.266c0.695,0,1.254-0.564,1.254-1.253c0-0.699-0.559-1.261-1.254-1.261
	c-0.685,0-1.246,0.562-1.246,1.261C21.497,14.703,22.058,15.266,22.744,15.266z"/>
<g opacity="0.5">
	<path fill="#FFFFFF" d="M16,32c8.822,0,16-7.177,16-16S24.822,0,16,0S0,7.177,0,16S7.178,32,16,32z M16,1c8.271,0,15,6.729,15,15
		s-6.729,15-15,15S1,24.271,1,16S7.729,1,16,1z"/>
</g>
</svg>
