<?xml version="1.0" encoding="iso-8859-1"?>
<!-- Generator: Adobe Illustrator 18.1.1, SVG Export Plug-In . SVG Version: 6.00 Build 0)  -->
<!DOCTYPE svg PUBLIC "-//W3C//DTD SVG 1.1//EN" "http://www.w3.org/Graphics/SVG/1.1/DTD/svg11.dtd" [
	<!ENTITY ns_extend "http://ns.adobe.com/Extensibility/1.0/">
	<!ENTITY ns_ai "http://ns.adobe.com/AdobeIllustrator/10.0/">
	<!ENTITY ns_graphs "http://ns.adobe.com/Graphs/1.0/">
	<!ENTITY ns_vars "http://ns.adobe.com/Variables/1.0/">
	<!ENTITY ns_imrep "http://ns.adobe.com/ImageReplacement/1.0/">
	<!ENTITY ns_sfw "http://ns.adobe.com/SaveForWeb/1.0/">
	<!ENTITY ns_custom "http://ns.adobe.com/GenericCustomNamespace/1.0/">
	<!ENTITY ns_adobe_xpath "http://ns.adobe.com/XPath/1.0/">
]>
<svg version="1.1" id="&#x56FE;&#x5C42;_1" xmlns:x="&ns_extend;" xmlns:i="&ns_ai;" xmlns:graph="&ns_graphs;"
	 xmlns="http://www.w3.org/2000/svg" xmlns:xlink="http://www.w3.org/1999/xlink" x="0px" y="0px" viewBox="0 0 32 32"
	 enable-background="new 0 0 32 32" xml:space="preserve">
<metadata>
	<sfw  xmlns="&ns_sfw;">
		<slices></slices>
		<sliceSourceBounds  height="1050" width="16383" y="-822" x="-8165" bottomLeftOrigin="true"></sliceSourceBounds>
	</sfw>
</metadata>
<path opacity="0.1" fill="#FFFFFF" d="M11.522,15.033c1.378,0,2.5-1.122,2.5-2.502c0-1.377-1.122-2.498-2.5-2.498
	s-2.5,1.121-2.5,2.498C9.022,13.911,10.144,15.033,11.522,15.033z M11.522,11.033c0.827,0,1.5,0.672,1.5,1.498
	c0,0.828-0.673,1.502-1.5,1.502s-1.5-0.674-1.5-1.502C10.022,11.705,10.695,11.033,11.522,11.033z"/>
<path opacity="0.1" fill="#FFFFFF" d="M18.763,13.194c-0.08-0.151-0.23-0.251-0.4-0.266c-0.167-0.009-0.335,0.058-0.439,0.192
	l-2.837,3.682l-1.333-1.388c-0.104-0.108-0.251-0.163-0.401-0.151s-0.286,0.091-0.371,0.215l-3.938,5.738
	c-0.105,0.153-0.117,0.352-0.03,0.517C9.099,21.897,9.27,22,9.455,22h13.106c0.006,0,0.014,0,0.02,0c0.276,0,0.5-0.224,0.5-0.5
	c0-0.132-0.051-0.252-0.134-0.341L18.763,13.194z M10.405,21l3.054-4.449l1.31,1.363c0.1,0.104,0.236,0.166,0.388,0.152
	c0.145-0.008,0.28-0.078,0.369-0.193l2.715-3.523L21.733,21H10.405z"/>
<path opacity="0.1" fill="#FFFFFF" d="M8.5,8C7.673,8,7,8.673,7,9.5v13C7,23.327,7.673,24,8.5,24h15c0.827,0,1.5-0.673,1.5-1.5v-13
	C25,8.673,24.327,8,23.5,8H8.5z M24,9.5v13c0,0.276-0.224,0.5-0.5,0.5h-15C8.224,23,8,22.776,8,22.5v-13C8,9.224,8.224,9,8.5,9h15
	C23.776,9,24,9.224,24,9.5z"/>
<g opacity="0.1">
	<path fill="#FFFFFF" d="M16,32c8.822,0,16-7.177,16-16S24.822,0,16,0S0,7.177,0,16S7.178,32,16,32z M16,1c8.271,0,15,6.729,15,15
		s-6.729,15-15,15S1,24.271,1,16S7.729,1,16,1z"/>
</g>
</svg>
