<?xml version="1.0" encoding="iso-8859-1"?>
<!-- Generator: Adobe Illustrator 18.0.0, SVG Export Plug-In . SVG Version: 6.00 Build 0)  -->
<!DOCTYPE svg PUBLIC "-//W3C//DTD SVG 1.1//EN" "http://www.w3.org/Graphics/SVG/1.1/DTD/svg11.dtd">
<svg version="1.1" id="&#x56FE;&#x5C42;_1" xmlns="http://www.w3.org/2000/svg" xmlns:xlink="http://www.w3.org/1999/xlink" x="0px"
	 y="0px" viewBox="0 0 32 32" enable-background="new 0 0 32 32" xml:space="preserve">
<path fill="#FFFFFF" d="M23.5,8h-15C7.673,8,7,8.673,7,9.5v13C7,23.327,7.673,24,8.5,24h15c0.827,0,1.5-0.673,1.5-1.5v-13
	C25,8.673,24.327,8,23.5,8z M11.023,10.021c1.103,0,2,0.896,2,1.997c0,1.104-0.897,2.003-2,2.003s-2-0.898-2-2.003
	C9.023,10.917,9.92,10.021,11.023,10.021z M22.502,21c-0.007,0-0.013,0-0.02,0H9.452c-0.184,0-0.671-0.328-0.22-0.94l3.726-4.805
	c0.084-0.109,0.22-0.179,0.369-0.19c0.15-0.01,0.296,0.038,0.399,0.133l1.325,1.721l2.82-3.739c0.104-0.119,0.269-0.177,0.436-0.169
	c0.169,0.013,0.318,0.101,0.398,0.234l4.16,7.007C23.109,20.703,22.906,21,22.502,21z"/>
<path fill="#FFFFFF" d="M16,32c8.822,0,16-7.177,16-16S24.822,0,16,0S0,7.177,0,16S7.178,32,16,32z M16,1.3
	c8.106,0,14.7,6.594,14.7,14.7S24.106,30.7,16,30.7S1.3,24.106,1.3,16S7.894,1.3,16,1.3z"/>
</svg>
