<?xml version="1.0" encoding="iso-8859-1"?>
<!-- Generator: Adobe Illustrator 18.0.0, SVG Export Plug-In . SVG Version: 6.00 Build 0)  -->
<!DOCTYPE svg PUBLIC "-//W3C//DTD SVG 1.1//EN" "http://www.w3.org/Graphics/SVG/1.1/DTD/svg11.dtd">
<svg version="1.1" id="&#x56FE;&#x5C42;_1" xmlns="http://www.w3.org/2000/svg" xmlns:xlink="http://www.w3.org/1999/xlink" x="0px"
	 y="0px" viewBox="0 0 32 32" enable-background="new 0 0 32 32" xml:space="preserve">
<path fill="#FFFFFF" d="M16,32c8.822,0,16-7.177,16-16S24.822,0,16,0S0,7.177,0,16S7.178,32,16,32z M16,1.3
	c8.106,0,14.7,6.594,14.7,14.7S24.106,30.7,16,30.7S1.3,24.106,1.3,16S7.894,1.3,16,1.3z"/>
<g>
	<path fill="#FFFFFF" d="M23.5,24h-15C8.224,24,8,23.776,8,23.5v-14C8,9.224,8.224,9,8.5,9S9,9.224,9,9.5V23h14.5
		c0.276,0,0.5,0.224,0.5,0.5S23.776,24,23.5,24z"/>
</g>
<g>
	<path fill="#FFFFFF" d="M10.5,22h2c0.276,0,0.5-0.224,0.5-0.5v-9c0-0.276-0.224-0.5-0.5-0.5h-2c-0.276,0-0.5,0.224-0.5,0.5v9
		C10,21.776,10.224,22,10.5,22z"/>
	<path fill="#FFFFFF" d="M15.5,22h2c0.276,0,0.5-0.224,0.5-0.5v-13C18,8.224,17.776,8,17.5,8h-2C15.224,8,15,8.224,15,8.5v13
		C15,21.776,15.224,22,15.5,22z"/>
	<path fill="#FFFFFF" d="M20,15.5v6c0,0.276,0.224,0.5,0.5,0.5h2c0.276,0,0.5-0.224,0.5-0.5v-6c0-0.276-0.224-0.5-0.5-0.5h-2
		C20.224,15,20,15.224,20,15.5z"/>
</g>
</svg>
