<?xml version="1.0" encoding="iso-8859-1"?>
<!-- Generator: Adobe Illustrator 18.0.0, SVG Export Plug-In . SVG Version: 6.00 Build 0)  -->
<!DOCTYPE svg PUBLIC "-//W3C//DTD SVG 1.1//EN" "http://www.w3.org/Graphics/SVG/1.1/DTD/svg11.dtd">
<svg version="1.1" id="&#x56FE;&#x5C42;_1" xmlns="http://www.w3.org/2000/svg" xmlns:xlink="http://www.w3.org/1999/xlink" x="0px"
	 y="0px" viewBox="0 0 32 32" enable-background="new 0 0 32 32" xml:space="preserve">
<g opacity="0.5">
	<path fill="#FFFFFF" d="M16,32c8.822,0,16-7.177,16-16S24.822,0,16,0S0,7.177,0,16S7.178,32,16,32z M16,1.3
		c8.106,0,14.7,6.594,14.7,14.7S24.106,30.7,16,30.7S1.3,24.106,1.3,16S7.894,1.3,16,1.3z"/>
	<g>
		<g>
			<path fill="#FFFFFF" d="M23.5,24h-15C8.224,24,8,23.776,8,23.5v-14C8,9.224,8.224,9,8.5,9S9,9.224,9,9.5V23h14.5
				c0.276,0,0.5,0.224,0.5,0.5S23.776,24,23.5,24z"/>
		</g>
		<g>
			<path fill="#FFFFFF" d="M12.5,22h-2c-0.276,0-0.5-0.224-0.5-0.5v-9c0-0.276,0.224-0.5,0.5-0.5h2c0.276,0,0.5,0.224,0.5,0.5v9
				C13,21.776,12.776,22,12.5,22z M11,21h1v-8h-1V21z"/>
		</g>
		<g>
			<path fill="#FFFFFF" d="M17.5,22h-2c-0.276,0-0.5-0.224-0.5-0.5v-13C15,8.224,15.224,8,15.5,8h2C17.776,8,18,8.224,18,8.5v13
				C18,21.776,17.776,22,17.5,22z M16,21h1V9h-1V21z"/>
		</g>
		<g>
			<path fill="#FFFFFF" d="M22.5,22h-2c-0.276,0-0.5-0.224-0.5-0.5v-6c0-0.276,0.224-0.5,0.5-0.5h2c0.276,0,0.5,0.224,0.5,0.5v6
				C23,21.776,22.776,22,22.5,22z M21,21h1v-5h-1V21z"/>
		</g>
	</g>
</g>
</svg>
