<?xml version="1.0" encoding="iso-8859-1"?>
<!-- Generator: Adobe Illustrator 18.0.0, SVG Export Plug-In . SVG Version: 6.00 Build 0)  -->
<!DOCTYPE svg PUBLIC "-//W3C//DTD SVG 1.1//EN" "http://www.w3.org/Graphics/SVG/1.1/DTD/svg11.dtd">
<svg version="1.1" id="&#x56FE;&#x5C42;_1" xmlns="http://www.w3.org/2000/svg" xmlns:xlink="http://www.w3.org/1999/xlink" x="0px"
	 y="0px" viewBox="0 0 32 32" enable-background="new 0 0 32 32" xml:space="preserve">
<g opacity="0.1">
	<path fill="#FFFFFF" d="M16,32c8.822,0,16-7.177,16-16S24.822,0,16,0S0,7.177,0,16S7.178,32,16,32z M16,1.3
		c8.106,0,14.7,6.594,14.7,14.7S24.106,30.7,16,30.7S1.3,24.106,1.3,16S7.894,1.3,16,1.3z"/>
</g>
<g opacity="0.1">
	<path fill="#FFFFFF" d="M16,25.529c-5.254,0-9.529-4.275-9.529-9.529S10.746,6.471,16,6.471s9.529,4.275,9.529,9.529
		S21.254,25.529,16,25.529z M16,7.529c-4.671,0-8.471,3.8-8.471,8.471s3.8,8.471,8.471,8.471s8.471-3.8,8.471-8.471
		S20.671,7.529,16,7.529z"/>
</g>
<g opacity="0.1">
	<path fill="#FFFFFF" d="M22.5,17h-7c-0.276,0-0.5-0.224-0.5-0.5v-7C15,9.224,15.224,9,15.5,9S16,9.224,16,9.5V16h6.5
		c0.276,0,0.5,0.224,0.5,0.5S22.776,17,22.5,17z"/>
</g>
</svg>
