<?xml version="1.0" encoding="iso-8859-1"?>
<!-- Generator: Adobe Illustrator 18.1.1, SVG Export Plug-In . SVG Version: 6.00 Build 0)  -->
<!DOCTYPE svg PUBLIC "-//W3C//DTD SVG 1.1//EN" "http://www.w3.org/Graphics/SVG/1.1/DTD/svg11.dtd" [
	<!ENTITY ns_extend "http://ns.adobe.com/Extensibility/1.0/">
	<!ENTITY ns_ai "http://ns.adobe.com/AdobeIllustrator/10.0/">
	<!ENTITY ns_graphs "http://ns.adobe.com/Graphs/1.0/">
	<!ENTITY ns_vars "http://ns.adobe.com/Variables/1.0/">
	<!ENTITY ns_imrep "http://ns.adobe.com/ImageReplacement/1.0/">
	<!ENTITY ns_sfw "http://ns.adobe.com/SaveForWeb/1.0/">
	<!ENTITY ns_custom "http://ns.adobe.com/GenericCustomNamespace/1.0/">
	<!ENTITY ns_adobe_xpath "http://ns.adobe.com/XPath/1.0/">
]>
<svg version="1.1" id="&#x56FE;&#x5C42;_1" xmlns:x="&ns_extend;" xmlns:i="&ns_ai;" xmlns:graph="&ns_graphs;"
	 xmlns="http://www.w3.org/2000/svg" xmlns:xlink="http://www.w3.org/1999/xlink" x="0px" y="0px" viewBox="0 0 32 32"
	 enable-background="new 0 0 32 32" xml:space="preserve">
<metadata>
	<sfw  xmlns="&ns_sfw;">
		<slices></slices>
		<sliceSourceBounds  height="1050" width="16383" y="-822" x="-8165" bottomLeftOrigin="true"></sliceSourceBounds>
	</sfw>
</metadata>
<path opacity="0.5" fill="#FFFFFF" d="M16.029,7.028c-4.947,0-8.972,4.025-8.972,8.972s4.025,8.972,8.972,8.972
	s8.972-4.025,8.972-8.972S20.976,7.028,16.029,7.028z M24.057,16c0,0.583-0.066,1.151-0.185,1.699
	c-0.738,0.125-1.438,0.197-2.113,0.235c-0.201-0.512-0.674-0.88-1.242-0.938c-0.695-2.399-1.873-4.28-3.134-5.705
	c0.081-0.184,0.127-0.387,0.127-0.601c0-0.058-0.011-0.114-0.017-0.17c0.934-0.431,1.969-0.805,3.125-1.099
	C22.693,10.875,24.057,13.279,24.057,16z M12.623,14.099c0.682-0.774,1.502-1.527,2.485-2.217c0.252,0.191,0.562,0.308,0.901,0.308
	c0.245,0,0.473-0.064,0.677-0.168c1.145,1.313,2.213,3.027,2.854,5.207c-0.238,0.157-0.427,0.38-0.544,0.642
	c-2.661-0.305-4.725-1.266-6.276-2.384c0.082-0.185,0.129-0.389,0.129-0.604C12.85,14.595,12.764,14.328,12.623,14.099z
	 M19.414,8.731c-0.845,0.259-1.635,0.554-2.358,0.888c-0.27-0.264-0.639-0.428-1.047-0.428c-0.245,0-0.473,0.064-0.677,0.168
	c-0.551-0.435-1.069-0.792-1.518-1.069c0.705-0.203,1.446-0.318,2.215-0.318C17.239,7.972,18.383,8.249,19.414,8.731z M12.608,8.748
	c0.511,0.275,1.228,0.708,2.031,1.336c-0.083,0.186-0.13,0.391-0.13,0.607c0,0.122,0.018,0.238,0.046,0.351
	c-1.079,0.753-1.975,1.581-2.717,2.43c-0.154-0.053-0.316-0.088-0.488-0.088c-0.273,0-0.526,0.079-0.747,0.206
	c-0.636-0.707-1.084-1.352-1.379-1.83C10.038,10.459,11.212,9.409,12.608,8.748z M8.686,12.769c0.316,0.464,0.734,1.012,1.263,1.591
	c-0.061,0.164-0.099,0.339-0.099,0.524c0,0.347,0.123,0.663,0.321,0.917c-0.747,1.282-1.209,2.488-1.485,3.429
	C8.248,18.24,8.001,17.149,8.001,16C8.001,14.85,8.248,13.758,8.686,12.769z M9.392,20.51c0.182-0.885,0.625-2.45,1.62-4.167
	c0.109,0.025,0.221,0.041,0.337,0.041c0.24,0,0.464-0.062,0.666-0.162c1.652,1.22,3.865,2.276,6.716,2.628
	c-1.486,0.929-3.83,2.589-5.476,4.675C11.676,22.94,10.326,21.88,9.392,20.51z M14.288,23.832c1.579-1.871,3.767-3.383,5.108-4.214
	c0.191,0.163,0.418,0.283,0.673,0.333c0.092,0.918,0.105,1.904,0.032,2.954c-1.196,0.708-2.585,1.122-4.073,1.122
	C15.431,24.028,14.849,23.957,14.288,23.832z M21.127,22.196c0.025-0.835,0.012-1.642-0.065-2.395
	c0.344-0.182,0.605-0.491,0.725-0.867c0.57-0.032,1.162-0.094,1.774-0.183C23.064,20.106,22.221,21.295,21.127,22.196z"/>
<g opacity="0.5">
	<path fill="#FFFFFF" d="M16,32c8.822,0,16-7.177,16-16S24.822,0,16,0S0,7.177,0,16S7.178,32,16,32z M16,1c8.271,0,15,6.729,15,15
		s-6.729,15-15,15S1,24.271,1,16S7.729,1,16,1z"/>
</g>
</svg>
