<?xml version="1.0" encoding="iso-8859-1"?>
<!-- Generator: Adobe Illustrator 18.1.1, SVG Export Plug-In . SVG Version: 6.00 Build 0)  -->
<!DOCTYPE svg PUBLIC "-//W3C//DTD SVG 1.1//EN" "http://www.w3.org/Graphics/SVG/1.1/DTD/svg11.dtd" [
	<!ENTITY ns_extend "http://ns.adobe.com/Extensibility/1.0/">
	<!ENTITY ns_ai "http://ns.adobe.com/AdobeIllustrator/10.0/">
	<!ENTITY ns_graphs "http://ns.adobe.com/Graphs/1.0/">
	<!ENTITY ns_vars "http://ns.adobe.com/Variables/1.0/">
	<!ENTITY ns_imrep "http://ns.adobe.com/ImageReplacement/1.0/">
	<!ENTITY ns_sfw "http://ns.adobe.com/SaveForWeb/1.0/">
	<!ENTITY ns_custom "http://ns.adobe.com/GenericCustomNamespace/1.0/">
	<!ENTITY ns_adobe_xpath "http://ns.adobe.com/XPath/1.0/">
]>
<svg version="1.1" id="&#x56FE;&#x5C42;_1" xmlns:x="&ns_extend;" xmlns:i="&ns_ai;" xmlns:graph="&ns_graphs;"
	 xmlns="http://www.w3.org/2000/svg" xmlns:xlink="http://www.w3.org/1999/xlink" x="0px" y="0px" viewBox="0 0 32 32"
	 enable-background="new 0 0 32 32" xml:space="preserve">
<metadata>
	<sfw  xmlns="&ns_sfw;">
		<slices></slices>
		<sliceSourceBounds  height="1050" width="16383" y="-822" x="-8165" bottomLeftOrigin="true"></sliceSourceBounds>
	</sfw>
</metadata>
<g>
	<path fill="#FFFFFF" d="M16.009,12.233c-0.372,0-0.708-0.142-0.968-0.368c-0.953,0.679-1.76,1.414-2.437,2.169
		c0.175,0.243,0.281,0.54,0.281,0.862c0,0.155-0.031,0.302-0.075,0.443c1.562,1.106,3.609,2.05,6.213,2.402
		c0.132-0.24,0.327-0.437,0.565-0.572c-0.647-2.141-1.698-3.831-2.826-5.148C16.541,12.153,16.285,12.233,16.009,12.233z"/>
	<path fill="#FFFFFF" d="M16.029,7.028c-4.947,0-8.972,4.025-8.972,8.972s4.025,8.972,8.972,8.972s8.972-4.025,8.972-8.972
		S20.976,7.028,16.029,7.028z M21.714,18.931c-0.105,0.306-0.301,0.569-0.563,0.749c0.088,0.757,0.109,1.57,0.095,2.409
		c-0.326,0.28-0.676,0.531-1.044,0.756c0.056-1.035,0.043-2.017-0.057-2.925c-0.198-0.023-0.383-0.084-0.549-0.177
		c-1.37,0.86-3.465,2.332-5.051,4.142c-0.383-0.072-0.755-0.173-1.116-0.297c1.673-2.053,3.962-3.701,5.487-4.665
		c-0.014-0.043-0.03-0.085-0.04-0.13c-2.823-0.378-5.039-1.415-6.725-2.623c-0.22,0.13-0.474,0.21-0.749,0.21
		c-0.164,0-0.318-0.033-0.466-0.082c-0.936,1.564-1.423,3.019-1.672,4.008c-0.272-0.425-0.505-0.877-0.693-1.352
		c0.32-0.961,0.804-2.117,1.545-3.33c-0.122-0.216-0.198-0.462-0.198-0.728c0-0.2,0.041-0.39,0.112-0.564
		c-0.549-0.574-0.979-1.116-1.328-1.599c0.161-0.36,0.349-0.704,0.559-1.034c0.353,0.527,0.843,1.177,1.497,1.865
		c0.195-0.095,0.412-0.152,0.643-0.152c0.108,0,0.213,0.013,0.314,0.035c0.773-0.881,1.707-1.739,2.828-2.523
		c-0.007-0.058-0.018-0.115-0.018-0.175c0-0.258,0.072-0.497,0.188-0.709c-0.754-0.603-1.449-1.048-1.982-1.352
		c0.399-0.181,0.815-0.327,1.245-0.441c0.462,0.298,0.978,0.662,1.529,1.112c0.158-0.057,0.326-0.094,0.504-0.094
		c0.332,0,0.635,0.113,0.883,0.297c0.712-0.346,1.501-0.648,2.328-0.926c0.44,0.191,0.86,0.42,1.255,0.684
		c-1.107,0.314-2.106,0.697-3.013,1.13c0.02,0.097,0.03,0.196,0.03,0.299c0,0.156-0.031,0.304-0.076,0.446
		c1.282,1.455,2.48,3.367,3.192,5.804c0.486,0.097,0.886,0.641,1.074,1.087c0.541-0.015,1.443-0.109,2.141-0.206
		c-0.075,0.309-0.167,0.61-0.276,0.903C22.919,18.858,22.302,18.914,21.714,18.931z"/>
</g>
<path fill="#FFFFFF" d="M16,32c8.822,0,16-7.177,16-16S24.822,0,16,0S0,7.177,0,16S7.178,32,16,32z M16,1c8.271,0,15,6.729,15,15
	s-6.729,15-15,15S1,24.271,1,16S7.729,1,16,1z"/>
</svg>
