<?xml version="1.0" encoding="iso-8859-1"?>
<!-- Generator: Adobe Illustrator 18.0.0, SVG Export Plug-In . SVG Version: 6.00 Build 0)  -->
<!DOCTYPE svg PUBLIC "-//W3C//DTD SVG 1.1//EN" "http://www.w3.org/Graphics/SVG/1.1/DTD/svg11.dtd">
<svg version="1.1" id="&#x56FE;&#x5C42;_1" xmlns="http://www.w3.org/2000/svg" xmlns:xlink="http://www.w3.org/1999/xlink" x="0px"
	 y="0px" viewBox="0 0 32 32" enable-background="new 0 0 32 32" xml:space="preserve">
<path fill="#FFFFFF" d="M23.966,8C23.884,7,23.493,7,23,7h-1.177v0H19h-6H9.817v0H9C8.448,7,8,7.448,8,8v15c0,0.552,0.448,1,1,1h14
	c0.552,0,1-0.448,1-1V8v0H23.966z M23,12h-3v3h3v1h-3v3h3v1h-3v3h-1v-7h-6v7h-1v-3H9v-1h3v-3H9v-1h3v-3H9v-1h3V8h1v7h6V8h1v3h3V12z"
	/>
<path fill="#FFFFFF" d="M16,32c8.822,0,16-7.177,16-16S24.822,0,16,0S0,7.177,0,16S7.178,32,16,32z M16,1.3
	c8.106,0,14.7,6.594,14.7,14.7S24.106,30.7,16,30.7S1.3,24.106,1.3,16S7.894,1.3,16,1.3z"/>
</svg>
