<?xml version="1.0" encoding="iso-8859-1"?>
<!-- Generator: Adobe Illustrator 18.0.0, SVG Export Plug-In . SVG Version: 6.00 Build 0)  -->
<!DOCTYPE svg PUBLIC "-//W3C//DTD SVG 1.1//EN" "http://www.w3.org/Graphics/SVG/1.1/DTD/svg11.dtd">
<svg version="1.1" id="&#x56FE;&#x5C42;_1" xmlns="http://www.w3.org/2000/svg" xmlns:xlink="http://www.w3.org/1999/xlink" x="0px"
	 y="0px" viewBox="0 0 32 32" enable-background="new 0 0 32 32" xml:space="preserve">
<path fill="#FFFFFF" d="M16,32c8.822,0,16-7.177,16-16S24.822,0,16,0S0,7.177,0,16S7.178,32,16,32z M16,1.15
	c8.189,0,14.85,6.661,14.85,14.85S24.189,30.85,16,30.85S1.15,24.189,1.15,16S7.811,1.15,16,1.15z"/>
<path fill="#FFFFFF" d="M20.969,17.36c-0.009-0.027-0.02-0.051-0.033-0.076L16.459,6.907c-0.079-0.183-0.258-0.301-0.458-0.302
	c-0.22-0.01-0.379,0.117-0.459,0.299L8.99,21.818c-0.111,0.253,0.004,0.548,0.257,0.659c0.254,0.11,0.548-0.012,0.659-0.265
	L11.753,18h8.409l1.813,4.209c0.082,0.189,0.266,0.306,0.459,0.306c0.066,0,0.133-0.011,0.198-0.039
	c0.253-0.109,0.37-0.402,0.261-0.656L20.969,17.36z M12.192,17l3.803-8.658L19.731,17H12.192z"/>
</svg>
