<?xml version="1.0" encoding="iso-8859-1"?>
<!-- Generator: Adobe Illustrator 18.1.1, SVG Export Plug-In . SVG Version: 6.00 Build 0)  -->
<!DOCTYPE svg PUBLIC "-//W3C//DTD SVG 1.1//EN" "http://www.w3.org/Graphics/SVG/1.1/DTD/svg11.dtd" [
	<!ENTITY ns_extend "http://ns.adobe.com/Extensibility/1.0/">
	<!ENTITY ns_ai "http://ns.adobe.com/AdobeIllustrator/10.0/">
	<!ENTITY ns_graphs "http://ns.adobe.com/Graphs/1.0/">
	<!ENTITY ns_vars "http://ns.adobe.com/Variables/1.0/">
	<!ENTITY ns_imrep "http://ns.adobe.com/ImageReplacement/1.0/">
	<!ENTITY ns_sfw "http://ns.adobe.com/SaveForWeb/1.0/">
	<!ENTITY ns_custom "http://ns.adobe.com/GenericCustomNamespace/1.0/">
	<!ENTITY ns_adobe_xpath "http://ns.adobe.com/XPath/1.0/">
]>
<svg version="1.1" id="&#x56FE;&#x5C42;_1" xmlns:x="&ns_extend;" xmlns:i="&ns_ai;" xmlns:graph="&ns_graphs;"
	 xmlns="http://www.w3.org/2000/svg" xmlns:xlink="http://www.w3.org/1999/xlink" x="0px" y="0px" viewBox="0 0 32 32"
	 enable-background="new 0 0 32 32" xml:space="preserve">
<metadata>
	<sfw  xmlns="&ns_sfw;">
		<slices></slices>
		<sliceSourceBounds  height="1050" width="16383" y="-822" x="-8165" bottomLeftOrigin="true"></sliceSourceBounds>
	</sfw>
</metadata>
<g opacity="0.1">
	<path fill="#FFFFFF" d="M25.041,8H7C6.449,8,6,8.454,6,9.006v1C6,10.558,6.449,11,7,11h1v10.506C8,22.333,8.673,23,9.5,23h5.293
		l-2.061,2.064c-0.195,0.195-0.195,0.513,0,0.709c0.098,0.098,0.226,0.147,0.354,0.147s0.256-0.048,0.354-0.146L16,23.213v3.793
		c0,0.276,0.224,0.5,0.5,0.5s0.5-0.224,0.5-0.5v-3.793l2.561,2.561c0.098,0.098,0.226,0.146,0.354,0.146s0.256-0.049,0.354-0.146
		c0.195-0.195,0.195-0.515,0-0.71L18.207,23h4.334C23.368,23,24,22.333,24,21.506V11h1.041C25.592,11,26,10.558,26,10.006v-1
		C26,8.454,25.592,8,25.041,8z M23,21.506C23,21.782,22.817,22,22.541,22H9.5C9.224,22,9,21.782,9,21.506V11h14V21.506z M25,10
		h-0.959H8H7V9h18V10L25,10L25,10z"/>
	<path fill="#FFFFFF" d="M21.037,15.457c-0.208-2.227-1.253-3.253-3.497-3.436L17,11.979V16h4.088L21.037,15.457z M18,15.006v-1.921
		c1.192,0.202,1.75,0.745,1.967,1.921H18z"/>
	<path fill="#FFFFFF" d="M15.5,21.006c1.93,0,3.5-1.57,3.5-3.5V17h-3v-3h-0.5c-1.93,0-3.5,1.573-3.5,3.503S13.57,21.006,15.5,21.006
		z M15,15.056V18h2.95c-0.232,1-1.242,2.003-2.45,2.003c-1.378,0-2.5-1.12-2.5-2.498C13,16.298,13.86,15.288,15,15.056z"/>
</g>
<g opacity="0.1">
	<path fill="#FFFFFF" d="M16,32c8.822,0,16-7.177,16-16S24.822,0,16,0S0,7.177,0,16S7.178,32,16,32z M16,1c8.271,0,15,6.729,15,15
		s-6.729,15-15,15S1,24.271,1,16S7.729,1,16,1z"/>
</g>
</svg>
