<?xml version="1.0" encoding="iso-8859-1"?>
<!-- Generator: Adobe Illustrator 18.1.1, SVG Export Plug-In . SVG Version: 6.00 Build 0)  -->
<!DOCTYPE svg PUBLIC "-//W3C//DTD SVG 1.1//EN" "http://www.w3.org/Graphics/SVG/1.1/DTD/svg11.dtd" [
	<!ENTITY ns_extend "http://ns.adobe.com/Extensibility/1.0/">
	<!ENTITY ns_ai "http://ns.adobe.com/AdobeIllustrator/10.0/">
	<!ENTITY ns_graphs "http://ns.adobe.com/Graphs/1.0/">
	<!ENTITY ns_vars "http://ns.adobe.com/Variables/1.0/">
	<!ENTITY ns_imrep "http://ns.adobe.com/ImageReplacement/1.0/">
	<!ENTITY ns_sfw "http://ns.adobe.com/SaveForWeb/1.0/">
	<!ENTITY ns_custom "http://ns.adobe.com/GenericCustomNamespace/1.0/">
	<!ENTITY ns_adobe_xpath "http://ns.adobe.com/XPath/1.0/">
]>
<svg version="1.1" id="&#x56FE;&#x5C42;_1" xmlns:x="&ns_extend;" xmlns:i="&ns_ai;" xmlns:graph="&ns_graphs;"
	 xmlns="http://www.w3.org/2000/svg" xmlns:xlink="http://www.w3.org/1999/xlink" x="0px" y="0px" viewBox="0 0 32 32"
	 enable-background="new 0 0 32 32" xml:space="preserve">
<metadata>
	<sfw  xmlns="&ns_sfw;">
		<slices></slices>
		<sliceSourceBounds  height="1050" width="16383" y="-822" x="-8165" bottomLeftOrigin="true"></sliceSourceBounds>
	</sfw>
</metadata>
<g>
	<path fill="#FFFFFF" d="M24.969,8H7C6.449,8,6,8.448,6,9v1c0,0.552,0.449,1,1,1h1v10.5C8,22.327,8.673,23,9.5,23h5.293
		l-2.061,2.061c-0.195,0.195-0.195,0.512,0,0.707c0.098,0.098,0.226,0.146,0.354,0.146s0.256-0.049,0.354-0.146L16,23.207V27
		c0,0.276,0.224,0.5,0.5,0.5S17,27.276,17,27v-3.793l2.561,2.561c0.098,0.098,0.226,0.146,0.354,0.146s0.256-0.049,0.354-0.146
		c0.195-0.195,0.195-0.512,0-0.707L18.207,23h4.262C23.296,23,24,22.327,24,21.5V11h0.969C25.52,11,26,10.552,26,10V9
		C26,8.448,25.52,8,24.969,8z M23,21.5c0,0.275-0.256,0.5-0.531,0.5H9.5C9.224,22,9,21.775,9,21.5V11h14V21.5z"/>
	<path fill="#FFFFFF" d="M21.088,16l-0.051-0.546c-0.208-2.227-1.253-3.255-3.497-3.438L17,11.973v0.542V16h3.539H21.088z"/>
	<path fill="#FFFFFF" d="M15.5,21c1.93,0,3.5-1.57,3.5-3.5V17h-3v-3h-0.5c-1.93,0-3.5,1.57-3.5,3.5S13.57,21,15.5,21z"/>
</g>
<path fill="#FFFFFF" d="M16,32c8.822,0,16-7.177,16-16S24.822,0,16,0S0,7.177,0,16S7.178,32,16,32z M16,1c8.271,0,15,6.729,15,15
	s-6.729,15-15,15S1,24.271,1,16S7.729,1,16,1z"/>
</svg>
