<?xml version="1.0" encoding="UTF-8" standalone="no"?>
<svg width="16px" height="16px" viewBox="0 0 16 16" version="1.1" xmlns="http://www.w3.org/2000/svg" xmlns:xlink="http://www.w3.org/1999/xlink">
    <!-- Generator: Sketch 3.7.2 (28276) - http://www.bohemiancoding.com/sketch -->
    <title>v</title>
    <desc>Created with Sketch.</desc>
    <defs></defs>
    <g id="Page-1" stroke="none" stroke-width="1" fill="none" fill-rule="evenodd">
        <g id="Group-3" transform="translate(-96.000000, -27.000000)"></g>
        <g id="search_hover_16px" transform="translate(2.000000, 1.650024)" fill="#FFFFFF">
            <path d="M5.001175,0.3622 C2.245675,0.3622 0.001175,2.6067 0.001175,5.3622 C0.001175,8.1177 2.245675,10.3622 5.001175,10.3622 C6.196075,10.3622 7.251175,9.8833 8.11258,9.1806 L11.14768,12.2157 C11.171551,12.238912 11.1976807,12.2596817 11.22568,12.2777 C11.2395897,12.2867415 11.2539408,12.2950851 11.26868,12.3027 C11.2839957,12.310163 11.2996829,12.3168384 11.31568,12.3227 C11.3310721,12.3288083 11.3467581,12.3341482 11.36268,12.3387 C11.378801,12.3435219 11.3951552,12.347527 11.41168,12.3507 C11.4608713,12.358081 11.5108887,12.358081 11.56008,12.3507 C11.5765699,12.348186 11.5929237,12.3448485 11.60908,12.3407 C11.6256407,12.3368692 11.6419952,12.3321965 11.65808,12.3267 C11.6740771,12.3208384 11.6897643,12.314163 11.70508,12.3067 C11.7204381,12.300123 11.7354569,12.2927805 11.75008,12.2847 C11.7787295,12.2671077 11.8055317,12.2466709 11.83008,12.2237 C11.8423173,12.2126183 11.8539983,12.2009373 11.86508,12.1887 C11.8760029,12.1768729 11.8863483,12.1645252 11.89608,12.1517 C11.9064273,12.1385277 11.9161061,12.1248438 11.92508,12.1107 C11.9335002,12.0960972 11.9411767,12.0810781 11.94808,12.0657 C11.9621816,12.0355433 11.9732365,12.0040537 11.98108,11.9717 C11.9852285,11.9555437 11.988566,11.9391899 11.99108,11.9227 C11.9919475,11.9057111 11.9919475,11.8886889 11.99108,11.8717 C11.9911132,11.8381154 11.987763,11.8046129 11.98108,11.7717 C11.9759493,11.7389505 11.9675747,11.7067923 11.95608,11.6757 C11.9387611,11.6287425 11.9144906,11.5846511 11.88408,11.5449 C11.8725703,11.5298781 11.8602171,11.5155217 11.84708,11.5019 L8.81198,8.4667 C9.51468,7.6054 9.99358,6.5502 9.99358,5.3554 C9.99358,2.5999 7.749078,0.3554 4.993575,0.3554 L5.001175,0.3622 Z M5.001175,1.3622 C7.216275,1.3622 9.00118,3.1471 9.00118,5.3622 C9.00118,7.5773 7.216275,9.3622 5.001175,9.3622 C2.786175,9.3622 1.001175,7.5773 1.001175,5.3622 C1.001175,3.1471 2.786175,1.3622 5.001175,1.3622 L5.001175,1.3622 Z" id="path35351"></path>
        </g>
    </g>
</svg>