<?xml version="1.0" encoding="iso-8859-1"?>
<!-- Generator: Adobe Illustrator 18.1.1, SVG Export Plug-In . SVG Version: 6.00 Build 0)  -->
<!DOCTYPE svg PUBLIC "-//W3C//DTD SVG 1.1//EN" "http://www.w3.org/Graphics/SVG/1.1/DTD/svg11.dtd" [
	<!ENTITY ns_extend "http://ns.adobe.com/Extensibility/1.0/">
	<!ENTITY ns_ai "http://ns.adobe.com/AdobeIllustrator/10.0/">
	<!ENTITY ns_graphs "http://ns.adobe.com/Graphs/1.0/">
	<!ENTITY ns_vars "http://ns.adobe.com/Variables/1.0/">
	<!ENTITY ns_imrep "http://ns.adobe.com/ImageReplacement/1.0/">
	<!ENTITY ns_sfw "http://ns.adobe.com/SaveForWeb/1.0/">
	<!ENTITY ns_custom "http://ns.adobe.com/GenericCustomNamespace/1.0/">
	<!ENTITY ns_adobe_xpath "http://ns.adobe.com/XPath/1.0/">
]>
<svg version="1.1" id="&#x56FE;&#x5C42;_1" xmlns:x="&ns_extend;" xmlns:i="&ns_ai;" xmlns:graph="&ns_graphs;"
	 xmlns="http://www.w3.org/2000/svg" xmlns:xlink="http://www.w3.org/1999/xlink" x="0px" y="0px" viewBox="0 0 32 32"
	 enable-background="new 0 0 32 32" xml:space="preserve">
<metadata>
	<sfw  xmlns="&ns_sfw;">
		<slices></slices>
		<sliceSourceBounds  height="1050" width="16383" y="-822" x="-8165" bottomLeftOrigin="true"></sliceSourceBounds>
	</sfw>
</metadata>
<path fill="#FFFFFF" d="M16,32.017c8.822,0,16-7.177,16-16s-7.178-16-16-16s-16,7.177-16,16S7.178,32.017,16,32.017z M16,1.017
	c8.271,0,15,6.729,15,15s-6.729,15-15,15s-15-6.729-15-15S7.729,1.017,16,1.017z"/>
<g>
	<path fill-rule="evenodd" clip-rule="evenodd" fill="#FFFFFF" d="M19.845,16.212c-0.25-0.09-0.45-0.28-0.552-0.525
		c-0.102-0.245-0.095-0.523,0.018-0.763l0.299-0.628l-0.858-0.858l-0.627,0.297c-0.24,0.114-0.518,0.119-0.763,0.017
		c-0.245-0.102-0.435-0.307-0.525-0.557l-0.232-0.664h-1.213l-0.232,0.664c-0.09,0.25-0.28,0.461-0.525,0.563
		c-0.246,0.102-0.523,0.095-0.763-0.019l-0.627-0.298l-0.858,0.857l0.299,0.628c0.114,0.24,0.121,0.518,0.019,0.763
		c-0.102,0.245-0.302,0.435-0.552,0.525L11.5,16.445v1.213l0.655,0.232c0.25,0.09,0.45,0.279,0.552,0.525
		c0.102,0.245,0.095,0.523-0.019,0.763l-0.299,0.627l0.858,0.857l0.627-0.3c0.24-0.114,0.518-0.124,0.763-0.022
		c0.245,0.102,0.435,0.297,0.524,0.547l0.233,0.645h1.213l0.231-0.64c0.09-0.252,0.282-0.445,0.529-0.548h0.001
		c0.243-0.101,0.517-0.095,0.756,0.019l0.631,0.301l0.858-0.857l-0.299-0.628c-0.113-0.24-0.121-0.518-0.018-0.763
		c0.102-0.245,0.302-0.435,0.552-0.525l0.654-0.232v-1.213L19.845,16.212z M16,19.051c-1.104,0-2-0.896-2-2c0-1.104,0.896-2,2-2
		c1.104,0,2,0.896,2,2C18,18.155,17.104,19.051,16,19.051z"/>
	<path fill-rule="evenodd" clip-rule="evenodd" fill="#FFFFFF" d="M25,8c0-0.552-0.448-1-1-1H8C7.448,7,7,7.448,7,8v15
		c0,0.552,0.448,1,1,1h16c0.552,0,1-0.448,1-1V8z M22,8.531h1v1h-1V8.531z M20,8.531h1v1h-1V8.531z M18,8.531h1v1h-1V8.531z M24,23
		H8V11h16V23z"/>
</g>
</svg>
