<?xml version="1.0" encoding="iso-8859-1"?>
<!-- Generator: Adobe Illustrator 18.1.1, SVG Export Plug-In . SVG Version: 6.00 Build 0)  -->
<!DOCTYPE svg PUBLIC "-//W3C//DTD SVG 1.1//EN" "http://www.w3.org/Graphics/SVG/1.1/DTD/svg11.dtd" [
	<!ENTITY ns_extend "http://ns.adobe.com/Extensibility/1.0/">
	<!ENTITY ns_ai "http://ns.adobe.com/AdobeIllustrator/10.0/">
	<!ENTITY ns_graphs "http://ns.adobe.com/Graphs/1.0/">
	<!ENTITY ns_vars "http://ns.adobe.com/Variables/1.0/">
	<!ENTITY ns_imrep "http://ns.adobe.com/ImageReplacement/1.0/">
	<!ENTITY ns_sfw "http://ns.adobe.com/SaveForWeb/1.0/">
	<!ENTITY ns_custom "http://ns.adobe.com/GenericCustomNamespace/1.0/">
	<!ENTITY ns_adobe_xpath "http://ns.adobe.com/XPath/1.0/">
]>
<svg version="1.1" id="&#x56FE;&#x5C42;_1" xmlns:x="&ns_extend;" xmlns:i="&ns_ai;" xmlns:graph="&ns_graphs;"
	 xmlns="http://www.w3.org/2000/svg" xmlns:xlink="http://www.w3.org/1999/xlink" x="0px" y="0px" viewBox="0 0 32 32"
	 enable-background="new 0 0 32 32" xml:space="preserve">
<metadata>
	<sfw  xmlns="&ns_sfw;">
		<slices></slices>
		<sliceSourceBounds  height="1050" width="16383" y="-822" x="-8165" bottomLeftOrigin="true"></sliceSourceBounds>
	</sfw>
</metadata>
<path opacity="0.1" fill="#FFFFFF" d="M7,22.551c0,0.828,0.672,1.5,1.5,1.5h15c0.828,0,1.5-0.672,1.5-1.5V12v-1V8.5
	C25,7.672,24.328,7,23.5,7h-15C7.672,7,7,7.672,7,8.5V11v1V22.551z M8,8.5C8,8.224,8.224,8,8.5,8h15C23.775,8,24,8.225,24,8.5V11H8
	V8.5z M24,12v10.551c0,0.276-0.224,0.5-0.5,0.5h-15c-0.275,0-0.5-0.225-0.5-0.5V12H24z"/>
<rect x="18.016" y="9" opacity="0.1" fill="#FFFFFF" width="1" height="1"/>
<rect x="20.001" y="9" opacity="0.1" fill="#FFFFFF" width="1" height="1"/>
<rect x="22.001" y="9" opacity="0.1" fill="#FFFFFF" width="1" height="1"/>
<circle opacity="0.1" fill="#FFFFFF" cx="16" cy="17.517" r="1.5"/>
<g id="gear-icon_7_" opacity="0.1">
	<path fill="#FFFFFF" d="M16.539,22.017h-1.078c-0.211,0-0.4-0.133-0.471-0.332l-0.207-0.582c-0.032-0.089-0.099-0.16-0.185-0.196
		c-0.088-0.037-0.19-0.033-0.275,0.007l-0.555,0.265c-0.191,0.092-0.418,0.052-0.569-0.098l-0.762-0.762
		c-0.15-0.149-0.189-0.377-0.098-0.568l0.266-0.558c0.04-0.085,0.042-0.185,0.006-0.271c-0.037-0.088-0.108-0.155-0.196-0.188
		l-0.582-0.207c-0.199-0.07-0.333-0.259-0.333-0.471v-1.078c0-0.212,0.133-0.4,0.333-0.472l0.582-0.206
		c0.087-0.031,0.159-0.1,0.195-0.187c0.037-0.088,0.034-0.188-0.007-0.273l-0.265-0.557c-0.091-0.191-0.052-0.419,0.098-0.568
		l0.762-0.762c0.151-0.149,0.378-0.189,0.569-0.098l0.557,0.266c0.083,0.039,0.184,0.043,0.271,0.006
		c0.087-0.036,0.156-0.108,0.188-0.198l0.206-0.579c0.071-0.199,0.259-0.333,0.471-0.333h1.078c0.212,0,0.4,0.134,0.471,0.333
		l0.206,0.581c0.032,0.088,0.1,0.16,0.186,0.196c0.089,0.037,0.189,0.033,0.273-0.006l0.557-0.266
		c0.19-0.092,0.418-0.052,0.569,0.098l0.762,0.762c0.15,0.149,0.189,0.378,0.098,0.569l-0.266,0.558
		c-0.04,0.084-0.042,0.184-0.006,0.271c0.037,0.088,0.109,0.156,0.198,0.188l0.58,0.205c0.2,0.071,0.333,0.26,0.333,0.472v1.078
		c0,0.212-0.133,0.4-0.333,0.471l-0.582,0.207c-0.089,0.032-0.16,0.1-0.196,0.187c-0.037,0.088-0.034,0.187,0.006,0.272l0.265,0.558
		c0.091,0.191,0.052,0.419-0.098,0.568l-0.762,0.762c-0.15,0.149-0.377,0.189-0.568,0.098l-0.561-0.267
		c-0.085-0.039-0.178-0.043-0.263-0.007c-0.092,0.038-0.162,0.111-0.194,0.202l-0.205,0.577
		C16.939,21.884,16.75,22.017,16.539,22.017z M15.814,21.017h0.372l0.087-0.244c0.127-0.358,0.4-0.646,0.751-0.791
		c0.341-0.143,0.743-0.133,1.079,0.027l0.241,0.115l0.263-0.263l-0.114-0.24c-0.162-0.343-0.171-0.737-0.026-1.085
		c0.144-0.347,0.43-0.618,0.785-0.744l0.249-0.089v-0.372l-0.249-0.088c-0.356-0.129-0.642-0.4-0.785-0.747
		c-0.145-0.346-0.135-0.741,0.025-1.083l0.115-0.241l-0.262-0.262l-0.238,0.113c-0.338,0.161-0.742,0.17-1.086,0.027
		s-0.617-0.428-0.745-0.784l-0.088-0.25h-0.372l-0.088,0.248c-0.128,0.358-0.401,0.644-0.748,0.786
		c-0.342,0.143-0.747,0.134-1.084-0.027l-0.239-0.113l-0.262,0.262l0.113,0.239c0.163,0.343,0.172,0.738,0.027,1.086
		c-0.143,0.346-0.429,0.617-0.782,0.745L12.5,17.331v0.372l0.25,0.089c0.354,0.126,0.641,0.397,0.785,0.745
		c0.145,0.347,0.135,0.742-0.026,1.084l-0.114,0.24l0.262,0.262l0.238-0.113c0.341-0.162,0.743-0.17,1.086-0.027
		c0.345,0.143,0.618,0.429,0.744,0.784L15.814,21.017z"/>
</g>
<g opacity="0.1">
	<path fill="#FFFFFF" d="M16,32.017c8.822,0,16-7.177,16-16s-7.178-16-16-16s-16,7.177-16,16S7.178,32.017,16,32.017z M16,1.017
		c8.271,0,15,6.729,15,15s-6.729,15-15,15s-15-6.729-15-15S7.729,1.017,16,1.017z"/>
</g>
</svg>
