<?xml version="1.0" encoding="iso-8859-1"?>
<!-- Generator: Adobe Illustrator 18.0.0, SVG Export Plug-In . SVG Version: 6.00 Build 0)  -->
<!DOCTYPE svg PUBLIC "-//W3C//DTD SVG 1.1//EN" "http://www.w3.org/Graphics/SVG/1.1/DTD/svg11.dtd">
<svg version="1.1" id="&#x56FE;&#x5C42;_1" xmlns="http://www.w3.org/2000/svg" xmlns:xlink="http://www.w3.org/1999/xlink" x="0px"
	 y="0px" viewBox="0 0 32 32" enable-background="new 0 0 32 32" xml:space="preserve">
<g opacity="0.1">
	<path fill="#FFFFFF" d="M11.5,14h-2C9.224,14,9,14.224,9,14.5v8C9,22.776,9.224,23,9.5,23h2c0.276,0,0.5-0.224,0.5-0.5v-8
		C12,14.224,11.776,14,11.5,14z M11,22h-1v-7h1V22z"/>
	<path fill="#FFFFFF" d="M17.5,8h-2C15.224,8,15,8.224,15,8.5v14c0,0.276,0.224,0.5,0.5,0.5h2c0.276,0,0.5-0.224,0.5-0.5v-14
		C18,8.224,17.776,8,17.5,8z M17,22h-1V9h1V22z"/>
	<path fill="#FFFFFF" d="M23.5,12h-2c-0.276,0-0.5,0.224-0.5,0.5v10c0,0.276,0.224,0.5,0.5,0.5h2c0.276,0,0.5-0.224,0.5-0.5v-10
		C24,12.224,23.776,12,23.5,12z M23,22h-1v-9h1V22z"/>
</g>
<g opacity="0.1">
	<path fill="#FFFFFF" d="M16,32c8.822,0,16-7.177,16-16S24.822,0,16,0S0,7.177,0,16S7.178,32,16,32z M16,1.3
		c8.106,0,14.7,6.594,14.7,14.7S24.106,30.7,16,30.7S1.3,24.106,1.3,16S7.894,1.3,16,1.3z"/>
</g>
</svg>
