<?xml version="1.0" encoding="iso-8859-1"?>
<!-- Generator: Adobe Illustrator 18.1.1, SVG Export Plug-In . SVG Version: 6.00 Build 0)  -->
<!DOCTYPE svg PUBLIC "-//W3C//DTD SVG 1.1//EN" "http://www.w3.org/Graphics/SVG/1.1/DTD/svg11.dtd" [
	<!ENTITY ns_extend "http://ns.adobe.com/Extensibility/1.0/">
	<!ENTITY ns_ai "http://ns.adobe.com/AdobeIllustrator/10.0/">
	<!ENTITY ns_graphs "http://ns.adobe.com/Graphs/1.0/">
	<!ENTITY ns_vars "http://ns.adobe.com/Variables/1.0/">
	<!ENTITY ns_imrep "http://ns.adobe.com/ImageReplacement/1.0/">
	<!ENTITY ns_sfw "http://ns.adobe.com/SaveForWeb/1.0/">
	<!ENTITY ns_custom "http://ns.adobe.com/GenericCustomNamespace/1.0/">
	<!ENTITY ns_adobe_xpath "http://ns.adobe.com/XPath/1.0/">
]>
<svg version="1.1" id="&#x56FE;&#x5C42;_1" xmlns:x="&ns_extend;" xmlns:i="&ns_ai;" xmlns:graph="&ns_graphs;"
	 xmlns="http://www.w3.org/2000/svg" xmlns:xlink="http://www.w3.org/1999/xlink" x="0px" y="0px" viewBox="0 0 32 32"
	 enable-background="new 0 0 32 32" xml:space="preserve">
<metadata>
	<sfw  xmlns="&ns_sfw;">
		<slices></slices>
		<sliceSourceBounds  height="1050" width="16383" y="-822" x="-8165" bottomLeftOrigin="true"></sliceSourceBounds>
	</sfw>
</metadata>
<path opacity="0.1" fill="#FFFFFF" d="M16,32c8.822,0,16-7.177,16-16S24.822,0,16,0S0,7.177,0,16S7.178,32,16,32z M16,1
	c8.271,0,15,6.729,15,15s-6.729,15-15,15S1,24.271,1,16S7.729,1,16,1z"/>
<g opacity="0.1">
	<g>
		<path fill="#FFFFFF" d="M22.5,25h-14C7.673,25,7,24.327,7,23.5v-14C7,8.673,7.673,8,8.5,8h14C23.327,8,24,8.673,24,9.5v14
			C24,24.327,23.327,25,22.5,25z M8.5,9C8.224,9,8,9.225,8,9.5v14C8,23.775,8.224,24,8.5,24h14c0.276,0,0.5-0.225,0.5-0.5v-14
			C23,9.225,22.776,9,22.5,9H8.5z"/>
	</g>
	<g>
		<path fill="#FFFFFF" d="M11.5,17h-2C9.224,17,9,16.776,9,16.5v-2C9,14.224,9.224,14,9.5,14h2c0.276,0,0.5,0.224,0.5,0.5v2
			C12,16.776,11.776,17,11.5,17z M10,16h1v-1h-1V16z"/>
	</g>
	<g>
		<path fill="#FFFFFF" d="M16.5,17h-2c-0.276,0-0.5-0.224-0.5-0.5v-2c0-0.276,0.224-0.5,0.5-0.5h2c0.276,0,0.5,0.224,0.5,0.5v2
			C17,16.776,16.776,17,16.5,17z M15,16h1v-1h-1V16z"/>
	</g>
	<g>
		<path fill="#FFFFFF" d="M21.5,17h-2c-0.276,0-0.5-0.224-0.5-0.5v-2c0-0.276,0.224-0.5,0.5-0.5h2c0.276,0,0.5,0.224,0.5,0.5v2
			C22,16.776,21.776,17,21.5,17z M20,16h1v-1h-1V16z"/>
	</g>
	<g>
		<path fill="#FFFFFF" d="M11.5,22h-2C9.224,22,9,21.776,9,21.5v-2C9,19.224,9.224,19,9.5,19h2c0.276,0,0.5,0.224,0.5,0.5v2
			C12,21.776,11.776,22,11.5,22z M10,21h1v-1h-1V21z"/>
	</g>
	<g>
		<path fill="#FFFFFF" d="M16.5,22h-2c-0.276,0-0.5-0.224-0.5-0.5v-2c0-0.276,0.224-0.5,0.5-0.5h2c0.276,0,0.5,0.224,0.5,0.5v2
			C17,21.776,16.776,22,16.5,22z M15,21h1v-1h-1V21z"/>
	</g>
	<g>
		<path fill="#FFFFFF" d="M21.5,22h-2c-0.276,0-0.5-0.224-0.5-0.5v-2c0-0.276,0.224-0.5,0.5-0.5h2c0.276,0,0.5,0.224,0.5,0.5v2
			C22,21.776,21.776,22,21.5,22z M20,21h1v-1h-1V21z"/>
	</g>
	<g>
		<path fill="#FFFFFF" d="M23,12H8c-0.276,0-0.5-0.224-0.5-0.5S7.724,11,8,11h15c0.276,0,0.5,0.224,0.5,0.5S23.276,12,23,12z"/>
	</g>
	<g>
		<path fill="#FFFFFF" d="M11.5,10C11.224,10,11,9.776,11,9.5V7c0-0.276,0.224-0.5,0.5-0.5S12,6.724,12,7v2.5
			C12,9.776,11.776,10,11.5,10z"/>
	</g>
	<g>
		<path fill="#FFFFFF" d="M19.5,10C19.224,10,19,9.776,19,9.5V7c0-0.276,0.224-0.5,0.5-0.5S20,6.724,20,7v2.5
			C20,9.776,19.776,10,19.5,10z"/>
	</g>
</g>
</svg>
