<?xml version="1.0" encoding="iso-8859-1"?>
<!-- Generator: Adobe Illustrator 18.0.0, SVG Export Plug-In . SVG Version: 6.00 Build 0)  -->
<!DOCTYPE svg PUBLIC "-//W3C//DTD SVG 1.1//EN" "http://www.w3.org/Graphics/SVG/1.1/DTD/svg11.dtd">
<svg version="1.1" id="&#x56FE;&#x5C42;_1" xmlns="http://www.w3.org/2000/svg" xmlns:xlink="http://www.w3.org/1999/xlink" x="0px"
	 y="0px" viewBox="0 0 32 32" enable-background="new 0 0 32 32" xml:space="preserve">
<path fill="#FFFFFF" d="M16,32c8.822,0,16-7.177,16-16S24.822,0,16,0S0,7.177,0,16S7.178,32,16,32z M16,1.3
	c8.106,0,14.7,6.594,14.7,14.7S24.106,30.7,16,30.7S1.3,24.106,1.3,16S7.894,1.3,16,1.3z"/>
<path fill="#FFFFFF" d="M11.5,14h-2C9.224,14,9,14.224,9,14.5v2C9,16.776,9.224,17,9.5,17h2c0.276,0,0.5-0.224,0.5-0.5v-2
	C12,14.224,11.776,14,11.5,14z"/>
<path fill="#FFFFFF" d="M16.5,14h-2c-0.276,0-0.5,0.224-0.5,0.5v2c0,0.276,0.224,0.5,0.5,0.5h2c0.276,0,0.5-0.224,0.5-0.5v-2
	C17,14.224,16.776,14,16.5,14z"/>
<path fill="#FFFFFF" d="M21.5,14h-2c-0.276,0-0.5,0.224-0.5,0.5v2c0,0.276,0.224,0.5,0.5,0.5h2c0.276,0,0.5-0.224,0.5-0.5v-2
	C22,14.224,21.776,14,21.5,14z"/>
<path fill="#FFFFFF" d="M11.5,19h-2C9.224,19,9,19.224,9,19.5v2C9,21.776,9.224,22,9.5,22h2c0.276,0,0.5-0.224,0.5-0.5v-2
	C12,19.224,11.776,19,11.5,19z"/>
<path fill="#FFFFFF" d="M16.5,19h-2c-0.276,0-0.5,0.224-0.5,0.5v2c0,0.276,0.224,0.5,0.5,0.5h2c0.276,0,0.5-0.224,0.5-0.5v-2
	C17,19.224,16.776,19,16.5,19z"/>
<path fill="#FFFFFF" d="M21.5,19h-2c-0.276,0-0.5,0.224-0.5,0.5v2c0,0.276,0.224,0.5,0.5,0.5h2c0.276,0,0.5-0.224,0.5-0.5v-2
	C22,19.224,21.776,19,21.5,19z"/>
<path fill="#FFFFFF" d="M11.5,10C11.224,10,11,9.776,11,9.5V7c0-0.276,0.224-0.5,0.5-0.5S12,6.724,12,7v2.5
	C12,9.776,11.776,10,11.5,10z"/>
<g>
	<path fill="#FFFFFF" d="M19.5,10C19.224,10,19,9.776,19,9.5V7c0-0.276,0.224-0.5,0.5-0.5S20,6.724,20,7v2.5
		C20,9.776,19.776,10,19.5,10z"/>
</g>
<path fill="#FFFFFF" d="M23,8h-2v1.5c0,0.827-0.673,1.5-1.5,1.5S18,10.327,18,9.5V8h-5v1.5c0,0.827-0.673,1.5-1.5,1.5
	S10,10.327,10,9.5V8H8C7.448,8,7,8.448,7,9v15c0,0.552,0.448,1,1,1h15c0.552,0,1-0.448,1-1V9C24,8.448,23.552,8,23,8z M23,24H8V12
	h15V24z"/>
</svg>
